SplineFontDB: 3.2
FontName: telugu5m
FullName: telugu5m
FamilyName: telugu5m
Weight: Regular
Copyright: Copyright 2022 The Noto Project Authors (https://github.com/notofonts/telugu)
Version: 2.003
ItalicAngle: 0
UnderlinePosition: -125
UnderlineWidth: 50
Ascent: 800
Descent: 200
InvalidEm: 0
sfntRevision: 0x000200c5
LayerCount: 2
Layer: 0 1 "Back" 1
Layer: 1 1 "Fore" 0
XUID: [1021 467 -1121320856 9400805]
StyleMap: 0x0040
FSType: 0
OS2Version: 4
OS2_WeightWidthSlopeOnly: 0
OS2_UseTypoMetrics: 1
CreationTime: 1554112134
ModificationTime: 1716721083
PfmFamily: 81
TTFWeight: 400
TTFWidth: 5
LineGap: 0
VLineGap: 0
Panose: 0 0 0 0 0 0 0 0 0 0
OS2TypoAscent: 869
OS2TypoAOffset: 0
OS2TypoDescent: -483
OS2TypoDOffset: 0
OS2TypoLinegap: 0
OS2WinAscent: 869
OS2WinAOffset: 0
OS2WinDescent: 483
OS2WinDOffset: 0
HheadAscent: 869
HheadAOffset: 0
HheadDescent: -483
HheadDOffset: 0
OS2SubXSize: 650
OS2SubYSize: 600
OS2SubXOff: 0
OS2SubYOff: 75
OS2SupXSize: 650
OS2SupYSize: 600
OS2SupXOff: 0
OS2SupYOff: 350
OS2StrikeYSize: 50
OS2StrikeYPos: 300
OS2CapHeight: 620
OS2XHeight: 500
OS2Vendor: 'GOOG'
OS2CodePages: 00000093.00000000
OS2UnicodeRanges: 80208003.00002042.00000000.00000000
Lookup: 6 8 0 "Contextual Chaining Substitution lookup 0" { "Contextual Chaining Substitution lookup 0 subtable"  } []
Lookup: 1 8 0 "Single Substitution lookup 1" { "Single Substitution lookup 1 subtable"  } []
Lookup: 1 8 0 "Single Substitution lookup 2" { "Single Substitution lookup 2 subtable"  } []
Lookup: 1 8 0 "Single Substitution lookup 3" { "Single Substitution lookup 3 subtable"  } []
Lookup: 1 8 0 "Single Substitution lookup 4" { "Single Substitution lookup 4 subtable"  } []
Lookup: 1 8 0 "Single Substitution lookup 5" { "Single Substitution lookup 5 subtable"  } []
Lookup: 1 8 0 "Single Substitution lookup 6" { "Single Substitution lookup 6 subtable"  } []
Lookup: 1 8 0 "Single Substitution lookup 7" { "Single Substitution lookup 7 subtable"  } []

StartChar: exclam.telu
Encoding: 33 33 3
Width: 1286
Flags: W
LayerCount: 2
Fore
SplineSet
673 201 m 1,0,-1
 616 201 l 1,1,-1
 591 657 l 1,2,-1
 698 657 l 1,3,-1
 673 201 l 1,0,-1
581 57 m 0,4,5
 581 93 581 93 599.5 108.5 c 128,-1,6
 618 124 618 124 643 124 c 0,7,8
 669 124 669 124 687 108.5 c 128,-1,9
 705 93 705 93 705 57 c 0,10,11
 705 20 705 20 687 4 c 128,-1,12
 669 -12 669 -12 643 -12 c 0,13,14
 618 -12 618 -12 599.5 4 c 128,-1,15
 581 20 581 20 581 57 c 0,4,5
EndSplineSet
EndChar

StartChar: quotedbl.telu
Encoding: 34 34 4
Width: 1286
Flags: W
LayerCount: 2
Fore
SplineSet
524.5 515 m 1,0,-1
 499.5 773 l 1,1,-1
 610.5 773 l 1,2,-1
 585.5 515 l 1,3,-1
 524.5 515 l 1,0,-1
701.5 515 m 1,4,-1
 676.5 773 l 1,5,-1
 786.5 773 l 1,6,-1
 761.5 515 l 1,7,-1
 701.5 515 l 1,4,-1
EndSplineSet
EndChar

StartChar: numbersign.telu
Encoding: 35 35 5
Width: 1286
Flags: W
LayerCount: 2
Fore
SplineSet
433.5 0 m 1,0,-1
 471.5 182 l 1,1,-1
 345.5 182 l 1,2,-1
 345.5 248 l 1,3,-1
 484.5 248 l 1,4,-1
 517.5 408 l 1,5,-1
 382.5 408 l 1,6,-1
 382.5 474 l 1,7,-1
 531.5 474 l 1,8,-1
 568.5 651 l 1,9,-1
 640.5 651 l 1,10,-1
 602.5 474 l 1,11,-1
 746.5 474 l 1,12,-1
 784.5 651 l 1,13,-1
 853.5 651 l 1,14,-1
 815.5 474 l 1,15,-1
 940.5 474 l 1,16,-1
 940.5 408 l 1,17,-1
 801.5 408 l 1,18,-1
 767.5 248 l 1,19,-1
 906.5 248 l 1,20,-1
 906.5 182 l 1,21,-1
 753.5 182 l 1,22,-1
 715.5 0 l 1,23,-1
 644.5 0 l 1,24,-1
 683.5 182 l 1,25,-1
 541.5 182 l 1,26,-1
 503.5 0 l 1,27,-1
 433.5 0 l 1,0,-1
554.5 248 m 1,28,-1
 697.5 248 l 1,29,-1
 732.5 408 l 1,30,-1
 589.5 408 l 1,31,-1
 554.5 248 l 1,28,-1
EndSplineSet
EndChar

StartChar: percent.telu
Encoding: 37 37 6
Width: 1286
Flags: W
LayerCount: 2
Fore
SplineSet
406.5 0 m 1,0,-1
 802.5 651 l 1,1,-1
 879.5 651 l 1,2,-1
 483.5 0 l 1,3,-1
 406.5 0 l 1,0,-1
422.5 276 m 0,4,5
 351.5 276 351.5 276 314 327 c 128,-1,6
 276.5 378 276.5 378 276.5 469 c 0,7,8
 276.5 561 276.5 561 311.5 611 c 128,-1,9
 346.5 661 346.5 661 422.5 661 c 0,10,11
 496.5 661 496.5 661 534.5 611 c 128,-1,12
 572.5 561 572.5 561 572.5 469 c 0,13,14
 572.5 378 572.5 378 536 327 c 128,-1,15
 499.5 276 499.5 276 422.5 276 c 0,4,5
422.5 339 m 0,16,17
 461.5 339 461.5 339 480.5 371.5 c 128,-1,18
 499.5 404 499.5 404 499.5 469 c 256,19,20
 499.5 534 499.5 534 480.5 566.5 c 128,-1,21
 461.5 599 461.5 599 422.5 599 c 0,22,23
 384.5 599 384.5 599 367 566.5 c 128,-1,24
 349.5 534 349.5 534 349.5 469 c 0,25,26
 349.5 405 349.5 405 367 372 c 128,-1,27
 384.5 339 384.5 339 422.5 339 c 0,16,17
859.5 -10 m 0,28,29
 788.5 -10 788.5 -10 751 41.5 c 128,-1,30
 713.5 93 713.5 93 713.5 183 c 0,31,32
 713.5 275 713.5 275 748.5 325 c 128,-1,33
 783.5 375 783.5 375 859.5 375 c 0,34,35
 932.5 375 932.5 375 971 325 c 128,-1,36
 1009.5 275 1009.5 275 1009.5 183 c 0,37,38
 1009.5 93 1009.5 93 973 41.5 c 128,-1,39
 936.5 -10 936.5 -10 859.5 -10 c 0,28,29
859.5 53 m 0,40,41
 898.5 53 898.5 53 917.5 85.5 c 128,-1,42
 936.5 118 936.5 118 936.5 183 c 256,43,44
 936.5 248 936.5 248 917.5 280 c 128,-1,45
 898.5 312 898.5 312 859.5 312 c 0,46,47
 821.5 312 821.5 312 804 280 c 128,-1,48
 786.5 248 786.5 248 786.5 183 c 256,49,50
 786.5 118 786.5 118 804 85.5 c 128,-1,51
 821.5 53 821.5 53 859.5 53 c 0,40,41
EndSplineSet
EndChar

StartChar: quotesingle.telu
Encoding: 39 39 7
Width: 1286
Flags: W
LayerCount: 2
Fore
SplineSet
612.5 515 m 1,0,-1
 587.5 773 l 1,1,-1
 698.5 773 l 1,2,-1
 673.5 515 l 1,3,-1
 612.5 515 l 1,0,-1
EndSplineSet
EndChar

StartChar: parenleft.telu
Encoding: 40 40 8
Width: 1286
Flags: W
LayerCount: 2
Fore
SplineSet
508.5 211 m 0,0,1
 508.5 289 508.5 289 520 364.5 c 128,-1,2
 531.5 440 531.5 440 554 511.5 c 128,-1,3
 576.5 583 576.5 583 611 648.5 c 128,-1,4
 645.5 714 645.5 714 691.5 773 c 1,5,-1
 776.5 773 l 1,6,7
 715.5 684 715.5 684 676 592.5 c 128,-1,8
 636.5 501 636.5 501 617 406 c 128,-1,9
 597.5 311 597.5 311 597.5 210 c 0,10,11
 597.5 56 597.5 56 640.5 -84 c 128,-1,12
 683.5 -224 683.5 -224 777.5 -361 c 1,13,-1
 691.5 -361 l 1,14,15
 629.5 -282 629.5 -282 589 -190 c 128,-1,16
 548.5 -98 548.5 -98 528.5 3.5 c 128,-1,17
 508.5 105 508.5 105 508.5 211 c 0,0,1
EndSplineSet
EndChar

StartChar: parenright.telu
Encoding: 41 41 9
Width: 1286
Flags: W
LayerCount: 2
Fore
SplineSet
777.5 201 m 0,0,1
 777.5 123 777.5 123 766 47.5 c 128,-1,2
 754.5 -28 754.5 -28 731.5 -99.5 c 128,-1,3
 708.5 -171 708.5 -171 674 -236.5 c 128,-1,4
 639.5 -302 639.5 -302 593.5 -361 c 1,5,-1
 509.5 -361 l 1,6,7
 571.5 -271 571.5 -271 611 -179.5 c 128,-1,8
 650.5 -88 650.5 -88 669.5 7 c 128,-1,9
 688.5 102 688.5 102 688.5 202 c 0,10,11
 688.5 357 688.5 357 646 495.5 c 128,-1,12
 603.5 634 603.5 634 508.5 773 c 1,13,-1
 593.5 773 l 1,14,15
 655.5 695 655.5 695 696.5 602.5 c 128,-1,16
 737.5 510 737.5 510 757.5 408.5 c 128,-1,17
 777.5 307 777.5 307 777.5 201 c 0,0,1
EndSplineSet
EndChar

StartChar: asterisk.telu
Encoding: 42 42 10
Width: 1286
Flags: W
LayerCount: 2
Fore
SplineSet
690 773 m 1,0,-1
 670 581 l 1,1,-1
 863 635 l 1,2,-1
 876 543 l 1,3,-1
 693 528 l 1,4,-1
 812 370 l 1,5,-1
 726 323 l 1,6,-1
 641 498 l 1,7,-1
 563 323 l 1,8,-1
 475 370 l 1,9,-1
 592 528 l 1,10,-1
 410 543 l 1,11,-1
 424 635 l 1,12,-1
 614 581 l 1,13,-1
 593 773 l 1,14,-1
 690 773 l 1,0,-1
EndSplineSet
EndChar

StartChar: plus.telu
Encoding: 43 43 11
Width: 1286
Flags: W
LayerCount: 2
Fore
SplineSet
607 291 m 1,0,-1
 408 291 l 1,1,-1
 408 362 l 1,2,-1
 607 362 l 1,3,-1
 607 569 l 1,4,-1
 679 569 l 1,5,-1
 679 362 l 1,6,-1
 878 362 l 1,7,-1
 878 291 l 1,8,-1
 679 291 l 1,9,-1
 679 84 l 1,10,-1
 607 84 l 1,11,-1
 607 291 l 1,0,-1
EndSplineSet
EndChar

StartChar: comma.telu
Encoding: 44 44 12
Width: 1286
Flags: W
LayerCount: 2
Fore
SplineSet
711.5 116 m 1,0,-1
 718.5 105 l 1,1,2
 709.5 70 709.5 70 695.5 29 c 128,-1,3
 681.5 -12 681.5 -12 665 -52.5 c 128,-1,4
 648.5 -93 648.5 -93 632.5 -129 c 1,5,-1
 567.5 -129 l 1,6,7
 577.5 -91 577.5 -91 587 -47.5 c 128,-1,8
 596.5 -4 596.5 -4 604.5 38.5 c 128,-1,9
 612.5 81 612.5 81 617.5 116 c 1,10,-1
 711.5 116 l 1,0,-1
EndSplineSet
EndChar

StartChar: hyphen.telu
Encoding: 45 45 13
Width: 1286
Flags: W
LayerCount: 2
Fore
SplineSet
522 214 m 1,0,-1
 522 292 l 1,1,-1
 764 292 l 1,2,-1
 764 214 l 1,3,-1
 522 214 l 1,0,-1
EndSplineSet
EndChar

StartChar: period.telu
Encoding: 46 46 14
Width: 1286
Flags: W
LayerCount: 2
Fore
SplineSet
581 57 m 0,0,1
 581 93 581 93 599 108.5 c 128,-1,2
 617 124 617 124 642 124 c 0,3,4
 668 124 668 124 686.5 108.5 c 128,-1,5
 705 93 705 93 705 57 c 0,6,7
 705 20 705 20 686.5 4 c 128,-1,8
 668 -12 668 -12 642 -12 c 0,9,10
 617 -12 617 -12 599 4 c 128,-1,11
 581 20 581 20 581 57 c 0,0,1
EndSplineSet
EndChar

StartChar: slash.telu
Encoding: 47 47 15
Width: 1286
Flags: W
LayerCount: 2
Fore
SplineSet
831.5 773 m 1,0,-1
 541.5 -361 l 1,1,-1
 454.5 -361 l 1,2,-1
 745.5 773 l 1,3,-1
 831.5 773 l 1,0,-1
EndSplineSet
EndChar

StartChar: zero.telu
Encoding: 48 48 16
Width: 1286
Flags: W
LayerCount: 2
Fore
SplineSet
642 -10 m 0,0,1
 527 -10 527 -10 471 87.5 c 128,-1,2
 415 185 415 185 415 358 c 0,3,4
 415 474 415 474 437.5 556 c 128,-1,5
 460 638 460 638 510 681.5 c 128,-1,6
 560 725 560 725 642 725 c 0,7,8
 758 725 758 725 814.5 628.5 c 128,-1,9
 871 532 871 532 871 358 c 0,10,11
 871 271 871 271 858.5 203 c 128,-1,12
 846 135 846 135 819 87.5 c 128,-1,13
 792 40 792 40 748 15 c 128,-1,14
 704 -10 704 -10 642 -10 c 0,0,1
642 66 m 256,15,16
 717 66 717 66 749 138 c 128,-1,17
 781 210 781 210 781 358 c 0,18,19
 781 504 781 504 749 576.5 c 128,-1,20
 717 649 717 649 642 649 c 256,21,22
 567 649 567 649 536 576.5 c 128,-1,23
 505 504 505 504 505 358 c 256,24,25
 505 212 505 212 536 139 c 128,-1,26
 567 66 567 66 642 66 c 256,15,16
EndSplineSet
EndChar

StartChar: one.telu
Encoding: 49 49 17
Width: 1286
Flags: W
LayerCount: 2
Fore
SplineSet
687 0 m 1,0,-1
 687 446 l 2,1,2
 687 474 687 474 688 506.5 c 128,-1,3
 689 539 689 539 690 569.5 c 128,-1,4
 691 600 691 600 691 622 c 1,5,6
 675 605 675 605 663.5 594.5 c 128,-1,7
 652 584 652 584 632 567 c 2,8,-1
 560 508 l 1,9,-1
 513 568 l 1,10,-1
 700 714 l 1,11,-1
 773 714 l 1,12,-1
 773 0 l 1,13,-1
 687 0 l 1,0,-1
EndSplineSet
EndChar

StartChar: two.telu
Encoding: 50 50 18
Width: 1286
Flags: W
LayerCount: 2
Fore
SplineSet
420.5 76 m 1,0,-1
 591.5 262 l 2,1,2
 640.5 315 640.5 315 675 357 c 128,-1,3
 709.5 399 709.5 399 728.5 440 c 128,-1,4
 747.5 481 747.5 481 747.5 530 c 0,5,6
 747.5 587 747.5 587 715.5 618 c 128,-1,7
 683.5 649 683.5 649 632.5 649 c 0,8,9
 586.5 649 586.5 649 549 630 c 128,-1,10
 511.5 611 511.5 611 477.5 582 c 1,11,-1
 427.5 640 l 1,12,13
 453.5 664 453.5 664 485 683 c 128,-1,14
 516.5 702 516.5 702 554 713 c 128,-1,15
 591.5 724 591.5 724 633.5 724 c 0,16,17
 696.5 724 696.5 724 742 701 c 128,-1,18
 787.5 678 787.5 678 812.5 635.5 c 128,-1,19
 837.5 593 837.5 593 837.5 533 c 0,20,21
 837.5 478 837.5 478 815.5 429 c 128,-1,22
 793.5 380 793.5 380 755 332 c 128,-1,23
 716.5 284 716.5 284 666.5 231 c 2,24,-1
 529.5 85 l 1,25,-1
 529.5 81 l 1,26,-1
 865.5 81 l 1,27,-1
 865.5 0 l 1,28,-1
 420.5 0 l 1,29,-1
 420.5 76 l 1,0,-1
EndSplineSet
EndChar

StartChar: three.telu
Encoding: 51 51 19
Width: 1286
Flags: W
LayerCount: 2
Fore
SplineSet
606.5 -10 m 0,0,1
 553.5 -10 553.5 -10 506 -1.5 c 128,-1,2
 458.5 7 458.5 7 417.5 29 c 1,3,-1
 417.5 112 l 1,4,5
 460.5 90 460.5 90 509.5 77.5 c 128,-1,6
 558.5 65 558.5 65 604.5 65 c 0,7,8
 694.5 65 694.5 65 736 102.5 c 128,-1,9
 777.5 140 777.5 140 777.5 206 c 0,10,11
 777.5 250 777.5 250 755 278 c 128,-1,12
 732.5 306 732.5 306 691 319 c 128,-1,13
 649.5 332 649.5 332 591.5 332 c 2,14,-1
 526.5 332 l 1,15,-1
 526.5 406 l 1,16,-1
 591.5 406 l 2,17,18
 644.5 406 644.5 406 681 423 c 128,-1,19
 717.5 440 717.5 440 736.5 470.5 c 128,-1,20
 755.5 501 755.5 501 755.5 541 c 0,21,22
 755.5 575 755.5 575 740 599 c 128,-1,23
 724.5 623 724.5 623 697.5 636 c 128,-1,24
 670.5 649 670.5 649 633.5 649 c 0,25,26
 581.5 649 581.5 649 541.5 632.5 c 128,-1,27
 501.5 616 501.5 616 465.5 590 c 1,28,-1
 420.5 651 l 1,29,30
 457.5 681 457.5 681 511.5 702.5 c 128,-1,31
 565.5 724 565.5 724 633.5 724 c 0,32,33
 703.5 724 703.5 724 751 701 c 128,-1,34
 798.5 678 798.5 678 822.5 638.5 c 128,-1,35
 846.5 599 846.5 599 846.5 547 c 0,36,37
 846.5 499 846.5 499 827 463.5 c 128,-1,38
 807.5 428 807.5 428 773 406 c 128,-1,39
 738.5 384 738.5 384 692.5 376 c 1,40,-1
 692.5 373 l 1,41,42
 778.5 363 778.5 363 823.5 318.5 c 128,-1,43
 868.5 274 868.5 274 868.5 203 c 0,44,45
 868.5 141 868.5 141 840.5 92.5 c 128,-1,46
 812.5 44 812.5 44 754.5 17 c 128,-1,47
 696.5 -10 696.5 -10 606.5 -10 c 0,0,1
EndSplineSet
EndChar

StartChar: four.telu
Encoding: 52 52 20
Width: 1286
Flags: W
LayerCount: 2
Fore
SplineSet
713 160 m 1,0,-1
 383 160 l 1,1,-1
 383 238 l 1,2,-1
 707 718 l 1,3,-1
 799 718 l 1,4,-1
 799 241 l 1,5,-1
 903 241 l 1,6,-1
 903 160 l 1,7,-1
 799 160 l 1,8,-1
 799 0 l 1,9,-1
 713 0 l 1,10,-1
 713 160 l 1,0,-1
713 241 m 1,11,-1
 713 415 l 2,12,13
 713 442 713 442 714 472 c 128,-1,14
 715 502 715 502 716 531 c 128,-1,15
 717 560 717 560 718 585 c 128,-1,16
 719 610 719 610 719 626 c 1,17,-1
 715 626 l 1,18,19
 708 607 708 607 695 581 c 128,-1,20
 682 555 682 555 671 538 c 2,21,-1
 470 241 l 1,22,-1
 713 241 l 1,11,-1
EndSplineSet
EndChar

StartChar: five.telu
Encoding: 53 53 21
Width: 1286
Flags: W
LayerCount: 2
Fore
SplineSet
601.5 -10 m 0,0,1
 551.5 -10 551.5 -10 505.5 -0.5 c 128,-1,2
 459.5 9 459.5 9 427.5 29 c 1,3,-1
 427.5 113 l 1,4,5
 449.5 98 449.5 98 480 87.5 c 128,-1,6
 510.5 77 510.5 77 543.5 71.5 c 128,-1,7
 576.5 66 576.5 66 603.5 66 c 0,8,9
 680.5 66 680.5 66 724 103 c 128,-1,10
 767.5 140 767.5 140 767.5 219 c 0,11,12
 767.5 290 767.5 290 724.5 326.5 c 128,-1,13
 681.5 363 681.5 363 599.5 363 c 0,14,15
 573.5 363 573.5 363 540 358.5 c 128,-1,16
 506.5 354 506.5 354 486.5 350 c 1,17,-1
 442.5 378 l 1,18,-1
 469.5 714 l 1,19,-1
 806.5 714 l 1,20,-1
 806.5 633 l 1,21,-1
 546.5 633 l 1,22,-1
 527.5 428 l 1,23,24
 543.5 432 543.5 432 571 435 c 128,-1,25
 598.5 438 598.5 438 629.5 438 c 0,26,27
 694.5 438 694.5 438 746 414.5 c 128,-1,28
 797.5 391 797.5 391 828 344.5 c 128,-1,29
 858.5 298 858.5 298 858.5 229 c 0,30,31
 858.5 117 858.5 117 792.5 53.5 c 128,-1,32
 726.5 -10 726.5 -10 601.5 -10 c 0,0,1
EndSplineSet
EndChar

StartChar: six.telu
Encoding: 54 54 22
Width: 1286
Flags: W
LayerCount: 2
Fore
SplineSet
651 -10 m 0,0,1
 586 -10 586 -10 533 24 c 128,-1,2
 480 58 480 58 449 128 c 128,-1,3
 418 198 418 198 418 305 c 0,4,5
 418 367 418 367 425.5 427 c 128,-1,6
 433 487 433 487 453 540.5 c 128,-1,7
 473 594 473 594 508 635.5 c 128,-1,8
 543 677 543 677 597.5 700.5 c 128,-1,9
 652 724 652 724 730 724 c 0,10,11
 749 724 749 724 773.5 722 c 128,-1,12
 798 720 798 720 814 715 c 1,13,-1
 814 639 l 1,14,15
 797 645 797 645 775.5 648 c 128,-1,16
 754 651 754 651 733 651 c 0,17,18
 667 651 667 651 624.5 628 c 128,-1,19
 582 605 582 605 557.5 565.5 c 128,-1,20
 533 526 533 526 522 474 c 128,-1,21
 511 422 511 422 509 364 c 1,22,-1
 515 364 l 1,23,24
 535 399 535 399 571 423 c 128,-1,25
 607 447 607 447 665 447 c 0,26,27
 727 447 727 447 772.5 421.5 c 128,-1,28
 818 396 818 396 843 347.5 c 128,-1,29
 868 299 868 299 868 230 c 0,30,31
 868 156 868 156 841.5 102 c 128,-1,32
 815 48 815 48 766.5 19 c 128,-1,33
 718 -10 718 -10 651 -10 c 0,0,1
650 65 m 0,34,35
 709 65 709 65 745.5 105 c 128,-1,36
 782 145 782 145 782 230 c 0,37,38
 782 298 782 298 750 337.5 c 128,-1,39
 718 377 718 377 653 377 c 0,40,41
 609 377 609 377 576 357.5 c 128,-1,42
 543 338 543 338 525 308.5 c 128,-1,43
 507 279 507 279 507 247 c 0,44,45
 507 204 507 204 523 162 c 128,-1,46
 539 120 539 120 571 92.5 c 128,-1,47
 603 65 603 65 650 65 c 0,34,35
EndSplineSet
EndChar

StartChar: seven.telu
Encoding: 55 55 23
Width: 1286
Flags: W
LayerCount: 2
Fore
SplineSet
781.5 633 m 1,0,-1
 413.5 633 l 1,1,-1
 413.5 714 l 1,2,-1
 872.5 714 l 1,3,-1
 872.5 643 l 1,4,-1
 601.5 0 l 1,5,-1
 506.5 0 l 1,6,-1
 781.5 633 l 1,0,-1
EndSplineSet
EndChar

StartChar: eight.telu
Encoding: 56 56 24
Width: 1286
Flags: W
LayerCount: 2
Fore
SplineSet
643 -10 m 0,0,1
 536 -10 536 -10 477.5 41.5 c 128,-1,2
 419 93 419 93 419 182 c 0,3,4
 419 231 419 231 437.5 267 c 128,-1,5
 456 303 456 303 487.5 329.5 c 128,-1,6
 519 356 519 356 557 374 c 1,7,8
 525 395 525 395 499 420 c 128,-1,9
 473 445 473 445 457.5 478 c 128,-1,10
 442 511 442 511 442 554 c 0,11,12
 442 611 442 611 470 649 c 128,-1,13
 498 687 498 687 544 706 c 128,-1,14
 590 725 590 725 643 725 c 0,15,16
 698 725 698 725 743.5 706 c 128,-1,17
 789 687 789 687 816.5 649 c 128,-1,18
 844 611 844 611 844 553 c 0,19,20
 844 510 844 510 827 477.5 c 128,-1,21
 810 445 810 445 781.5 421 c 128,-1,22
 753 397 753 397 716 378 c 1,23,24
 754 358 754 358 788.5 331.5 c 128,-1,25
 823 305 823 305 845 269.5 c 128,-1,26
 867 234 867 234 867 186 c 0,27,28
 867 126 867 126 838.5 82 c 128,-1,29
 810 38 810 38 760 14 c 128,-1,30
 710 -10 710 -10 643 -10 c 0,0,1
641 64 m 0,31,32
 710 64 710 64 745 97 c 128,-1,33
 780 130 780 130 780 185 c 0,34,35
 780 233 780 233 743.5 268.5 c 128,-1,36
 707 304 707 304 630 340 c 1,37,38
 589 321 589 321 561.5 297.5 c 128,-1,39
 534 274 534 274 520 245.5 c 128,-1,40
 506 217 506 217 506 181 c 0,41,42
 506 129 506 129 538.5 96.5 c 128,-1,43
 571 64 571 64 641 64 c 0,31,32
644 414 m 1,44,45
 676 429 676 429 701.5 447 c 128,-1,46
 727 465 727 465 742 490 c 128,-1,47
 757 515 757 515 757 550 c 0,48,49
 757 600 757 600 726.5 625.5 c 128,-1,50
 696 651 696 651 642 651 c 0,51,52
 608 651 608 651 582.5 639.5 c 128,-1,53
 557 628 557 628 543 605.5 c 128,-1,54
 529 583 529 583 529 550 c 0,55,56
 529 514 529 514 544 489.5 c 128,-1,57
 559 465 559 465 585 447.5 c 128,-1,58
 611 430 611 430 644 414 c 1,44,45
EndSplineSet
EndChar

StartChar: nine.telu
Encoding: 57 57 25
Width: 1286
Flags: W
LayerCount: 2
Fore
SplineSet
556 -10 m 0,0,1
 537 -10 537 -10 513 -7.5 c 128,-1,2
 489 -5 489 -5 472 -1 c 1,3,-1
 472 75 l 1,4,5
 489 69 489 69 510.5 66 c 128,-1,6
 532 63 532 63 553 63 c 0,7,8
 619 63 619 63 662 86 c 128,-1,9
 705 109 705 109 729 148.5 c 128,-1,10
 753 188 753 188 764 240 c 128,-1,11
 775 292 775 292 777 350 c 1,12,-1
 771 350 l 1,13,14
 758 327 758 327 737.5 308 c 128,-1,15
 717 289 717 289 688.5 278 c 128,-1,16
 660 267 660 267 621 267 c 0,17,18
 560 267 560 267 514 292.5 c 128,-1,19
 468 318 468 318 443 366.5 c 128,-1,20
 418 415 418 415 418 484 c 0,21,22
 418 559 418 559 444.5 612.5 c 128,-1,23
 471 666 471 666 520 695 c 128,-1,24
 569 724 569 724 635 724 c 256,25,26
 701 724 701 724 753.5 690 c 128,-1,27
 806 656 806 656 837 586 c 128,-1,28
 868 516 868 516 868 409 c 0,29,30
 868 348 868 348 860.5 287.5 c 128,-1,31
 853 227 853 227 833 173.5 c 128,-1,32
 813 120 813 120 778 78.5 c 128,-1,33
 743 37 743 37 688.5 13.5 c 128,-1,34
 634 -10 634 -10 556 -10 c 0,0,1
633 337 m 0,35,36
 677 337 677 337 710 356.5 c 128,-1,37
 743 376 743 376 761 406 c 128,-1,38
 779 436 779 436 779 467 c 0,39,40
 779 500 779 500 770 532 c 128,-1,41
 761 564 761 564 743 590.5 c 128,-1,42
 725 617 725 617 698.5 633 c 128,-1,43
 672 649 672 649 636 649 c 0,44,45
 578 649 578 649 541 609 c 128,-1,46
 504 569 504 569 504 484 c 0,47,48
 504 416 504 416 536.5 376.5 c 128,-1,49
 569 337 569 337 633 337 c 0,35,36
EndSplineSet
EndChar

StartChar: colon.telu
Encoding: 58 58 26
Width: 1286
Flags: W
LayerCount: 2
Fore
SplineSet
581 57 m 0,0,1
 581 93 581 93 599 108.5 c 128,-1,2
 617 124 617 124 642 124 c 0,3,4
 668 124 668 124 686.5 108.5 c 128,-1,5
 705 93 705 93 705 57 c 0,6,7
 705 20 705 20 686.5 4 c 128,-1,8
 668 -12 668 -12 642 -12 c 0,9,10
 617 -12 617 -12 599 4 c 128,-1,11
 581 20 581 20 581 57 c 0,0,1
581 387 m 0,12,13
 581 425 581 425 599 440 c 128,-1,14
 617 455 617 455 642 455 c 0,15,16
 668 455 668 455 686.5 440 c 128,-1,17
 705 425 705 425 705 387 c 0,18,19
 705 351 705 351 686.5 335 c 128,-1,20
 668 319 668 319 642 319 c 0,21,22
 617 319 617 319 599 335 c 128,-1,23
 581 351 581 351 581 387 c 0,12,13
EndSplineSet
EndChar

StartChar: semicolon.telu
Encoding: 59 59 27
Width: 1286
Flags: W
LayerCount: 2
Fore
SplineSet
705.5 116 m 1,0,-1
 712.5 105 l 1,1,2
 703.5 70 703.5 70 689.5 29 c 128,-1,3
 675.5 -12 675.5 -12 659 -52.5 c 128,-1,4
 642.5 -93 642.5 -93 626.5 -129 c 1,5,-1
 560.5 -129 l 1,6,7
 570.5 -91 570.5 -91 580 -47.5 c 128,-1,8
 589.5 -4 589.5 -4 598 38.5 c 128,-1,9
 606.5 81 606.5 81 611.5 116 c 1,10,-1
 705.5 116 l 1,0,-1
601.5 387 m 0,11,12
 601.5 425 601.5 425 619.5 440 c 128,-1,13
 637.5 455 637.5 455 662.5 455 c 0,14,15
 688.5 455 688.5 455 707 440 c 128,-1,16
 725.5 425 725.5 425 725.5 387 c 0,17,18
 725.5 351 725.5 351 707 335 c 128,-1,19
 688.5 319 688.5 319 662.5 319 c 0,20,21
 637.5 319 637.5 319 619.5 335 c 128,-1,22
 601.5 351 601.5 351 601.5 387 c 0,11,12
EndSplineSet
EndChar

StartChar: less.telu
Encoding: 60 60 28
Width: 1286
Flags: W
LayerCount: 2
Fore
SplineSet
878.5 90 m 1,0,-1
 407.5 297 l 1,1,-1
 407.5 347 l 1,2,-1
 878.5 582 l 1,3,-1
 878.5 503 l 1,4,-1
 501.5 326 l 1,5,-1
 878.5 167 l 1,6,-1
 878.5 90 l 1,0,-1
EndSplineSet
EndChar

StartChar: equal.telu
Encoding: 61 61 29
Width: 1286
Flags: W
LayerCount: 2
Fore
SplineSet
414 390 m 1,0,-1
 414 460 l 1,1,-1
 872 460 l 1,2,-1
 872 390 l 1,3,-1
 414 390 l 1,0,-1
414 190 m 1,4,-1
 414 262 l 1,5,-1
 872 262 l 1,6,-1
 872 190 l 1,7,-1
 414 190 l 1,4,-1
EndSplineSet
EndChar

StartChar: greater.telu
Encoding: 62 62 30
Width: 1286
Flags: W
LayerCount: 2
Fore
SplineSet
407.5 167 m 1,0,-1
 784.5 325 l 1,1,-1
 407.5 503 l 1,2,-1
 407.5 582 l 1,3,-1
 878.5 347 l 1,4,-1
 878.5 297 l 1,5,-1
 407.5 90 l 1,6,-1
 407.5 167 l 1,0,-1
EndSplineSet
EndChar

StartChar: question.telu
Encoding: 63 63 31
Width: 1286
Flags: W
LayerCount: 2
Fore
SplineSet
633.5 661 m 0,0,1
 724.5 661 724.5 661 777.5 615 c 128,-1,2
 830.5 569 830.5 569 830.5 492 c 0,3,4
 830.5 454 830.5 454 818.5 424 c 128,-1,5
 806.5 394 806.5 394 782.5 367.5 c 128,-1,6
 758.5 341 758.5 341 721.5 311 c 0,7,8
 689.5 286 689.5 286 672.5 266.5 c 128,-1,9
 655.5 247 655.5 247 649 230 c 128,-1,10
 642.5 213 642.5 213 642.5 194 c 2,11,-1
 642.5 186 l 1,12,-1
 574.5 186 l 1,13,-1
 574.5 202 l 2,14,15
 574.5 231 574.5 231 581.5 256 c 128,-1,16
 588.5 281 588.5 281 606.5 304.5 c 128,-1,17
 624.5 328 624.5 328 657.5 354 c 0,18,19
 688.5 379 688.5 379 708.5 400 c 128,-1,20
 728.5 421 728.5 421 738 443.5 c 128,-1,21
 747.5 466 747.5 466 747.5 494 c 0,22,23
 747.5 520 747.5 520 735 540 c 128,-1,24
 722.5 560 722.5 560 697.5 572 c 128,-1,25
 672.5 584 672.5 584 634.5 584 c 0,26,27
 593.5 584 593.5 584 558 572.5 c 128,-1,28
 522.5 561 522.5 561 485.5 542 c 1,29,-1
 455.5 612 l 1,30,31
 494.5 632 494.5 632 540.5 646.5 c 128,-1,32
 586.5 661 586.5 661 633.5 661 c 0,0,1
612.5 -12 m 0,33,34
 587.5 -12 587.5 -12 569 4 c 128,-1,35
 550.5 20 550.5 20 550.5 56 c 0,36,37
 550.5 94 550.5 94 569 109 c 128,-1,38
 587.5 124 587.5 124 612.5 124 c 0,39,40
 638.5 124 638.5 124 656.5 109 c 128,-1,41
 674.5 94 674.5 94 674.5 56 c 0,42,43
 674.5 20 674.5 20 656.5 4 c 128,-1,44
 638.5 -12 638.5 -12 612.5 -12 c 0,33,34
EndSplineSet
EndChar

StartChar: bracketleft.telu
Encoding: 91 91 32
Width: 1286
Flags: W
LayerCount: 2
Fore
SplineSet
755 -361 m 1,0,-1
 531 -361 l 1,1,-1
 531 773 l 1,2,-1
 755 773 l 1,3,-1
 755 701 l 1,4,-1
 617 701 l 1,5,-1
 617 -289 l 1,6,-1
 755 -289 l 1,7,-1
 755 -361 l 1,0,-1
EndSplineSet
EndChar

StartChar: backslash.telu
Encoding: 92 92 33
Width: 1286
Flags: W
LayerCount: 2
Fore
SplineSet
541.5 773 m 1,0,-1
 831.5 -361 l 1,1,-1
 744.5 -361 l 1,2,-1
 454.5 773 l 1,3,-1
 541.5 773 l 1,0,-1
EndSplineSet
EndChar

StartChar: bracketright.telu
Encoding: 93 93 34
Width: 1286
Flags: W
LayerCount: 2
Fore
SplineSet
531 -289 m 1,0,-1
 669 -289 l 1,1,-1
 669 701 l 1,2,-1
 531 701 l 1,3,-1
 531 773 l 1,4,-1
 755 773 l 1,5,-1
 755 -361 l 1,6,-1
 531 -361 l 1,7,-1
 531 -289 l 1,0,-1
EndSplineSet
EndChar

StartChar: asciicircum.telu
Encoding: 94 94 35
Width: 1286
Flags: W
LayerCount: 2
Fore
SplineSet
395 267 m 1,0,-1
 607 719 l 1,1,-1
 657 719 l 1,2,-1
 891 267 l 1,3,-1
 813 267 l 1,4,-1
 633 626 l 1,5,-1
 473 267 l 1,6,-1
 395 267 l 1,0,-1
EndSplineSet
EndChar

StartChar: underscore.telu
Encoding: 95 95 36
Width: 1286
Flags: W
LayerCount: 2
Fore
SplineSet
419 -154 m 1,0,-1
 419 -90 l 1,1,-1
 867 -90 l 1,2,-1
 867 -154 l 1,3,-1
 419 -154 l 1,0,-1
EndSplineSet
EndChar

StartChar: braceleft.telu
Encoding: 123 123 37
Width: 1286
Flags: W
LayerCount: 2
Fore
SplineSet
803 -361 m 1,0,1
 742 -360 742 -360 697.5 -343 c 128,-1,2
 653 -326 653 -326 629 -290.5 c 128,-1,3
 605 -255 605 -255 605 -202 c 2,4,-1
 605 75 l 2,5,6
 605 126 605 126 573.5 147.5 c 128,-1,7
 542 169 542 169 483 169 c 1,8,-1
 483 242 l 1,9,10
 542 244 542 244 573.5 264.5 c 128,-1,11
 605 285 605 285 605 335 c 2,12,-1
 605 615 l 2,13,14
 605 668 605 668 630 703 c 128,-1,15
 655 738 655 738 700 755.5 c 128,-1,16
 745 773 745 773 803 773 c 1,17,-1
 803 701 l 1,18,19
 751 700 751 700 721.5 678 c 128,-1,20
 692 656 692 656 692 607 c 2,21,-1
 692 331 l 2,22,23
 692 280 692 280 665 249.5 c 128,-1,24
 638 219 638 219 583 209 c 1,25,-1
 583 203 l 1,26,27
 639 193 639 193 665.5 162.5 c 128,-1,28
 692 132 692 132 692 81 c 2,29,-1
 692 -196 l 2,30,31
 692 -228 692 -228 705 -248.5 c 128,-1,32
 718 -269 718 -269 743 -278.5 c 128,-1,33
 768 -288 768 -288 803 -289 c 1,34,-1
 803 -361 l 1,0,1
EndSplineSet
EndChar

StartChar: bar.telu
Encoding: 124 124 38
Width: 1286
Flags: W
LayerCount: 2
Fore
SplineSet
602.5 773 m 1,0,-1
 683.5 773 l 1,1,-1
 683.5 -361 l 1,2,-1
 602.5 -361 l 1,3,-1
 602.5 773 l 1,0,-1
EndSplineSet
EndChar

StartChar: braceright.telu
Encoding: 125 125 39
Width: 1286
Flags: W
LayerCount: 2
Fore
SplineSet
483 773 m 1,0,1
 545 773 545 773 589 755.5 c 128,-1,2
 633 738 633 738 657 703 c 128,-1,3
 681 668 681 668 681 614 c 2,4,-1
 681 337 l 2,5,6
 681 287 681 287 712.5 265 c 128,-1,7
 744 243 744 243 803 243 c 1,8,-1
 803 170 l 1,9,10
 744 169 744 169 712.5 148.5 c 128,-1,11
 681 128 681 128 681 77 c 2,12,-1
 681 -203 l 2,13,14
 681 -256 681 -256 656 -291 c 128,-1,15
 631 -326 631 -326 586.5 -343.5 c 128,-1,16
 542 -361 542 -361 483 -361 c 1,17,-1
 483 -289 l 1,18,19
 535 -287 535 -287 564.5 -265.5 c 128,-1,20
 594 -244 594 -244 594 -195 c 2,21,-1
 594 82 l 2,22,23
 594 132 594 132 621 162.5 c 128,-1,24
 648 193 648 193 703 203 c 1,25,-1
 703 209 l 1,26,27
 648 219 648 219 621 249.5 c 128,-1,28
 594 280 594 280 594 332 c 2,29,-1
 594 608 l 2,30,31
 594 641 594 641 581 661 c 128,-1,32
 568 681 568 681 543.5 691 c 128,-1,33
 519 701 519 701 483 701 c 1,34,-1
 483 773 l 1,0,1
EndSplineSet
EndChar

StartChar: asciitilde.telu
Encoding: 126 126 40
Width: 1286
Flags: W
LayerCount: 2
Fore
SplineSet
626.5 292 m 0,0,1
 590.5 308 590.5 308 567 314 c 128,-1,2
 543.5 320 543.5 320 521.5 320 c 0,3,4
 493.5 320 493.5 320 462.5 302.5 c 128,-1,5
 431.5 285 431.5 285 407.5 261 c 1,6,-1
 407.5 339 l 1,7,8
 431.5 365 431.5 365 461.5 378.5 c 128,-1,9
 491.5 392 491.5 392 527.5 392 c 0,10,11
 556.5 392 556.5 392 585 386 c 128,-1,12
 613.5 380 613.5 380 659.5 360 c 0,13,14
 695.5 344 695.5 344 719 338.5 c 128,-1,15
 742.5 333 742.5 333 763.5 333 c 0,16,17
 792.5 333 792.5 333 823.5 350 c 128,-1,18
 854.5 367 854.5 367 878.5 392 c 1,19,-1
 878.5 314 l 1,20,21
 854.5 289 854.5 289 824.5 275 c 128,-1,22
 794.5 261 794.5 261 758.5 261 c 0,23,24
 730.5 261 730.5 261 701 267 c 128,-1,25
 671.5 273 671.5 273 626.5 292 c 0,0,1
EndSplineSet
EndChar

StartChar: A
Encoding: 65 65 41
Width: 1286
Flags: W
AnchorPoint: "Anchor-0" 642.5 -24 basechar 0
LayerCount: 2
Fore
SplineSet
632.5 -12 m 0,0,1
 542.5 -12 542.5 -12 476 9.5 c 128,-1,2
 409.5 31 409.5 31 365.5 70 c 128,-1,3
 321.5 109 321.5 109 300 161 c 128,-1,4
 278.5 213 278.5 213 278.5 273 c 0,5,6
 278.5 345 278.5 345 303.5 396 c 128,-1,7
 328.5 447 328.5 447 371 473.5 c 128,-1,8
 413.5 500 413.5 500 467.5 500 c 0,9,10
 507.5 500 507.5 500 537 484.5 c 128,-1,11
 566.5 469 566.5 469 583 440.5 c 128,-1,12
 599.5 412 599.5 412 599.5 373 c 0,13,14
 599.5 333 599.5 333 582.5 301.5 c 128,-1,15
 565.5 270 565.5 270 531.5 252.5 c 128,-1,16
 497.5 235 497.5 235 444.5 235 c 0,17,18
 394.5 235 394.5 235 357.5 258 c 128,-1,19
 320.5 281 320.5 281 300.5 304 c 1,20,-1
 324.5 366 l 1,21,22
 332.5 355 332.5 355 347 340.5 c 128,-1,23
 361.5 326 361.5 326 384.5 315.5 c 128,-1,24
 407.5 305 407.5 305 439.5 305 c 0,25,26
 479.5 305 479.5 305 500 322 c 128,-1,27
 520.5 339 520.5 339 520.5 369 c 0,28,29
 520.5 398 520.5 398 504.5 413.5 c 128,-1,30
 488.5 429 488.5 429 462.5 429 c 0,31,32
 415.5 429 415.5 429 386.5 390 c 128,-1,33
 357.5 351 357.5 351 357.5 280 c 2,34,-1
 357.5 271 l 2,35,36
 357.5 220 357.5 220 385 173 c 128,-1,37
 412.5 126 412.5 126 473 96.5 c 128,-1,38
 533.5 67 533.5 67 632.5 67 c 0,39,40
 780.5 67 780.5 67 852.5 119.5 c 128,-1,41
 924.5 172 924.5 172 924.5 285 c 0,42,43
 924.5 322 924.5 322 913.5 353.5 c 128,-1,44
 902.5 385 902.5 385 880 405 c 128,-1,45
 857.5 425 857.5 425 822.5 425 c 0,46,47
 799.5 425 799.5 425 780 409.5 c 128,-1,48
 760.5 394 760.5 394 760.5 360 c 0,49,50
 760.5 321 760.5 321 786.5 295.5 c 128,-1,51
 812.5 270 812.5 270 854.5 256 c 1,52,-1
 854.5 184 l 1,53,-1
 625.5 184 l 5,54,-1
 625.5 258 l 5,55,-1
 764.5 258 l 1,56,-1
 755.5 251 l 1,57,58
 720.5 268 720.5 268 701 300 c 128,-1,59
 681.5 332 681.5 332 681.5 374 c 0,60,61
 681.5 404 681.5 404 696.5 433 c 128,-1,62
 711.5 462 711.5 462 744 481 c 128,-1,63
 776.5 500 776.5 500 826.5 500 c 0,64,65
 878.5 500 878.5 500 919 472 c 128,-1,66
 959.5 444 959.5 444 983.5 395.5 c 128,-1,67
 1007.5 347 1007.5 347 1007.5 284 c 0,68,69
 1007.5 209 1007.5 209 982 153 c 128,-1,70
 956.5 97 956.5 97 908 60.5 c 128,-1,71
 859.5 24 859.5 24 790 6 c 128,-1,72
 720.5 -12 720.5 -12 632.5 -12 c 0,0,1
EndSplineSet
EndChar

StartChar: B
Encoding: 66 66 42
Width: 1286
Flags: W
LayerCount: 2
Fore
SplineSet
829.5 617 m 0,0,1
 829.5 583 829.5 583 815.5 557.5 c 128,-1,2
 801.5 532 801.5 532 780.5 512.5 c 128,-1,3
 759.5 493 759.5 493 738.5 477 c 128,-1,4
 717.5 461 717.5 461 703.5 445.5 c 128,-1,5
 689.5 430 689.5 430 689.5 412 c 0,6,7
 689.5 399 689.5 399 696 388 c 128,-1,8
 702.5 377 702.5 377 721.5 362.5 c 128,-1,9
 740.5 348 740.5 348 777.5 323 c 0,10,11
 813.5 299 813.5 299 839.5 275 c 128,-1,12
 865.5 251 865.5 251 879.5 222 c 128,-1,13
 893.5 193 893.5 193 893.5 153 c 0,14,15
 893.5 96 893.5 96 870 60 c 128,-1,16
 846.5 24 846.5 24 804.5 7 c 128,-1,17
 762.5 -10 762.5 -10 707.5 -10 c 0,18,19
 660.5 -10 660.5 -10 624.5 -1 c 128,-1,20
 588.5 8 588.5 8 562.5 24 c 1,21,-1
 562.5 103 l 1,22,23
 579.5 93 579.5 93 602.5 83 c 128,-1,24
 625.5 73 625.5 73 652 67 c 128,-1,25
 678.5 61 678.5 61 704.5 61 c 0,26,27
 759.5 61 759.5 61 783.5 84 c 128,-1,28
 807.5 107 807.5 107 807.5 147 c 0,29,30
 807.5 171 807.5 171 799 189.5 c 128,-1,31
 790.5 208 790.5 208 770 226 c 128,-1,32
 749.5 244 749.5 244 713.5 267 c 0,33,34
 671.5 294 671.5 294 648 315.5 c 128,-1,35
 624.5 337 624.5 337 614.5 359 c 128,-1,36
 604.5 381 604.5 381 604.5 407 c 0,37,38
 604.5 438 604.5 438 618 460 c 128,-1,39
 631.5 482 631.5 482 652 498.5 c 128,-1,40
 672.5 515 672.5 515 693 531 c 128,-1,41
 713.5 547 713.5 547 727 566 c 128,-1,42
 740.5 585 740.5 585 740.5 612 c 0,43,44
 740.5 654 740.5 654 705 673 c 128,-1,45
 669.5 692 669.5 692 613.5 692 c 0,46,47
 578.5 692 578.5 692 548 682.5 c 128,-1,48
 517.5 673 517.5 673 499 650 c 128,-1,49
 480.5 627 480.5 627 480.5 584 c 2,50,-1
 480.5 0 l 1,51,-1
 392.5 0 l 1,52,-1
 392.5 584 l 2,53,54
 392.5 651 392.5 651 421.5 690.5 c 128,-1,55
 450.5 730 450.5 730 500.5 747.5 c 128,-1,56
 550.5 765 550.5 765 613.5 765 c 0,57,58
 678.5 765 678.5 765 727 748.5 c 128,-1,59
 775.5 732 775.5 732 802.5 699.5 c 128,-1,60
 829.5 667 829.5 667 829.5 617 c 0,0,1
EndSplineSet
EndChar

StartChar: C
Encoding: 67 67 43
Width: 1286
Flags: W
LayerCount: 2
Fore
SplineSet
683 737 m 4,0,1
 703 737 703 737 718.5 723.5 c 132,-1,2
 734 710 734 710 734 681 c 4,3,4
 734 653 734 653 718.5 639 c 132,-1,5
 703 625 703 625 683 625 c 4,6,7
 661 625 661 625 646 639 c 132,-1,8
 631 653 631 653 631 681 c 4,9,10
 631 710 631 710 646 723.5 c 132,-1,11
 661 737 661 737 683 737 c 4,0,1
699 -10 m 0,12,13
 581 -10 581 -10 516 57 c 128,-1,14
 451 124 451 124 451 245 c 0,15,16
 451 325 451 325 480 380.5 c 128,-1,17
 509 436 509 436 563 465 c 1,18,-1
 430 465 l 1,19,-1
 430 537 l 1,20,-1
 856 537 l 1,21,-1
 856 465 l 1,22,-1
 743 465 l 2,23,24
 649 465 649 465 595.5 411.5 c 128,-1,25
 542 358 542 358 542 252 c 0,26,27
 542 165 542 165 585 114.5 c 128,-1,28
 628 64 628 64 708 64 c 0,29,30
 745 64 745 64 779 73.5 c 128,-1,31
 813 83 813 83 845 99 c 1,32,-1
 845 21 l 1,33,34
 816 5 816 5 781 -2.5 c 128,-1,35
 746 -10 746 -10 699 -10 c 0,12,13
EndSplineSet
EndChar

StartChar: D
Encoding: 68 68 44
Width: 1286
Flags: W
AnchorPoint: "Anchor-1" 996 -24 basechar 0
AnchorPoint: "Anchor-0" 643 -24 basechar 0
LayerCount: 2
Fore
SplineSet
613 425 m 0,0,1
 584 425 584 425 557.5 436 c 128,-1,2
 531 447 531 447 509 477.5 c 128,-1,3
 487 508 487 508 471 564 c 1,4,-1
 554 591 l 1,5,6
 569 536 569 536 583 518 c 128,-1,7
 597 500 597 500 619 500 c 0,8,9
 639 500 639 500 656.5 512.5 c 128,-1,10
 674 525 674 525 706 565 c 2,11,-1
 737 605 l 2,12,13
 771 649 771 649 799.5 675 c 128,-1,14
 828 701 828 701 860 713 c 128,-1,15
 892 725 892 725 936 725 c 1,16,-1
 942 648 l 1,17,18
 907 646 907 646 883.5 637 c 128,-1,19
 860 628 860 628 840.5 608.5 c 128,-1,20
 821 589 821 589 795 556 c 2,21,-1
 772 526 l 2,22,23
 744 490 744 490 719 468 c 128,-1,24
 694 446 694 446 668.5 435.5 c 128,-1,25
 643 425 643 425 613 425 c 0,0,1
794 -12 m 0,26,27
 757 -12 757 -12 728 -2 c 128,-1,28
 699 8 699 8 676.5 30.5 c 128,-1,29
 654 53 654 53 633 90 c 1,30,-1
 652 92 l 1,31,32
 631 49 631 49 605 26.5 c 128,-1,33
 579 4 579 4 550 -4 c 128,-1,34
 521 -12 521 -12 488 -12 c 0,35,36
 415 -12 415 -12 370 44 c 128,-1,37
 325 100 325 100 325 200 c 0,38,39
 325 289 325 289 364 356.5 c 128,-1,40
 403 424 403 424 475 462 c 128,-1,41
 547 500 547 500 647 500 c 256,42,43
 747 500 747 500 817 461.5 c 128,-1,44
 887 423 887 423 924 355.5 c 128,-1,45
 961 288 961 288 961 200 c 0,46,47
 961 132 961 132 940.5 84.5 c 128,-1,48
 920 37 920 37 882.5 12.5 c 128,-1,49
 845 -12 845 -12 794 -12 c 0,26,27
786 67 m 0,50,51
 828 67 828 67 853 98 c 128,-1,52
 878 129 878 129 878 202 c 0,53,54
 878 267 878 267 853.5 317 c 128,-1,55
 829 367 829 367 779.5 396 c 128,-1,56
 730 425 730 425 654 425 c 2,57,-1
 639 425 l 2,58,59
 564 425 564 425 512.5 397.5 c 128,-1,60
 461 370 461 370 434.5 320.5 c 128,-1,61
 408 271 408 271 408 205 c 0,62,63
 408 130 408 130 432.5 98.5 c 128,-1,64
 457 67 457 67 500 67 c 0,65,66
 545 67 545 67 572.5 99.5 c 128,-1,67
 600 132 600 132 604 185 c 1,68,-1
 682 185 l 1,69,70
 686 124 686 124 717.5 95.5 c 128,-1,71
 749 67 749 67 786 67 c 0,50,51
EndSplineSet
EndChar

StartChar: E
Encoding: 69 69 45
Width: 1286
Flags: W
LayerCount: 2
Fore
SplineSet
842.5 0 m 1,0,-1
 443.5 0 l 1,1,-1
 443.5 714 l 1,2,-1
 842.5 714 l 1,3,-1
 842.5 635 l 1,4,-1
 533.5 635 l 1,5,-1
 533.5 412 l 1,6,-1
 824.5 412 l 1,7,-1
 824.5 334 l 1,8,-1
 533.5 334 l 1,9,-1
 533.5 79 l 1,10,-1
 842.5 79 l 1,11,-1
 842.5 0 l 1,0,-1
EndSplineSet
EndChar

StartChar: F
Encoding: 70 70 46
Width: 1286
Flags: W
LayerCount: 2
Fore
SplineSet
533.5 0 m 1,0,-1
 443.5 0 l 1,1,-1
 443.5 714 l 1,2,-1
 842.5 714 l 1,3,-1
 842.5 635 l 1,4,-1
 533.5 635 l 1,5,-1
 533.5 382 l 1,6,-1
 823.5 382 l 1,7,-1
 823.5 303 l 1,8,-1
 533.5 303 l 1,9,-1
 533.5 0 l 1,0,-1
EndSplineSet
EndChar

StartChar: G
Encoding: 71 71 47
Width: 1286
Flags: W
LayerCount: 2
Fore
SplineSet
625.5 546 m 0,0,1
 678.5 546 678.5 546 721 526 c 128,-1,2
 763.5 506 763.5 506 793.5 465 c 1,3,-1
 798.5 465 l 1,4,-1
 810.5 536 l 1,5,-1
 880.5 536 l 1,6,-1
 880.5 -9 l 2,7,8
 880.5 -85 880.5 -85 854.5 -136.5 c 128,-1,9
 828.5 -188 828.5 -188 775.5 -214 c 128,-1,10
 722.5 -240 722.5 -240 640.5 -240 c 0,11,12
 582.5 -240 582.5 -240 534 -231.5 c 128,-1,13
 485.5 -223 485.5 -223 447.5 -206 c 1,14,-1
 447.5 -125 l 1,15,16
 485.5 -145 485.5 -145 536.5 -156 c 128,-1,17
 587.5 -167 587.5 -167 645.5 -167 c 0,18,19
 714.5 -167 714.5 -167 754 -126.5 c 128,-1,20
 793.5 -86 793.5 -86 793.5 -16 c 2,21,-1
 793.5 5 l 2,22,23
 793.5 17 793.5 17 794.5 39.5 c 128,-1,24
 795.5 62 795.5 62 796.5 71 c 1,25,-1
 792.5 71 l 1,26,27
 764.5 30 764.5 30 723 10 c 128,-1,28
 681.5 -10 681.5 -10 626.5 -10 c 0,29,30
 522.5 -10 522.5 -10 464 63 c 128,-1,31
 405.5 136 405.5 136 405.5 267 c 0,32,33
 405.5 395 405.5 395 464 470.5 c 128,-1,34
 522.5 546 522.5 546 625.5 546 c 0,0,1
637.5 472 m 0,35,36
 592.5 472 592.5 472 561 448 c 128,-1,37
 529.5 424 529.5 424 513 378 c 128,-1,38
 496.5 332 496.5 332 496.5 266 c 0,39,40
 496.5 167 496.5 167 533 114.5 c 128,-1,41
 569.5 62 569.5 62 639.5 62 c 0,42,43
 680.5 62 680.5 62 709.5 72.5 c 128,-1,44
 738.5 83 738.5 83 757.5 105.5 c 128,-1,45
 776.5 128 776.5 128 785.5 163 c 128,-1,46
 794.5 198 794.5 198 794.5 246 c 2,47,-1
 794.5 267 l 2,48,49
 794.5 340 794.5 340 778 385 c 128,-1,50
 761.5 430 761.5 430 726.5 451 c 128,-1,51
 691.5 472 691.5 472 637.5 472 c 0,35,36
648.5 737 m 0,52,53
 668.5 737 668.5 737 684 723.5 c 128,-1,54
 699.5 710 699.5 710 699.5 681 c 0,55,56
 699.5 653 699.5 653 684 639 c 128,-1,57
 668.5 625 668.5 625 648.5 625 c 0,58,59
 626.5 625 626.5 625 611.5 639 c 128,-1,60
 596.5 653 596.5 653 596.5 681 c 0,61,62
 596.5 710 596.5 710 611.5 723.5 c 128,-1,63
 626.5 737 626.5 737 648.5 737 c 0,52,53
EndSplineSet
EndChar

StartChar: H
Encoding: 72 72 48
Width: 1286
Flags: W
AnchorPoint: "Anchor-1" 1163 -24 basechar 0
AnchorPoint: "Anchor-0" 627 -24 basechar 0
LayerCount: 2
Fore
SplineSet
327 425 m 0,0,1
 298 425 298 425 271.5 436 c 128,-1,2
 245 447 245 447 223 477.5 c 128,-1,3
 201 508 201 508 185 564 c 1,4,-1
 268 591 l 1,5,6
 283 536 283 536 297 518 c 128,-1,7
 311 500 311 500 333 500 c 0,8,9
 353 500 353 500 370.5 512.5 c 128,-1,10
 388 525 388 525 420 565 c 2,11,-1
 451 605 l 2,12,13
 485 649 485 649 513.5 675 c 128,-1,14
 542 701 542 701 574 713 c 128,-1,15
 606 725 606 725 650 725 c 1,16,-1
 656 648 l 1,17,18
 621 646 621 646 597.5 637 c 128,-1,19
 574 628 574 628 554.5 608.5 c 128,-1,20
 535 589 535 589 509 556 c 2,21,-1
 486 526 l 2,22,23
 458 490 458 490 433 468 c 128,-1,24
 408 446 408 446 382.5 435.5 c 128,-1,25
 357 425 357 425 327 425 c 0,0,1
615 -12 m 0,26,27
 567 -12 567 -12 531.5 6 c 128,-1,28
 496 24 496 24 466 56 c 128,-1,29
 436 88 436 88 403 131 c 0,30,31
 374 171 374 171 353 189 c 128,-1,32
 332 207 332 207 302 207 c 0,33,34
 274 207 274 207 255.5 189 c 128,-1,35
 237 171 237 171 237 136 c 0,36,37
 237 105 237 105 256.5 84 c 128,-1,38
 276 63 276 63 310 63 c 256,39,40
 344 63 344 63 366.5 83 c 128,-1,41
 389 103 389 103 405 141 c 1,42,-1
 458 81 l 1,43,44
 439 54 439 54 418 33 c 128,-1,45
 397 12 397 12 370.5 0 c 128,-1,46
 344 -12 344 -12 305 -12 c 0,47,48
 252 -12 252 -12 220 10 c 128,-1,49
 188 32 188 32 173.5 66.5 c 128,-1,50
 159 101 159 101 159 138 c 0,51,52
 159 182 159 182 178 214 c 128,-1,53
 197 246 197 246 229 264 c 128,-1,54
 261 282 261 282 300 282 c 0,55,56
 336 282 336 282 364 269.5 c 128,-1,57
 392 257 392 257 419 230.5 c 128,-1,58
 446 204 446 204 478 161 c 0,59,60
 505 126 505 126 526 105 c 128,-1,61
 547 84 547 84 569 75.5 c 128,-1,62
 591 67 591 67 620 67 c 0,63,64
 670 67 670 67 696.5 99 c 128,-1,65
 723 131 723 131 723 189 c 0,66,67
 723 244 723 244 699.5 288 c 128,-1,68
 676 332 676 332 636 366.5 c 128,-1,69
 596 401 596 401 548 425 c 1,70,-1
 584 500 l 1,71,72
 594 496 594 496 609 487.5 c 128,-1,73
 624 479 624 479 633 471 c 2,74,-1
 653 446 l 1,75,76
 696 421 696 421 730.5 383 c 128,-1,77
 765 345 765 345 785.5 297 c 128,-1,78
 806 249 806 249 806 193 c 0,79,80
 806 130 806 130 784 84 c 128,-1,81
 762 38 762 38 719.5 13 c 128,-1,82
 677 -12 677 -12 615 -12 c 0,26,27
986 220 m 4,83,84
 949 220 949 220 922.5 231 c 132,-1,85
 896 242 896 242 880 260.5 c 132,-1,86
 864 279 864 279 856.5 301 c 132,-1,87
 849 323 849 323 849 344 c 4,88,89
 849 376 849 376 858.5 399 c 132,-1,90
 868 422 868 422 882 443 c 5,91,-1
 970 450 l 5,92,93
 945 425 945 425 933.5 401.5 c 132,-1,94
 922 378 922 378 922 353 c 4,95,96
 922 323 922 323 939.5 304.5 c 132,-1,97
 957 286 957 286 990 286 c 4,98,99
 1025 286 1025 286 1039.5 304.5 c 132,-1,100
 1054 323 1054 323 1054 350 c 4,101,102
 1054 392 1054 392 1028.5 408.5 c 132,-1,103
 1003 425 1003 425 957 425 c 6,104,-1
 574 425 l 1,105,-1
 584 500 l 1,106,-1
 915 500 l 6,107,108
 958 500 958 500 988 496.5 c 132,-1,109
 1018 493 1018 493 1040 485 c 132,-1,110
 1062 477 1062 477 1080 462 c 4,111,112
 1101 446 1101 446 1114 418.5 c 132,-1,113
 1127 391 1127 391 1127 353 c 4,114,115
 1127 290 1127 290 1089 255 c 132,-1,116
 1051 220 1051 220 986 220 c 4,83,84
EndSplineSet
EndChar

StartChar: I
Encoding: 73 73 49
Width: 1286
Flags: W
LayerCount: 2
Fore
SplineSet
743.5 756 m 1,0,1
 734.5 742 734.5 742 717.5 722 c 0,2,3
 700.5 702 700.5 702 680 680.5 c 0,4,5
 659.5 659 659.5 659 639 639.5 c 0,6,7
 618.5 620 618.5 620 600.5 606 c 1,8,-1
 542.5 606 l 1,9,-1
 542.5 618 l 1,10,11
 557.5 637 557.5 637 575 663 c 0,12,13
 592.5 689 592.5 689 609.5 716.5 c 0,14,15
 626.5 744 626.5 744 637.5 766 c 1,16,-1
 743.5 766 l 1,17,-1
 743.5 756 l 1,0,1
639.5 0 m 5,18,-1
 551.5 0 l 5,19,-1
 551.5 536 l 5,20,-1
 639.5 536 l 5,21,-1
 639.5 0 l 5,18,-1
EndSplineSet
EndChar

StartChar: J
Encoding: 74 74 50
Width: 1286
Flags: W
LayerCount: 2
Fore
SplineSet
592.5 -8 m 4,0,1
 537.5 -8 537.5 -8 493.5 4 c 132,-1,2
 449.5 16 449.5 16 415.5 33 c 5,3,-1
 446.5 103 l 5,4,5
 476.5 89 476.5 89 513 77 c 132,-1,6
 549.5 65 549.5 65 590.5 65 c 4,7,8
 647.5 65 647.5 65 677.5 94.5 c 132,-1,9
 707.5 124 707.5 124 707.5 190 c 6,10,-1
 707.5 329 l 5,11,-1
 503.5 329 l 5,12,-1
 503.5 395 l 5,13,-1
 707.5 395 l 5,14,-1
 707.5 499 l 6,15,16
 707.5 539 707.5 539 717 565.5 c 132,-1,17
 726.5 592 726.5 592 742 608 c 132,-1,18
 757.5 624 757.5 624 775.5 635 c 5,19,-1
 391.5 635 l 5,20,-1
 391.5 715 l 5,21,-1
 894.5 715 l 5,22,-1
 894.5 641 l 5,23,24
 865.5 634 865.5 634 843.5 617.5 c 132,-1,25
 821.5 601 821.5 601 808.5 572.5 c 132,-1,26
 795.5 544 795.5 544 795.5 500 c 6,27,-1
 795.5 395 l 5,28,-1
 891.5 395 l 5,29,-1
 891.5 329 l 5,30,-1
 795.5 329 l 5,31,-1
 795.5 181 l 6,32,33
 795.5 121 795.5 121 770.5 79 c 132,-1,34
 745.5 37 745.5 37 699.5 14.5 c 132,-1,35
 653.5 -8 653.5 -8 592.5 -8 c 4,0,1
EndSplineSet
EndChar

StartChar: K
Encoding: 75 75 51
Width: 1286
Flags: W
LayerCount: 2
Fore
SplineSet
623 737 m 4,0,1
 643 737 643 737 658.5 723.5 c 132,-1,2
 674 710 674 710 674 681 c 4,3,4
 674 653 674 653 658.5 639 c 132,-1,5
 643 625 643 625 623 625 c 4,6,7
 601 625 601 625 586 639 c 132,-1,8
 571 653 571 653 571 681 c 4,9,10
 571 710 571 710 586 723.5 c 132,-1,11
 601 737 601 737 623 737 c 4,0,1
510 363 m 2,12,13
 510 347 510 347 508.5 321 c 128,-1,14
 507 295 507 295 506 276 c 1,15,-1
 510 276 l 1,16,17
 516 284 516 284 528 299 c 128,-1,18
 540 314 540 314 552.5 329.5 c 128,-1,19
 565 345 565 345 574 355 c 2,20,-1
 745 536 l 1,21,-1
 848 536 l 1,22,-1
 631 307 l 1,23,-1
 863 0 l 1,24,-1
 757 0 l 1,25,-1
 571 250 l 1,26,-1
 510 197 l 1,27,-1
 510 0 l 1,28,-1
 423 0 l 1,29,-1
 423 536 l 1,30,-1
 510 536 l 1,31,-1
 510 363 l 2,12,13
EndSplineSet
EndChar

StartChar: L
Encoding: 76 76 52
Width: 1286
Flags: W
LayerCount: 2
Fore
SplineSet
693.5 723 m 0,0,1
 748.5 723 748.5 723 792.5 711 c 128,-1,2
 836.5 699 836.5 699 870.5 682 c 1,3,-1
 839.5 612 l 1,4,5
 809.5 626 809.5 626 773 638 c 128,-1,6
 736.5 650 736.5 650 695.5 650 c 0,7,8
 638.5 650 638.5 650 608.5 620.5 c 128,-1,9
 578.5 591 578.5 591 578.5 525 c 2,10,-1
 578.5 386 l 1,11,-1
 782.5 386 l 1,12,-1
 782.5 320 l 1,13,-1
 578.5 320 l 1,14,-1
 578.5 216 l 2,15,16
 578.5 176 578.5 176 569 149.5 c 128,-1,17
 559.5 123 559.5 123 544 107 c 128,-1,18
 528.5 91 528.5 91 510.5 80 c 1,19,-1
 894.5 80 l 1,20,-1
 894.5 0 l 1,21,-1
 391.5 0 l 1,22,-1
 391.5 74 l 1,23,24
 420.5 81 420.5 81 442.5 97.5 c 128,-1,25
 464.5 114 464.5 114 477.5 142.5 c 128,-1,26
 490.5 171 490.5 171 490.5 215 c 2,27,-1
 490.5 320 l 1,28,-1
 394.5 320 l 1,29,-1
 394.5 386 l 1,30,-1
 490.5 386 l 1,31,-1
 490.5 534 l 2,32,33
 490.5 594 490.5 594 515.5 636 c 128,-1,34
 540.5 678 540.5 678 586.5 700.5 c 128,-1,35
 632.5 723 632.5 723 693.5 723 c 0,0,1
EndSplineSet
EndChar

StartChar: M
Encoding: 77 77 53
Width: 1286
Flags: W
LayerCount: 2
Fore
SplineSet
846.5 546 m 0,0,1
 937.5 546 937.5 546 982.5 499.5 c 128,-1,2
 1027.5 453 1027.5 453 1027.5 349 c 2,3,-1
 1027.5 0 l 1,4,-1
 940.5 0 l 1,5,-1
 940.5 345 l 2,6,7
 940.5 408 940.5 408 914 440 c 128,-1,8
 887.5 472 887.5 472 831.5 472 c 0,9,10
 753.5 472 753.5 472 720 427 c 128,-1,11
 686.5 382 686.5 382 686.5 296 c 2,12,-1
 686.5 0 l 1,13,-1
 599.5 0 l 1,14,-1
 599.5 345 l 2,15,16
 599.5 387 599.5 387 587.5 415.5 c 128,-1,17
 575.5 444 575.5 444 551.5 458 c 128,-1,18
 527.5 472 527.5 472 489.5 472 c 0,19,20
 435.5 472 435.5 472 404.5 449.5 c 128,-1,21
 373.5 427 373.5 427 360 384 c 128,-1,22
 346.5 341 346.5 341 346.5 278 c 2,23,-1
 346.5 0 l 1,24,-1
 258.5 0 l 1,25,-1
 258.5 536 l 1,26,-1
 329.5 536 l 1,27,-1
 342.5 463 l 1,28,-1
 347.5 463 l 1,29,30
 364.5 491 364.5 491 389 509.5 c 128,-1,31
 413.5 528 413.5 528 443.5 537 c 128,-1,32
 473.5 546 473.5 546 505.5 546 c 0,33,34
 567.5 546 567.5 546 609 524 c 128,-1,35
 650.5 502 650.5 502 669.5 456 c 1,36,-1
 674.5 456 l 1,37,38
 701.5 502 701.5 502 748 524 c 128,-1,39
 794.5 546 794.5 546 846.5 546 c 0,0,1
653.5 737 m 0,40,41
 673.5 737 673.5 737 689 723.5 c 128,-1,42
 704.5 710 704.5 710 704.5 681 c 0,43,44
 704.5 653 704.5 653 689 639 c 128,-1,45
 673.5 625 673.5 625 653.5 625 c 0,46,47
 631.5 625 631.5 625 616.5 639 c 128,-1,48
 601.5 653 601.5 653 601.5 681 c 0,49,50
 601.5 710 601.5 710 616.5 723.5 c 128,-1,51
 631.5 737 631.5 737 653.5 737 c 0,40,41
EndSplineSet
EndChar

StartChar: N
Encoding: 78 78 54
Width: 1286
Flags: W
LayerCount: 2
Fore
SplineSet
617 737 m 4,0,1
 637 737 637 737 652.5 723.5 c 132,-1,2
 668 710 668 710 668 681 c 4,3,4
 668 653 668 653 652.5 639 c 132,-1,5
 637 625 637 625 617 625 c 4,6,7
 595 625 595 625 580 639 c 132,-1,8
 565 653 565 653 565 681 c 4,9,10
 565 710 565 710 580 723.5 c 132,-1,11
 595 737 595 737 617 737 c 4,0,1
675 546 m 0,12,13
 771 546 771 546 820 499.5 c 128,-1,14
 869 453 869 453 869 349 c 2,15,-1
 869 0 l 1,16,-1
 782 0 l 1,17,-1
 782 343 l 2,18,19
 782 408 782 408 753 440 c 128,-1,20
 724 472 724 472 662 472 c 0,21,22
 573 472 573 472 539 422 c 128,-1,23
 505 372 505 372 505 278 c 2,24,-1
 505 0 l 1,25,-1
 417 0 l 1,26,-1
 417 536 l 1,27,-1
 488 536 l 1,28,-1
 501 463 l 1,29,-1
 506 463 l 1,30,31
 524 491 524 491 550.5 509.5 c 128,-1,32
 577 528 577 528 609 537 c 128,-1,33
 641 546 641 546 675 546 c 0,12,13
EndSplineSet
EndChar

StartChar: O
Encoding: 79 79 55
Width: 1286
Flags: W
LayerCount: 2
Fore
SplineSet
891 269 m 256,0,1
 891 180 891 180 860.5 117.5 c 128,-1,2
 830 55 830 55 774 22.5 c 128,-1,3
 718 -10 718 -10 641 -10 c 0,4,5
 570 -10 570 -10 514.5 22.5 c 128,-1,6
 459 55 459 55 427 117.5 c 128,-1,7
 395 180 395 180 395 269 c 0,8,9
 395 402 395 402 462 474 c 128,-1,10
 529 546 529 546 644 546 c 0,11,12
 717 546 717 546 772.5 513.5 c 128,-1,13
 828 481 828 481 859.5 419.5 c 128,-1,14
 891 358 891 358 891 269 c 256,0,1
643 63 m 256,15,16
 694 63 694 63 727.5 83 c 128,-1,17
 761 103 761 103 778.5 142.5 c 128,-1,18
 796 182 796 182 799 239 c 1,19,-1
 486 239 l 1,20,21
 489 182 489 182 507 142.5 c 128,-1,22
 525 103 525 103 558.5 83 c 128,-1,23
 592 63 592 63 643 63 c 256,15,16
642 472 m 0,24,25
 568 472 568 472 531 431.5 c 128,-1,26
 494 391 494 391 487 312 c 1,27,-1
 799 312 l 1,28,29
 794 365 794 365 775.5 400.5 c 128,-1,30
 757 436 757 436 724 454 c 128,-1,31
 691 472 691 472 642 472 c 0,24,25
EndSplineSet
EndChar

StartChar: P
Encoding: 80 80 56
Width: 1286
Flags: W
LayerCount: 2
Fore
SplineSet
524 744 m 4,0,1
 544 744 544 744 559.5 730.5 c 132,-1,2
 575 717 575 717 575 688 c 4,3,4
 575 660 575 660 559.5 646 c 132,-1,5
 544 632 544 632 524 632 c 4,6,7
 502 632 502 632 487 646 c 132,-1,8
 472 660 472 660 472 688 c 4,9,10
 472 717 472 717 487 730.5 c 132,-1,11
 502 744 502 744 524 744 c 4,0,1
662 546 m 0,12,13
 722 546 722 546 769 521 c 128,-1,14
 816 496 816 496 843 446.5 c 128,-1,15
 870 397 870 397 870 323 c 0,16,17
 870 252 870 252 843 193 c 128,-1,18
 816 134 816 134 767 90.5 c 128,-1,19
 718 47 718 47 651 21 c 128,-1,20
 584 -5 584 -5 504 -10 c 1,21,-1
 504 -240 l 1,22,-1
 416 -240 l 1,23,-1
 416 536 l 1,24,-1
 488 536 l 1,25,-1
 500 463 l 1,26,-1
 504 463 l 1,27,28
 519 486 519 486 540 505 c 128,-1,29
 561 524 561 524 591 535 c 128,-1,30
 621 546 621 546 662 546 c 0,12,13
644 472 m 0,31,32
 594 472 594 472 563 451.5 c 128,-1,33
 532 431 532 431 518 390 c 128,-1,34
 504 349 504 349 504 286 c 2,35,-1
 504 62 l 1,36,37
 569 70 569 70 619.5 91.5 c 128,-1,38
 670 113 670 113 706 146.5 c 128,-1,39
 742 180 742 180 760.5 224 c 128,-1,40
 779 268 779 268 779 321 c 0,41,42
 779 367 779 367 763 400.5 c 128,-1,43
 747 434 747 434 717 453 c 128,-1,44
 687 472 687 472 644 472 c 0,31,32
EndSplineSet
EndChar

StartChar: Q
Encoding: 81 81 57
Width: 1286
Flags: W
LayerCount: 2
Fore
SplineSet
894 -5 m 1,0,1
 874 -5 874 -5 855 2 c 128,-1,2
 836 9 836 9 822 26 c 1,3,-1
 822 291 l 5,4,5
 794 266 794 266 757 250.5 c 132,-1,6
 720 235 720 235 670 235 c 4,7,8
 628 235 628 235 579 258 c 132,-1,9
 530 281 530 281 488 318 c 132,-1,10
 446 355 446 355 418 401 c 132,-1,11
 390 447 390 447 390 493 c 4,12,13
 390 541 390 541 407.5 578 c 132,-1,14
 425 615 425 615 455 640.5 c 132,-1,15
 485 666 485 666 525.5 679 c 132,-1,16
 566 692 566 692 612 692 c 4,17,18
 646 692 646 692 676 684 c 4,19,20
 725 671 725 671 732 662.5 c 4,21,22
 767 622 767 622 780.5 631.5 c 4,23,24
 784 634 784 634 822 718 c 5,25,-1
 820 717 l 5,26,-1
 896 717 l 6,27,-1
 894 -5 l 1,0,1
613 292 m 4,28,29
 651 292 651 292 687 304.5 c 132,-1,30
 723 317 723 317 753 340 c 5,31,-1
 520 580 l 5,32,33
 493 556 493 556 478 521.5 c 132,-1,34
 463 487 463 487 463 442 c 4,35,36
 463 406 463 406 474.5 378 c 132,-1,37
 486 350 486 350 506 331 c 132,-1,38
 526 312 526 312 553.5 302 c 132,-1,39
 581 292 581 292 613 292 c 4,28,29
822 571 m 5,40,41
 787 598 787 598 749.5 613.5 c 132,-1,42
 712 629 712 629 663 629 c 4,43,44
 591 629 591 629 540 596 c 5,45,-1
 771 356 l 5,46,47
 787 371 787 371 800 389 c 132,-1,48
 813 407 813 407 822 427 c 5,49,-1
 822 571 l 5,40,41
EndSplineSet
EndChar

StartChar: R
Encoding: 82 82 58
Width: 1286
Flags: W
LayerCount: 2
Fore
SplineSet
660.5 744 m 4,0,1
 680.5 744 680.5 744 696 730.5 c 132,-1,2
 711.5 717 711.5 717 711.5 688 c 4,3,4
 711.5 660 711.5 660 696 646 c 132,-1,5
 680.5 632 680.5 632 660.5 632 c 4,6,7
 638.5 632 638.5 632 623.5 646 c 132,-1,8
 608.5 660 608.5 660 608.5 688 c 4,9,10
 608.5 717 608.5 717 623.5 730.5 c 132,-1,11
 638.5 744 638.5 744 660.5 744 c 4,0,1
736.5 546 m 0,12,13
 751.5 546 751.5 546 769 544.5 c 128,-1,14
 786.5 543 786.5 543 799.5 540 c 1,15,-1
 788.5 459 l 1,16,17
 775.5 462 775.5 462 760 464 c 128,-1,18
 744.5 466 744.5 466 730.5 466 c 0,19,20
 699.5 466 699.5 466 671.5 453 c 128,-1,21
 643.5 440 643.5 440 621.5 416.5 c 128,-1,22
 599.5 393 599.5 393 587 360 c 128,-1,23
 574.5 327 574.5 327 574.5 286 c 2,24,-1
 574.5 0 l 1,25,-1
 486.5 0 l 1,26,-1
 486.5 536 l 1,27,-1
 558.5 536 l 1,28,-1
 568.5 438 l 1,29,-1
 572.5 438 l 1,30,31
 589.5 468 589.5 468 613.5 492.5 c 128,-1,32
 637.5 517 637.5 517 668.5 531.5 c 128,-1,33
 699.5 546 699.5 546 736.5 546 c 0,12,13
EndSplineSet
EndChar

StartChar: S
Encoding: 83 83 59
Width: 1286
Flags: W
LayerCount: 2
Fore
SplineSet
659.5 744 m 4,0,1
 679.5 744 679.5 744 695 730.5 c 132,-1,2
 710.5 717 710.5 717 710.5 688 c 4,3,4
 710.5 660 710.5 660 695 646 c 132,-1,5
 679.5 632 679.5 632 659.5 632 c 4,6,7
 637.5 632 637.5 632 622.5 646 c 132,-1,8
 607.5 660 607.5 660 607.5 688 c 4,9,10
 607.5 717 607.5 717 622.5 730.5 c 132,-1,11
 637.5 744 637.5 744 659.5 744 c 4,0,1
834.5 148 m 0,12,13
 834.5 96 834.5 96 808.5 61 c 128,-1,14
 782.5 26 782.5 26 734.5 8 c 128,-1,15
 686.5 -10 686.5 -10 620.5 -10 c 0,16,17
 564.5 -10 564.5 -10 524 -1 c 128,-1,18
 483.5 8 483.5 8 452.5 24 c 1,19,-1
 452.5 104 l 1,20,21
 484.5 88 484.5 88 530 74.5 c 128,-1,22
 575.5 61 575.5 61 622.5 61 c 0,23,24
 689.5 61 689.5 61 719.5 82.5 c 128,-1,25
 749.5 104 749.5 104 749.5 140 c 0,26,27
 749.5 160 749.5 160 738.5 176 c 128,-1,28
 727.5 192 727.5 192 699 208 c 128,-1,29
 670.5 224 670.5 224 617.5 244 c 0,30,31
 565.5 264 565.5 264 528.5 284 c 128,-1,32
 491.5 304 491.5 304 471.5 332 c 128,-1,33
 451.5 360 451.5 360 451.5 404 c 0,34,35
 451.5 472 451.5 472 507 509 c 128,-1,36
 562.5 546 562.5 546 652.5 546 c 0,37,38
 701.5 546 701.5 546 744 536.5 c 128,-1,39
 786.5 527 786.5 527 823.5 510 c 1,40,-1
 793.5 440 l 1,41,42
 759.5 454 759.5 454 722.5 464 c 128,-1,43
 685.5 474 685.5 474 646.5 474 c 0,44,45
 592.5 474 592.5 474 564 456.5 c 128,-1,46
 535.5 439 535.5 439 535.5 409 c 0,47,48
 535.5 387 535.5 387 548.5 371.5 c 128,-1,49
 561.5 356 561.5 356 592 341.5 c 128,-1,50
 622.5 327 622.5 327 673.5 307 c 0,51,52
 724.5 288 724.5 288 760.5 268 c 128,-1,53
 796.5 248 796.5 248 815.5 219.5 c 128,-1,54
 834.5 191 834.5 191 834.5 148 c 0,12,13
EndSplineSet
EndChar

StartChar: T
Encoding: 84 84 60
Width: 1286
Flags: W
AnchorPoint: "Anchor-1" 1031.5 -24 basechar 0
AnchorPoint: "Anchor-0" 642.5 -24 basechar 0
LayerCount: 2
Fore
SplineSet
647.5 -12 m 0,0,1
 526.5 -12 526.5 -12 447 20.5 c 128,-1,2
 367.5 53 367.5 53 328.5 109.5 c 128,-1,3
 289.5 166 289.5 166 289.5 237 c 0,4,5
 289.5 293 289.5 293 313 335.5 c 128,-1,6
 336.5 378 336.5 378 377.5 401.5 c 128,-1,7
 418.5 425 418.5 425 471.5 425 c 0,8,9
 513.5 425 513.5 425 543.5 409.5 c 128,-1,10
 573.5 394 573.5 394 589.5 366 c 128,-1,11
 605.5 338 605.5 338 605.5 301 c 0,12,13
 605.5 240 605.5 240 564 203.5 c 128,-1,14
 522.5 167 522.5 167 447.5 167 c 0,15,16
 425.5 167 425.5 167 405.5 171.5 c 128,-1,17
 385.5 176 385.5 176 368.5 183 c 128,-1,18
 351.5 190 351.5 190 336.5 199 c 1,19,-1
 343.5 270 l 1,20,21
 363.5 255 363.5 255 386 246 c 128,-1,22
 408.5 237 408.5 237 435.5 237 c 0,23,24
 484.5 237 484.5 237 505 255 c 128,-1,25
 525.5 273 525.5 273 525.5 301 c 0,26,27
 525.5 327 525.5 327 510 340.5 c 128,-1,28
 494.5 354 494.5 354 466.5 354 c 0,29,30
 436.5 354 436.5 354 413 340 c 128,-1,31
 389.5 326 389.5 326 375.5 302 c 128,-1,32
 361.5 278 361.5 278 361.5 246 c 2,33,-1
 361.5 241 l 2,34,35
 361.5 198 361.5 198 382 165.5 c 128,-1,36
 402.5 133 402.5 133 439.5 111 c 128,-1,37
 476.5 89 476.5 89 528 78 c 128,-1,38
 579.5 67 579.5 67 642.5 67 c 0,39,40
 725.5 67 725.5 67 780 84 c 128,-1,41
 834.5 101 834.5 101 865.5 128 c 128,-1,42
 896.5 155 896.5 155 909 186 c 128,-1,43
 921.5 217 921.5 217 921.5 246 c 2,44,-1
 921.5 290 l 1,45,46
 912.5 317 912.5 317 888.5 335.5 c 128,-1,47
 864.5 354 864.5 354 829.5 354 c 0,48,49
 804.5 354 804.5 354 784 339.5 c 128,-1,50
 763.5 325 763.5 325 763.5 293 c 0,51,52
 763.5 271 763.5 271 779.5 254 c 128,-1,53
 795.5 237 795.5 237 829.5 237 c 0,54,55
 855.5 237 855.5 237 874.5 246.5 c 128,-1,56
 893.5 256 893.5 256 905 273.5 c 128,-1,57
 916.5 291 916.5 291 921.5 314 c 1,58,-1
 937.5 224 l 1,59,60
 922.5 206 922.5 206 905 193 c 128,-1,61
 887.5 180 887.5 180 866 173.5 c 128,-1,62
 844.5 167 844.5 167 816.5 167 c 0,63,64
 778.5 167 778.5 167 748.5 182 c 128,-1,65
 718.5 197 718.5 197 701.5 224.5 c 128,-1,66
 684.5 252 684.5 252 684.5 290 c 0,67,68
 684.5 346 684.5 346 720 377.5 c 128,-1,69
 755.5 409 755.5 409 814.5 409 c 0,70,71
 820.5 409 820.5 409 828 408 c 128,-1,72
 835.5 407 835.5 407 844.5 405 c 128,-1,73
 853.5 403 853.5 403 861.5 400 c 2,74,-1
 849.5 399 l 1,75,76
 829.5 409 829.5 409 798.5 415 c 128,-1,77
 767.5 421 767.5 421 736 424.5 c 128,-1,78
 704.5 428 704.5 428 682.5 428 c 1,79,-1
 702.5 496 l 1,80,81
 779.5 489 779.5 489 835.5 467.5 c 128,-1,82
 891.5 446 891.5 446 927 413 c 128,-1,83
 962.5 380 962.5 380 979.5 337.5 c 128,-1,84
 996.5 295 996.5 295 996.5 245 c 0,85,86
 996.5 190 996.5 190 976 143 c 128,-1,87
 955.5 96 955.5 96 913 61.5 c 128,-1,88
 870.5 27 870.5 27 804.5 7.5 c 128,-1,89
 738.5 -12 738.5 -12 647.5 -12 c 0,0,1
662.5 425 m 0,90,91
 633.5 425 633.5 425 607 436 c 128,-1,92
 580.5 447 580.5 447 558.5 477.5 c 128,-1,93
 536.5 508 536.5 508 520.5 564 c 1,94,-1
 603.5 591 l 1,95,96
 618.5 536 618.5 536 632.5 518 c 128,-1,97
 646.5 500 646.5 500 668.5 500 c 0,98,99
 688.5 500 688.5 500 706 512.5 c 128,-1,100
 723.5 525 723.5 525 755.5 565 c 2,101,-1
 786.5 605 l 2,102,103
 820.5 649 820.5 649 849 675 c 128,-1,104
 877.5 701 877.5 701 909.5 713 c 128,-1,105
 941.5 725 941.5 725 985.5 725 c 1,106,-1
 991.5 648 l 1,107,108
 956.5 646 956.5 646 933 637 c 128,-1,109
 909.5 628 909.5 628 890 608.5 c 128,-1,110
 870.5 589 870.5 589 844.5 556 c 2,111,-1
 821.5 526 l 2,112,113
 793.5 490 793.5 490 768.5 468 c 128,-1,114
 743.5 446 743.5 446 718 435.5 c 128,-1,115
 692.5 425 692.5 425 662.5 425 c 0,90,91
EndSplineSet
EndChar

StartChar: U
Encoding: 85 85 61
Width: 1286
Flags: W
LayerCount: 2
Fore
SplineSet
866 536 m 1,0,-1
 866 0 l 1,1,-1
 794 0 l 1,2,-1
 781 71 l 1,3,-1
 777 71 l 1,4,5
 760 43 760 43 733 25 c 128,-1,6
 706 7 706 7 674 -1.5 c 128,-1,7
 642 -10 642 -10 607 -10 c 0,8,9
 543 -10 543 -10 499.5 10.5 c 128,-1,10
 456 31 456 31 434 74 c 128,-1,11
 412 117 412 117 412 185 c 2,12,-1
 412 536 l 1,13,-1
 501 536 l 1,14,-1
 501 191 l 2,15,16
 501 127 501 127 530 95 c 128,-1,17
 559 63 559 63 620 63 c 0,18,19
 680 63 680 63 714.5 85.5 c 128,-1,20
 749 108 749 108 763.5 151.5 c 128,-1,21
 778 195 778 195 778 257 c 2,22,-1
 778 536 l 1,23,-1
 866 536 l 1,0,-1
781 -116 m 0,24,25
 781 -138 781 -138 793 -149.5 c 128,-1,26
 805 -161 805 -161 826 -161 c 0,27,28
 843 -161 843 -161 854.5 -158.5 c 128,-1,29
 866 -156 866 -156 874 -155 c 1,30,-1
 874 -211 l 1,31,32
 860 -215 860 -215 846 -217.5 c 128,-1,33
 832 -220 832 -220 812 -220 c 0,34,35
 759 -220 759 -220 734 -195 c 128,-1,36
 709 -170 709 -170 709 -126 c 0,37,38
 709 -97 709 -97 723.5 -70 c 128,-1,39
 738 -43 738 -43 759.5 -21 c 128,-1,40
 781 1 781 1 801 15 c 1,41,-1
 849 0 l 1,42,43
 815 -32 815 -32 798 -58.5 c 128,-1,44
 781 -85 781 -85 781 -116 c 0,24,25
EndSplineSet
EndChar

StartChar: V
Encoding: 86 86 62
Width: 1286
Flags: W
LayerCount: 2
Fore
SplineSet
631 737 m 4,0,1
 651 737 651 737 666.5 723.5 c 132,-1,2
 682 710 682 710 682 681 c 4,3,4
 682 653 682 653 666.5 639 c 132,-1,5
 651 625 651 625 631 625 c 4,6,7
 609 625 609 625 594 639 c 132,-1,8
 579 653 579 653 579 681 c 4,9,10
 579 710 579 710 594 723.5 c 132,-1,11
 609 737 609 737 631 737 c 4,0,1
590 0 m 1,12,-1
 400 536 l 1,13,-1
 491 536 l 1,14,-1
 588 247 l 2,15,16
 596 223 596 223 608 190 c 128,-1,17
 620 157 620 157 630.5 125.5 c 128,-1,18
 641 94 641 94 646 74 c 1,19,-1
 650 74 l 1,20,21
 707 137 707 137 739.5 206.5 c 128,-1,22
 772 276 772 276 785.5 357.5 c 128,-1,23
 799 439 799 439 799 536 c 1,24,-1
 886 536 l 1,25,26
 886 431 886 431 868 340.5 c 128,-1,27
 850 250 850 250 806.5 166.5 c 128,-1,28
 763 83 763 83 685 0 c 1,29,-1
 590 0 l 1,12,-1
EndSplineSet
EndChar

StartChar: W
Encoding: 87 87 63
Width: 1286
Flags: W
LayerCount: 2
Fore
SplineSet
499 -10 m 0,0,1
 437 -10 437 -10 394.5 24 c 128,-1,2
 352 58 352 58 330 119 c 128,-1,3
 308 180 308 180 308 260 c 0,4,5
 308 322 308 322 319.5 467 c 128,-1,6
 331 612 331 612 350 652 c 5,7,-1
 236 652 l 5,8,-1
 236 725 l 5,9,-1
 1050 725 l 5,10,-1
 1050 652 l 5,11,-1
 936 652 l 5,12,13
 956 612 956 612 967 467 c 128,-1,14
 978 322 978 322 978 260 c 0,15,16
 978 180 978 180 956 119 c 128,-1,17
 934 58 934 58 891.5 24 c 128,-1,18
 849 -10 849 -10 787 -10 c 0,19,20
 732 -10 732 -10 697 15.5 c 128,-1,21
 662 41 662 41 645 100 c 1,22,-1
 640 100 l 1,23,24
 630 61 630 61 611 36.5 c 128,-1,25
 592 12 592 12 564 1 c 128,-1,26
 536 -10 536 -10 499 -10 c 0,0,1
505 63 m 0,27,28
 538 63 538 63 559.5 80 c 128,-1,29
 581 97 581 97 591 126.5 c 128,-1,30
 601 156 601 156 601 193 c 2,31,-1
 601 344 l 1,32,-1
 685 344 l 1,33,-1
 685 193 l 2,34,35
 685 152 685 152 696.5 122.5 c 128,-1,36
 708 93 708 93 729 78 c 128,-1,37
 750 63 750 63 780 63 c 0,38,39
 814 63 814 63 838.5 85 c 128,-1,40
 863 107 863 107 876.5 151 c 128,-1,41
 890 195 890 195 890 259 c 0,42,43
 890 322 890 322 879 467 c 128,-1,44
 868 612 868 612 848 652 c 5,45,-1
 439 652 l 5,46,47
 420 612 420 612 408 467 c 128,-1,48
 396 322 396 322 396 259 c 0,49,50
 396 162 396 162 426 112.5 c 128,-1,51
 456 63 456 63 505 63 c 0,27,28
EndSplineSet
EndChar

StartChar: X
Encoding: 88 88 64
Width: 1286
Flags: W
LayerCount: 2
Fore
SplineSet
634 722 m 0,0,1
 654 722 654 722 669.5 708.5 c 128,-1,2
 685 695 685 695 685 666 c 0,3,4
 685 638 685 638 669.5 624 c 128,-1,5
 654 610 654 610 634 610 c 0,6,7
 612 610 612 610 597 624 c 128,-1,8
 582 638 582 638 582 666 c 0,9,10
 582 695 582 695 597 708.5 c 128,-1,11
 612 722 612 722 634 722 c 0,0,1
814 574 m 1,12,-1
 864 523 l 1,13,-1
 694 353 l 1,14,-1
 863 183 l 1,15,-1
 813 132 l 1,16,-1
 642 301 l 1,17,-1
 475 132 l 1,18,-1
 423 183 l 1,19,-1
 592 353 l 1,20,-1
 422 522 l 1,21,-1
 474 574 l 1,22,-1
 643 403 l 1,23,-1
 814 574 l 1,12,-1
EndSplineSet
EndChar

StartChar: Y
Encoding: 89 89 65
Width: 1286
Flags: W
LayerCount: 2
Fore
SplineSet
646.5 744 m 4,0,1
 666.5 744 666.5 744 682 730.5 c 132,-1,2
 697.5 717 697.5 717 697.5 688 c 4,3,4
 697.5 660 697.5 660 682 646 c 132,-1,5
 666.5 632 666.5 632 646.5 632 c 4,6,7
 624.5 632 624.5 632 609.5 646 c 132,-1,8
 594.5 660 594.5 660 594.5 688 c 4,9,10
 594.5 717 594.5 717 609.5 730.5 c 132,-1,11
 624.5 744 624.5 744 646.5 744 c 4,0,1
388.5 536 m 1,12,-1
 482.5 536 l 1,13,-1
 598.5 231 l 2,14,15
 608.5 204 608.5 204 617 179 c 128,-1,16
 625.5 154 625.5 154 632.5 130.5 c 128,-1,17
 639.5 107 639.5 107 643.5 85 c 1,18,-1
 647.5 85 l 1,19,20
 653.5 110 653.5 110 666.5 150.5 c 128,-1,21
 679.5 191 679.5 191 693.5 232 c 2,22,-1
 802.5 536 l 1,23,-1
 897.5 536 l 1,24,-1
 666.5 -74 l 2,25,26
 647.5 -124 647.5 -124 622 -161.5 c 128,-1,27
 596.5 -199 596.5 -199 560 -219.5 c 128,-1,28
 523.5 -240 523.5 -240 471.5 -240 c 0,29,30
 447.5 -240 447.5 -240 429.5 -237.5 c 128,-1,31
 411.5 -235 411.5 -235 398.5 -232 c 1,32,-1
 398.5 -162 l 1,33,34
 409.5 -164 409.5 -164 425 -166 c 128,-1,35
 440.5 -168 440.5 -168 457.5 -168 c 0,36,37
 488.5 -168 488.5 -168 511 -156.5 c 128,-1,38
 533.5 -145 533.5 -145 549.5 -123.5 c 128,-1,39
 565.5 -102 565.5 -102 576.5 -73 c 2,40,-1
 604.5 -2 l 1,41,-1
 388.5 536 l 1,12,-1
EndSplineSet
EndChar

StartChar: Z
Encoding: 90 90 66
Width: 1286
Flags: W
LayerCount: 2
Fore
SplineSet
432 0 m 1,0,-1
 432 56 l 1,1,-1
 735 499 l 1,2,-1
 443 499 l 1,3,-1
 443 572 l 1,4,-1
 846 572 l 1,5,-1
 846 515 l 1,6,-1
 543 73 l 1,7,-1
 854 73 l 1,8,-1
 854 0 l 1,9,-1
 432 0 l 1,0,-1
648 773 m 0,10,11
 668 773 668 773 683.5 759.5 c 128,-1,12
 699 746 699 746 699 717 c 0,13,14
 699 689 699 689 683.5 675 c 128,-1,15
 668 661 668 661 648 661 c 0,16,17
 626 661 626 661 611 675 c 128,-1,18
 596 689 596 689 596 717 c 0,19,20
 596 746 596 746 611 759.5 c 128,-1,21
 626 773 626 773 648 773 c 0,10,11
EndSplineSet
EndChar

StartChar: a
Encoding: 97 97 67
Width: 1286
Flags: W
LayerCount: 2
Fore
SplineSet
590 -10 m 0,0,1
 490 -10 490 -10 430 59.5 c 128,-1,2
 370 129 370 129 370 267 c 256,3,4
 370 405 370 405 430.5 475.5 c 128,-1,5
 491 546 491 546 591 546 c 0,6,7
 653 546 653 546 692.5 523 c 128,-1,8
 732 500 732 500 757 467 c 1,9,-1
 761 467 l 1,10,-1
 775 536 l 1,11,-1
 845 536 l 1,12,-1
 845 118 l 2,13,14
 845 87 845 87 857 74.5 c 128,-1,15
 869 62 869 62 886 62 c 0,16,17
 894 62 894 62 903 64 c 128,-1,18
 912 66 912 66 916 67 c 1,19,-1
 916 3 l 1,20,21
 911 0 911 0 902 -3 c 128,-1,22
 893 -6 893 -6 882 -8 c 128,-1,23
 871 -10 871 -10 860 -10 c 0,24,25
 822 -10 822 -10 797 8 c 128,-1,26
 772 26 772 26 761 72 c 1,27,-1
 757 72 l 1,28,29
 733 38 733 38 693 14 c 128,-1,30
 653 -10 653 -10 590 -10 c 0,0,1
604 63 m 0,31,32
 661 63 661 63 694.5 83.5 c 128,-1,33
 728 104 728 104 743 146 c 128,-1,34
 758 188 758 188 758 250 c 2,35,-1
 758 266 l 2,36,37
 758 366 758 366 725 419.5 c 128,-1,38
 692 473 692 473 603 473 c 0,39,40
 532 473 532 473 496.5 416.5 c 128,-1,41
 461 360 461 360 461 265 c 0,42,43
 461 169 461 169 496.5 116 c 128,-1,44
 532 63 532 63 604 63 c 0,31,32
EndSplineSet
EndChar

StartChar: b
Encoding: 98 98 68
Width: 1286
Flags: W
AnchorPoint: "Anchor-1" 1017.5 -24 basechar 0
AnchorPoint: "Anchor-0" 642.5 -24 basechar 0
LayerCount: 2
Fore
SplineSet
800.5 -12 m 0,0,1
 763.5 -12 763.5 -12 733.5 -2.5 c 128,-1,2
 703.5 7 703.5 7 679 29 c 128,-1,3
 654.5 51 654.5 51 632.5 90 c 1,4,-1
 653.5 90 l 1,5,6
 627.5 49 627.5 49 600.5 27 c 128,-1,7
 573.5 5 573.5 5 542.5 -3.5 c 128,-1,8
 511.5 -12 511.5 -12 472.5 -12 c 0,9,10
 417.5 -12 417.5 -12 381 7.5 c 128,-1,11
 344.5 27 344.5 27 326.5 59.5 c 128,-1,12
 308.5 92 308.5 92 308.5 130 c 0,13,14
 308.5 171 308.5 171 325 200 c 128,-1,15
 341.5 229 341.5 229 374.5 250.5 c 128,-1,16
 407.5 272 407.5 272 456.5 289 c 0,17,18
 497.5 304 497.5 304 521.5 321 c 128,-1,19
 545.5 338 545.5 338 545.5 371 c 0,20,21
 545.5 387 545.5 387 538.5 399.5 c 128,-1,22
 531.5 412 531.5 412 515 419.5 c 128,-1,23
 498.5 427 498.5 427 470.5 427 c 0,24,25
 427.5 427 427.5 427 406.5 410.5 c 128,-1,26
 385.5 394 385.5 394 385.5 365 c 0,27,28
 385.5 352 385.5 352 389 341 c 128,-1,29
 392.5 330 392.5 330 395.5 323 c 1,30,-1
 320.5 302 l 1,31,32
 312.5 317 312.5 317 308 335.5 c 128,-1,33
 303.5 354 303.5 354 303.5 375 c 0,34,35
 303.5 407 303.5 407 320.5 435.5 c 128,-1,36
 337.5 464 337.5 464 374.5 482 c 128,-1,37
 411.5 500 411.5 500 470.5 500 c 0,38,39
 530.5 500 530.5 500 564.5 480 c 128,-1,40
 598.5 460 598.5 460 613 430 c 128,-1,41
 627.5 400 627.5 400 627.5 370 c 0,42,43
 627.5 332 627.5 332 612.5 305.5 c 128,-1,44
 597.5 279 597.5 279 568 260 c 128,-1,45
 538.5 241 538.5 241 494.5 225 c 0,46,47
 441.5 205 441.5 205 416 184.5 c 128,-1,48
 390.5 164 390.5 164 390.5 131 c 0,49,50
 390.5 102 390.5 102 411 84.5 c 128,-1,51
 431.5 67 431.5 67 474.5 67 c 0,52,53
 516.5 67 516.5 67 544 81.5 c 128,-1,54
 571.5 96 571.5 96 586 123 c 128,-1,55
 600.5 150 600.5 150 603.5 185 c 1,56,-1
 681.5 185 l 1,57,58
 684.5 144 684.5 144 700.5 118 c 128,-1,59
 716.5 92 716.5 92 740.5 79.5 c 128,-1,60
 764.5 67 764.5 67 792.5 67 c 0,61,62
 847.5 67 847.5 67 873.5 99.5 c 128,-1,63
 899.5 132 899.5 132 899.5 193 c 0,64,65
 899.5 251 899.5 251 876 294.5 c 128,-1,66
 852.5 338 852.5 338 813 369.5 c 128,-1,67
 773.5 401 773.5 401 723.5 423 c 1,68,-1
 760.5 500 l 1,69,70
 822.5 474 822.5 474 872.5 430 c 128,-1,71
 922.5 386 922.5 386 952.5 328 c 128,-1,72
 982.5 270 982.5 270 982.5 199 c 0,73,74
 982.5 132 982.5 132 960 84.5 c 128,-1,75
 937.5 37 937.5 37 897 12.5 c 128,-1,76
 856.5 -12 856.5 -12 800.5 -12 c 0,0,1
EndSplineSet
EndChar

StartChar: c
Encoding: 99 99 69
Width: 1286
Flags: W
AnchorPoint: "Anchor-1" 643 536 basechar 0
AnchorPoint: "Anchor-0" 643 0 basechar 0
LayerCount: 2
Fore
SplineSet
699 -10 m 0,0,1
 581 -10 581 -10 516 57 c 128,-1,2
 451 124 451 124 451 245 c 0,3,4
 451 325 451 325 480 380.5 c 128,-1,5
 509 436 509 436 563 465 c 1,6,-1
 430 465 l 1,7,-1
 430 537 l 1,8,-1
 856 537 l 1,9,-1
 856 465 l 1,10,-1
 743 465 l 2,11,12
 649 465 649 465 595.5 411.5 c 128,-1,13
 542 358 542 358 542 252 c 0,14,15
 542 165 542 165 585 114.5 c 128,-1,16
 628 64 628 64 708 64 c 0,17,18
 745 64 745 64 779 73.5 c 128,-1,19
 813 83 813 83 845 99 c 1,20,-1
 845 21 l 1,21,22
 816 5 816 5 781 -2.5 c 128,-1,23
 746 -10 746 -10 699 -10 c 0,0,1
EndSplineSet
EndChar

StartChar: d
Encoding: 100 100 70
Width: 1286
Flags: W
AnchorPoint: "Anchor-1" 1010 -24 basechar 0
AnchorPoint: "Anchor-0" 640 -24 basechar 0
LayerCount: 2
Fore
SplineSet
614 425 m 0,0,1
 585 425 585 425 558.5 436 c 128,-1,2
 532 447 532 447 510 477.5 c 128,-1,3
 488 508 488 508 472 564 c 1,4,-1
 555 591 l 1,5,6
 570 536 570 536 584 518 c 128,-1,7
 598 500 598 500 620 500 c 0,8,9
 640 500 640 500 657.5 512.5 c 128,-1,10
 675 525 675 525 707 565 c 2,11,-1
 738 605 l 2,12,13
 772 649 772 649 800.5 675 c 128,-1,14
 829 701 829 701 861 713 c 128,-1,15
 893 725 893 725 937 725 c 1,16,-1
 943 648 l 1,17,18
 908 646 908 646 884.5 637 c 128,-1,19
 861 628 861 628 841.5 608.5 c 128,-1,20
 822 589 822 589 796 556 c 2,21,-1
 773 526 l 2,22,23
 745 490 745 490 720 468 c 128,-1,24
 695 446 695 446 669.5 435.5 c 128,-1,25
 644 425 644 425 614 425 c 0,0,1
816 -12 m 0,26,27
 761 -12 761 -12 722 -0.5 c 128,-1,28
 683 11 683 11 658 32.5 c 128,-1,29
 633 54 633 54 616 84 c 1,30,-1
 632 91 l 1,31,32
 611 48 611 48 585 25.5 c 128,-1,33
 559 3 559 3 530 -4.5 c 128,-1,34
 501 -12 501 -12 468 -12 c 0,35,36
 395 -12 395 -12 350 43 c 128,-1,37
 305 98 305 98 305 194 c 0,38,39
 305 291 305 291 347.5 359 c 128,-1,40
 390 427 390 427 468.5 463.5 c 128,-1,41
 547 500 547 500 653 500 c 0,42,43
 706 500 706 500 751 490.5 c 128,-1,44
 796 481 796 481 835.5 464 c 128,-1,45
 875 447 875 447 912 424 c 1,46,-1
 863 358 l 1,47,48
 829 380 829 380 796 395 c 128,-1,49
 763 410 763 410 727 417.5 c 128,-1,50
 691 425 691 425 647 425 c 0,51,52
 565 425 565 425 507 398.5 c 128,-1,53
 449 372 449 372 418.5 321 c 128,-1,54
 388 270 388 270 388 197 c 0,55,56
 388 127 388 127 412.5 97 c 128,-1,57
 437 67 437 67 480 67 c 0,58,59
 527 67 527 67 553.5 99.5 c 128,-1,60
 580 132 580 132 584 185 c 1,61,-1
 662 185 l 1,62,63
 664 146 664 146 680.5 116 c 128,-1,64
 697 86 697 86 733 76 c 0,65,66
 750 69 750 69 771.5 66 c 128,-1,67
 793 63 793 63 820 63 c 0,68,69
 861 63 861 63 881 80.5 c 128,-1,70
 901 98 901 98 901 129 c 256,71,72
 901 160 901 160 882.5 174 c 128,-1,73
 864 188 864 188 835 188 c 0,74,75
 808 188 808 188 788.5 173.5 c 128,-1,76
 769 159 769 159 769 124 c 0,77,78
 769 99 769 99 779 79 c 128,-1,79
 789 59 789 59 803 46 c 1,80,-1
 737 35 l 1,81,82
 723 57 723 57 711 83 c 128,-1,83
 699 109 699 109 699 141 c 0,84,85
 699 197 699 197 737.5 231 c 128,-1,86
 776 265 776 265 839 265 c 0,87,88
 881 265 881 265 913 248 c 128,-1,89
 945 231 945 231 963 201.5 c 128,-1,90
 981 172 981 172 981 135 c 0,91,92
 981 97 981 97 968.5 69.5 c 128,-1,93
 956 42 956 42 933.5 24 c 128,-1,94
 911 6 911 6 881 -3 c 128,-1,95
 851 -12 851 -12 816 -12 c 0,26,27
EndSplineSet
EndChar

StartChar: e
Encoding: 101 101 71
Width: 1286
Flags: W
LayerCount: 2
Fore
SplineSet
651 546 m 0,0,1
 720 546 720 546 769.5 516 c 128,-1,2
 819 486 819 486 845.5 431.5 c 128,-1,3
 872 377 872 377 872 304 c 2,4,-1
 872 251 l 1,5,-1
 505 251 l 1,6,7
 507 160 507 160 551.5 112.5 c 128,-1,8
 596 65 596 65 676 65 c 0,9,10
 727 65 727 65 766.5 74.5 c 128,-1,11
 806 84 806 84 848 102 c 1,12,-1
 848 25 l 1,13,14
 807 7 807 7 767 -1.5 c 128,-1,15
 727 -10 727 -10 672 -10 c 0,16,17
 596 -10 596 -10 537.5 21 c 128,-1,18
 479 52 479 52 446.5 113.5 c 128,-1,19
 414 175 414 175 414 264 c 0,20,21
 414 352 414 352 443.5 415 c 128,-1,22
 473 478 473 478 526.5 512 c 128,-1,23
 580 546 580 546 651 546 c 0,0,1
650 474 m 0,24,25
 587 474 587 474 550.5 433.5 c 128,-1,26
 514 393 514 393 507 321 c 1,27,-1
 780 321 l 1,28,29
 780 367 780 367 766 401 c 128,-1,30
 752 435 752 435 723.5 454.5 c 128,-1,31
 695 474 695 474 650 474 c 0,24,25
EndSplineSet
EndChar

StartChar: f
Encoding: 102 102 72
Width: 1286
Flags: W
AnchorPoint: "Anchor-0" 645.5 -24 basechar 0
LayerCount: 2
Fore
SplineSet
487.5 425 m 0,0,1
 458.5 425 458.5 425 432 436 c 128,-1,2
 405.5 447 405.5 447 383.5 477.5 c 128,-1,3
 361.5 508 361.5 508 345.5 564 c 1,4,-1
 428.5 591 l 1,5,6
 443.5 536 443.5 536 457.5 518 c 128,-1,7
 471.5 500 471.5 500 493.5 500 c 0,8,9
 513.5 500 513.5 500 531 512.5 c 128,-1,10
 548.5 525 548.5 525 580.5 565 c 2,11,-1
 611.5 605 l 2,12,13
 645.5 649 645.5 649 674 675 c 128,-1,14
 702.5 701 702.5 701 734.5 713 c 128,-1,15
 766.5 725 766.5 725 810.5 725 c 1,16,-1
 816.5 648 l 1,17,18
 781.5 646 781.5 646 758 637 c 128,-1,19
 734.5 628 734.5 628 715 608.5 c 128,-1,20
 695.5 589 695.5 589 669.5 556 c 2,21,-1
 646.5 526 l 2,22,23
 618.5 490 618.5 490 593.5 468 c 128,-1,24
 568.5 446 568.5 446 543 435.5 c 128,-1,25
 517.5 425 517.5 425 487.5 425 c 0,0,1
775.5 -12 m 0,26,27
 727.5 -12 727.5 -12 692 6 c 128,-1,28
 656.5 24 656.5 24 626.5 56 c 128,-1,29
 596.5 88 596.5 88 563.5 131 c 0,30,31
 534.5 171 534.5 171 513.5 189 c 128,-1,32
 492.5 207 492.5 207 462.5 207 c 0,33,34
 434.5 207 434.5 207 416 189 c 128,-1,35
 397.5 171 397.5 171 397.5 136 c 0,36,37
 397.5 105 397.5 105 417 84 c 128,-1,38
 436.5 63 436.5 63 470.5 63 c 256,39,40
 504.5 63 504.5 63 527 83 c 128,-1,41
 549.5 103 549.5 103 565.5 141 c 1,42,-1
 618.5 81 l 1,43,44
 599.5 54 599.5 54 578.5 33 c 128,-1,45
 557.5 12 557.5 12 531 0 c 128,-1,46
 504.5 -12 504.5 -12 465.5 -12 c 0,47,48
 412.5 -12 412.5 -12 380.5 10 c 128,-1,49
 348.5 32 348.5 32 334 66.5 c 128,-1,50
 319.5 101 319.5 101 319.5 138 c 0,51,52
 319.5 182 319.5 182 338.5 214 c 128,-1,53
 357.5 246 357.5 246 389.5 264 c 128,-1,54
 421.5 282 421.5 282 460.5 282 c 0,55,56
 496.5 282 496.5 282 524.5 269.5 c 128,-1,57
 552.5 257 552.5 257 579.5 230.5 c 128,-1,58
 606.5 204 606.5 204 638.5 161 c 0,59,60
 665.5 126 665.5 126 686.5 105 c 128,-1,61
 707.5 84 707.5 84 729.5 75.5 c 128,-1,62
 751.5 67 751.5 67 780.5 67 c 0,63,64
 830.5 67 830.5 67 857 99.5 c 128,-1,65
 883.5 132 883.5 132 883.5 193 c 0,66,67
 883.5 251 883.5 251 860.5 294.5 c 128,-1,68
 837.5 338 837.5 338 797.5 369.5 c 128,-1,69
 757.5 401 757.5 401 707.5 423 c 1,70,-1
 745.5 500 l 1,71,72
 807.5 474 807.5 474 857.5 430 c 128,-1,73
 907.5 386 907.5 386 937 327.5 c 128,-1,74
 966.5 269 966.5 269 966.5 198 c 0,75,76
 966.5 132 966.5 132 944 85 c 128,-1,77
 921.5 38 921.5 38 879 13 c 128,-1,78
 836.5 -12 836.5 -12 775.5 -12 c 0,26,27
570.5 -125 m 1,79,-1
 577.5 16 l 1,80,-1
 652.5 16 l 1,81,-1
 660.5 -125 l 1,82,-1
 570.5 -125 l 1,79,-1
EndSplineSet
EndChar

StartChar: g
Encoding: 103 103 73
Width: 1286
Flags: W
LayerCount: 2
Fore
SplineSet
625.5 546 m 0,0,1
 678.5 546 678.5 546 721 526 c 128,-1,2
 763.5 506 763.5 506 793.5 465 c 1,3,-1
 798.5 465 l 1,4,-1
 810.5 536 l 1,5,-1
 880.5 536 l 1,6,-1
 880.5 -9 l 2,7,8
 880.5 -85 880.5 -85 854.5 -136.5 c 128,-1,9
 828.5 -188 828.5 -188 775.5 -214 c 128,-1,10
 722.5 -240 722.5 -240 640.5 -240 c 0,11,12
 582.5 -240 582.5 -240 534 -231.5 c 128,-1,13
 485.5 -223 485.5 -223 447.5 -206 c 1,14,-1
 447.5 -125 l 1,15,16
 485.5 -145 485.5 -145 536.5 -156 c 128,-1,17
 587.5 -167 587.5 -167 645.5 -167 c 0,18,19
 714.5 -167 714.5 -167 754 -126.5 c 128,-1,20
 793.5 -86 793.5 -86 793.5 -16 c 2,21,-1
 793.5 5 l 2,22,23
 793.5 17 793.5 17 794.5 39.5 c 128,-1,24
 795.5 62 795.5 62 796.5 71 c 1,25,-1
 792.5 71 l 1,26,27
 764.5 30 764.5 30 723 10 c 128,-1,28
 681.5 -10 681.5 -10 626.5 -10 c 0,29,30
 522.5 -10 522.5 -10 464 63 c 128,-1,31
 405.5 136 405.5 136 405.5 267 c 0,32,33
 405.5 395 405.5 395 464 470.5 c 128,-1,34
 522.5 546 522.5 546 625.5 546 c 0,0,1
637.5 472 m 0,35,36
 592.5 472 592.5 472 561 448 c 128,-1,37
 529.5 424 529.5 424 513 378 c 128,-1,38
 496.5 332 496.5 332 496.5 266 c 0,39,40
 496.5 167 496.5 167 533 114.5 c 128,-1,41
 569.5 62 569.5 62 639.5 62 c 0,42,43
 680.5 62 680.5 62 709.5 72.5 c 128,-1,44
 738.5 83 738.5 83 757.5 105.5 c 128,-1,45
 776.5 128 776.5 128 785.5 163 c 128,-1,46
 794.5 198 794.5 198 794.5 246 c 2,47,-1
 794.5 267 l 2,48,49
 794.5 340 794.5 340 778 385 c 128,-1,50
 761.5 430 761.5 430 726.5 451 c 128,-1,51
 691.5 472 691.5 472 637.5 472 c 0,35,36
EndSplineSet
EndChar

StartChar: h
Encoding: 104 104 74
Width: 1286
Flags: W
LayerCount: 2
Fore
SplineSet
505 537 m 2,0,1
 505 518 505 518 503.5 498 c 128,-1,2
 502 478 502 478 500 462 c 1,3,-1
 506 462 l 1,4,5
 523 490 523 490 549 508 c 128,-1,6
 575 526 575 526 607 535.5 c 128,-1,7
 639 545 639 545 673 545 c 0,8,9
 738 545 738 545 781.5 524.5 c 128,-1,10
 825 504 825 504 847 461 c 128,-1,11
 869 418 869 418 869 349 c 2,12,-1
 869 0 l 1,13,-1
 782 0 l 1,14,-1
 782 343 l 2,15,16
 782 408 782 408 753 440 c 128,-1,17
 724 472 724 472 662 472 c 0,18,19
 602 472 602 472 568 449.5 c 128,-1,20
 534 427 534 427 519.5 383.5 c 128,-1,21
 505 340 505 340 505 277 c 2,22,-1
 505 0 l 1,23,-1
 417 0 l 1,24,-1
 417 760 l 1,25,-1
 505 760 l 1,26,-1
 505 537 l 2,0,1
EndSplineSet
EndChar

StartChar: i
Encoding: 105 105 75
Width: 1286
Flags: W
LayerCount: 2
Fore
SplineSet
686.5 536 m 1,0,-1
 686.5 0 l 1,1,-1
 598.5 0 l 1,2,-1
 598.5 536 l 1,3,-1
 686.5 536 l 1,0,-1
643.5 737 m 0,4,5
 663.5 737 663.5 737 679 723.5 c 128,-1,6
 694.5 710 694.5 710 694.5 681 c 0,7,8
 694.5 653 694.5 653 679 639 c 128,-1,9
 663.5 625 663.5 625 643.5 625 c 0,10,11
 621.5 625 621.5 625 606.5 639 c 128,-1,12
 591.5 653 591.5 653 591.5 681 c 0,13,14
 591.5 710 591.5 710 606.5 723.5 c 128,-1,15
 621.5 737 621.5 737 643.5 737 c 0,4,5
EndSplineSet
Substitution2: "Single Substitution lookup 97 subtable" dotlessi
Substitution2: "Single Substitution lookup 96 subtable" dotlessi
EndChar

StartChar: j
Encoding: 106 106 76
Width: 1286
Flags: W
AnchorPoint: "Anchor-1" 643 536 basechar 0
AnchorPoint: "Anchor-0" 643 0 basechar 0
LayerCount: 2
Fore
SplineSet
832 536 m 1,0,-1
 832 470 l 1,1,-1
 721 313 l 1,2,-1
 822 313 l 1,3,-1
 822 243 l 1,4,-1
 671 243 l 1,5,-1
 548 68 l 1,6,-1
 839 68 l 1,7,-1
 839 0 l 1,8,-1
 447 0 l 1,9,-1
 447 58 l 1,10,-1
 577 243 l 1,11,-1
 465 243 l 1,12,-1
 465 313 l 1,13,-1
 626 313 l 1,14,-1
 735 468 l 1,15,-1
 464 468 l 1,16,-1
 464 536 l 1,17,-1
 832 536 l 1,0,-1
EndSplineSet
Substitution2: "Single Substitution lookup 97 subtable" uni0237
Substitution2: "Single Substitution lookup 96 subtable" uni0237
EndChar

StartChar: k
Encoding: 107 107 77
Width: 1286
Flags: W
LayerCount: 2
Fore
SplineSet
510 363 m 2,0,1
 510 347 510 347 508.5 321 c 128,-1,2
 507 295 507 295 506 276 c 1,3,-1
 510 276 l 1,4,5
 516 284 516 284 528 299 c 128,-1,6
 540 314 540 314 552.5 329.5 c 128,-1,7
 565 345 565 345 574 355 c 2,8,-1
 745 536 l 1,9,-1
 848 536 l 1,10,-1
 631 307 l 1,11,-1
 863 0 l 1,12,-1
 757 0 l 1,13,-1
 571 250 l 1,14,-1
 510 197 l 1,15,-1
 510 0 l 1,16,-1
 423 0 l 1,17,-1
 423 760 l 1,18,-1
 510 760 l 1,19,-1
 510 363 l 2,0,1
EndSplineSet
EndChar

StartChar: l
Encoding: 108 108 78
Width: 1286
Flags: W
AnchorPoint: "Anchor-1" 997.5 -24 basechar 0
AnchorPoint: "Anchor-0" 642.5 -24 basechar 0
LayerCount: 2
Fore
SplineSet
644.5 -12 m 0,0,1
 539.5 -12 539.5 -12 468 24 c 128,-1,2
 396.5 60 396.5 60 360 123.5 c 128,-1,3
 323.5 187 323.5 187 323.5 269 c 0,4,5
 323.5 343 323.5 343 349 394.5 c 128,-1,6
 374.5 446 374.5 446 417.5 473 c 128,-1,7
 460.5 500 460.5 500 513.5 500 c 0,8,9
 553.5 500 553.5 500 583 484.5 c 128,-1,10
 612.5 469 612.5 469 629 440.5 c 128,-1,11
 645.5 412 645.5 412 645.5 373 c 0,12,13
 645.5 333 645.5 333 628.5 301.5 c 128,-1,14
 611.5 270 611.5 270 577 252.5 c 128,-1,15
 542.5 235 542.5 235 489.5 235 c 0,16,17
 456.5 235 456.5 235 428.5 246 c 128,-1,18
 400.5 257 400.5 257 380 273 c 128,-1,19
 359.5 289 359.5 289 346.5 304 c 1,20,-1
 369.5 366 l 1,21,22
 377.5 355 377.5 355 392 340.5 c 128,-1,23
 406.5 326 406.5 326 429.5 315.5 c 128,-1,24
 452.5 305 452.5 305 484.5 305 c 0,25,26
 525.5 305 525.5 305 546 322 c 128,-1,27
 566.5 339 566.5 339 566.5 369 c 0,28,29
 566.5 398 566.5 398 550.5 413.5 c 128,-1,30
 534.5 429 534.5 429 508.5 429 c 0,31,32
 460.5 429 460.5 429 431.5 390 c 128,-1,33
 402.5 351 402.5 351 402.5 284 c 2,34,-1
 402.5 266 l 2,35,36
 402.5 226 402.5 226 417 190.5 c 128,-1,37
 431.5 155 431.5 155 460.5 127 c 128,-1,38
 489.5 99 489.5 99 535 83 c 128,-1,39
 580.5 67 580.5 67 641.5 67 c 0,40,41
 751.5 67 751.5 67 815.5 113 c 128,-1,42
 879.5 159 879.5 159 879.5 245 c 0,43,44
 879.5 303 879.5 303 847 349 c 128,-1,45
 814.5 395 814.5 395 745.5 423 c 1,46,-1
 785.5 500 l 1,47,48
 868.5 464 868.5 464 915.5 400 c 128,-1,49
 962.5 336 962.5 336 962.5 250 c 0,50,51
 962.5 176 962.5 176 929.5 116.5 c 128,-1,52
 896.5 57 896.5 57 826 22.5 c 128,-1,53
 755.5 -12 755.5 -12 644.5 -12 c 0,0,1
EndSplineSet
EndChar

StartChar: m
Encoding: 109 109 79
Width: 1286
Flags: W
AnchorPoint: "Anchor-1" 1175 -24 basechar 0
AnchorPoint: "Anchor-0" 646 -24 basechar 0
LayerCount: 2
Fore
SplineSet
356 425 m 0,0,1
 327 425 327 425 300.5 436 c 128,-1,2
 274 447 274 447 252 477.5 c 128,-1,3
 230 508 230 508 214 564 c 1,4,-1
 297 591 l 1,5,6
 312 536 312 536 326 518 c 128,-1,7
 340 500 340 500 362 500 c 0,8,9
 382 500 382 500 399.5 512.5 c 128,-1,10
 417 525 417 525 449 565 c 2,11,-1
 480 605 l 2,12,13
 514 649 514 649 542.5 675 c 128,-1,14
 571 701 571 701 603 713 c 128,-1,15
 635 725 635 725 679 725 c 1,16,-1
 685 648 l 1,17,18
 650 646 650 646 626.5 637 c 128,-1,19
 603 628 603 628 583.5 608.5 c 128,-1,20
 564 589 564 589 538 556 c 2,21,-1
 515 526 l 2,22,23
 487 490 487 490 462 468 c 128,-1,24
 437 446 437 446 411.5 435.5 c 128,-1,25
 386 425 386 425 356 425 c 0,0,1
598 -12 m 0,26,27
 552 -12 552 -12 517 6 c 128,-1,28
 482 24 482 24 452.5 56 c 128,-1,29
 423 88 423 88 390 131 c 0,30,31
 361 171 361 171 340 189 c 128,-1,32
 319 207 319 207 289 207 c 0,33,34
 261 207 261 207 242.5 189 c 128,-1,35
 224 171 224 171 224 136 c 0,36,37
 224 105 224 105 243.5 84 c 128,-1,38
 263 63 263 63 297 63 c 256,39,40
 331 63 331 63 353.5 83 c 128,-1,41
 376 103 376 103 392 141 c 1,42,-1
 445 81 l 1,43,44
 426 54 426 54 405 33 c 128,-1,45
 384 12 384 12 357.5 0 c 128,-1,46
 331 -12 331 -12 292 -12 c 0,47,48
 239 -12 239 -12 207 10 c 128,-1,49
 175 32 175 32 160.5 66.5 c 128,-1,50
 146 101 146 101 146 138 c 0,51,52
 146 182 146 182 165 214 c 128,-1,53
 184 246 184 246 216 264 c 128,-1,54
 248 282 248 282 287 282 c 0,55,56
 323 282 323 282 351 269.5 c 128,-1,57
 379 257 379 257 406 230.5 c 128,-1,58
 433 204 433 204 465 161 c 0,59,60
 492 126 492 126 513 105 c 128,-1,61
 534 84 534 84 555 75.5 c 128,-1,62
 576 67 576 67 603 67 c 0,63,64
 656 67 656 67 683 99 c 128,-1,65
 710 131 710 131 710 192 c 0,66,67
 710 249 710 249 687 292.5 c 128,-1,68
 664 336 664 336 623 365.5 c 128,-1,69
 582 395 582 395 527 410 c 128,-1,70
 472 425 472 425 409 425 c 2,71,-1
 360 425 l 1,72,-1
 443 500 l 1,73,74
 554 493 554 493 632.5 452.5 c 128,-1,75
 711 412 711 412 752 345.5 c 128,-1,76
 793 279 793 279 793 194 c 0,77,78
 793 135 793 135 772 88 c 128,-1,79
 751 41 751 41 707.5 14.5 c 128,-1,80
 664 -12 664 -12 598 -12 c 0,26,27
945 -12 m 0,81,82
 878 -12 878 -12 827.5 22 c 128,-1,83
 777 56 777 56 738 111 c 1,84,-1
 778 176 l 1,85,86
 806 139 806 139 833.5 115 c 128,-1,87
 861 91 861 91 890.5 79 c 128,-1,88
 920 67 920 67 952 67 c 0,89,90
 1003 67 1003 67 1030 99.5 c 128,-1,91
 1057 132 1057 132 1057 193 c 0,92,93
 1057 251 1057 251 1033.5 294.5 c 128,-1,94
 1010 338 1010 338 970.5 369.5 c 128,-1,95
 931 401 931 401 881 423 c 1,96,-1
 918 500 l 1,97,98
 980 474 980 474 1030 430 c 128,-1,99
 1080 386 1080 386 1110 328 c 128,-1,100
 1140 270 1140 270 1140 199 c 0,101,102
 1140 100 1140 100 1090 44 c 128,-1,103
 1040 -12 1040 -12 945 -12 c 0,81,82
EndSplineSet
EndChar

StartChar: n
Encoding: 110 110 80
Width: 1286
Flags: W
AnchorPoint: "Anchor-1" 997 -24 basechar 0
AnchorPoint: "Anchor-0" 646 -24 basechar 0
LayerCount: 2
Fore
SplineSet
767 -12 m 0,0,1
 720 -12 720 -12 685 3.5 c 128,-1,2
 650 19 650 19 619 51.5 c 128,-1,3
 588 84 588 84 551 133 c 0,4,5
 530 162 530 162 515.5 178.5 c 128,-1,6
 501 195 501 195 488.5 202 c 128,-1,7
 476 209 476 209 459 209 c 0,8,9
 436 209 436 209 421 190.5 c 128,-1,10
 406 172 406 172 406 143 c 0,11,12
 406 108 406 108 418 77 c 128,-1,13
 430 46 430 46 454 14 c 1,14,-1
 373 -13 l 1,15,16
 351 22 351 22 337.5 59.5 c 128,-1,17
 324 97 324 97 324 143 c 0,18,19
 324 184 324 184 341.5 216 c 128,-1,20
 359 248 359 248 389.5 267 c 128,-1,21
 420 286 420 286 460 286 c 0,22,23
 499 286 499 286 525.5 272.5 c 128,-1,24
 552 259 552 259 574.5 234.5 c 128,-1,25
 597 210 597 210 623 175 c 0,26,27
 653 136 653 136 675.5 112 c 128,-1,28
 698 88 698 88 720.5 77.5 c 128,-1,29
 743 67 743 67 773 67 c 0,30,31
 825 67 825 67 852 100 c 128,-1,32
 879 133 879 133 879 194 c 0,33,34
 879 250 879 250 856 293 c 128,-1,35
 833 336 833 336 792 365.5 c 128,-1,36
 751 395 751 395 696 410 c 128,-1,37
 641 425 641 425 577 425 c 2,38,-1
 533 425 l 1,39,-1
 611 500 l 1,40,41
 723 493 723 493 801 452.5 c 128,-1,42
 879 412 879 412 920.5 345.5 c 128,-1,43
 962 279 962 279 962 194 c 0,44,45
 962 132 962 132 940 85.5 c 128,-1,46
 918 39 918 39 875 13.5 c 128,-1,47
 832 -12 832 -12 767 -12 c 0,0,1
531 425 m 0,48,49
 502 425 502 425 475.5 436 c 128,-1,50
 449 447 449 447 427 477.5 c 128,-1,51
 405 508 405 508 389 564 c 1,52,-1
 472 591 l 1,53,54
 487 536 487 536 501 518 c 128,-1,55
 515 500 515 500 537 500 c 0,56,57
 557 500 557 500 574.5 512.5 c 128,-1,58
 592 525 592 525 624 565 c 2,59,-1
 655 605 l 2,60,61
 689 649 689 649 717.5 675 c 128,-1,62
 746 701 746 701 778 713 c 128,-1,63
 810 725 810 725 854 725 c 1,64,-1
 860 648 l 1,65,66
 825 646 825 646 801.5 637 c 128,-1,67
 778 628 778 628 758.5 608.5 c 128,-1,68
 739 589 739 589 713 556 c 2,69,-1
 690 526 l 2,70,71
 662 490 662 490 637 468 c 128,-1,72
 612 446 612 446 586.5 435.5 c 128,-1,73
 561 425 561 425 531 425 c 0,48,49
EndSplineSet
EndChar

StartChar: o
Encoding: 111 111 81
Width: 1286
Flags: W
LayerCount: 2
Fore
SplineSet
891 269 m 0,0,1
 891 202 891 202 873.5 150.5 c 128,-1,2
 856 99 856 99 823.5 63 c 128,-1,3
 791 27 791 27 744.5 8.5 c 128,-1,4
 698 -10 698 -10 641 -10 c 0,5,6
 588 -10 588 -10 543 8.5 c 128,-1,7
 498 27 498 27 465 63 c 128,-1,8
 432 99 432 99 413.5 150.5 c 128,-1,9
 395 202 395 202 395 269 c 0,10,11
 395 358 395 358 425 419.5 c 128,-1,12
 455 481 455 481 511 513.5 c 128,-1,13
 567 546 567 546 644 546 c 0,14,15
 717 546 717 546 772.5 513.5 c 128,-1,16
 828 481 828 481 859.5 419.5 c 128,-1,17
 891 358 891 358 891 269 c 0,0,1
486 269 m 0,18,19
 486 206 486 206 502.5 159.5 c 128,-1,20
 519 113 519 113 554 88 c 128,-1,21
 589 63 589 63 643 63 c 256,22,23
 697 63 697 63 732 88 c 128,-1,24
 767 113 767 113 783.5 159.5 c 128,-1,25
 800 206 800 206 800 269 c 0,26,27
 800 333 800 333 783 378 c 128,-1,28
 766 423 766 423 731.5 447.5 c 128,-1,29
 697 472 697 472 642 472 c 0,30,31
 560 472 560 472 523 418 c 128,-1,32
 486 364 486 364 486 269 c 0,18,19
EndSplineSet
EndChar

StartChar: p
Encoding: 112 112 82
Width: 1286
Flags: W
AnchorPoint: "Anchor-0" 645.5 -24 basechar 0
LayerCount: 2
Fore
SplineSet
487.5 425 m 0,0,1
 458.5 425 458.5 425 432 436 c 128,-1,2
 405.5 447 405.5 447 383.5 477.5 c 128,-1,3
 361.5 508 361.5 508 345.5 564 c 1,4,-1
 428.5 591 l 1,5,6
 443.5 536 443.5 536 457.5 518 c 128,-1,7
 471.5 500 471.5 500 493.5 500 c 0,8,9
 513.5 500 513.5 500 531 512.5 c 128,-1,10
 548.5 525 548.5 525 580.5 565 c 2,11,-1
 611.5 605 l 2,12,13
 645.5 649 645.5 649 674 675 c 128,-1,14
 702.5 701 702.5 701 734.5 713 c 128,-1,15
 766.5 725 766.5 725 810.5 725 c 1,16,-1
 816.5 648 l 1,17,18
 781.5 646 781.5 646 758 637 c 128,-1,19
 734.5 628 734.5 628 715 608.5 c 128,-1,20
 695.5 589 695.5 589 669.5 556 c 2,21,-1
 646.5 526 l 2,22,23
 618.5 490 618.5 490 593.5 468 c 128,-1,24
 568.5 446 568.5 446 543 435.5 c 128,-1,25
 517.5 425 517.5 425 487.5 425 c 0,0,1
775.5 -12 m 0,26,27
 727.5 -12 727.5 -12 692 6 c 128,-1,28
 656.5 24 656.5 24 626.5 56 c 128,-1,29
 596.5 88 596.5 88 563.5 131 c 0,30,31
 534.5 171 534.5 171 513.5 189 c 128,-1,32
 492.5 207 492.5 207 462.5 207 c 0,33,34
 434.5 207 434.5 207 416 189 c 128,-1,35
 397.5 171 397.5 171 397.5 136 c 0,36,37
 397.5 105 397.5 105 417 84 c 128,-1,38
 436.5 63 436.5 63 470.5 63 c 256,39,40
 504.5 63 504.5 63 527 83 c 128,-1,41
 549.5 103 549.5 103 565.5 141 c 1,42,-1
 618.5 81 l 1,43,44
 599.5 54 599.5 54 578.5 33 c 128,-1,45
 557.5 12 557.5 12 531 0 c 128,-1,46
 504.5 -12 504.5 -12 465.5 -12 c 0,47,48
 412.5 -12 412.5 -12 380.5 10 c 128,-1,49
 348.5 32 348.5 32 334 66.5 c 128,-1,50
 319.5 101 319.5 101 319.5 138 c 0,51,52
 319.5 182 319.5 182 338.5 214 c 128,-1,53
 357.5 246 357.5 246 389.5 264 c 128,-1,54
 421.5 282 421.5 282 460.5 282 c 0,55,56
 496.5 282 496.5 282 524.5 269.5 c 128,-1,57
 552.5 257 552.5 257 579.5 230.5 c 128,-1,58
 606.5 204 606.5 204 638.5 161 c 0,59,60
 665.5 126 665.5 126 686.5 105 c 128,-1,61
 707.5 84 707.5 84 729.5 75.5 c 128,-1,62
 751.5 67 751.5 67 780.5 67 c 0,63,64
 830.5 67 830.5 67 857 99.5 c 128,-1,65
 883.5 132 883.5 132 883.5 193 c 0,66,67
 883.5 251 883.5 251 860.5 294.5 c 128,-1,68
 837.5 338 837.5 338 797.5 369.5 c 128,-1,69
 757.5 401 757.5 401 707.5 423 c 1,70,-1
 745.5 500 l 1,71,72
 807.5 474 807.5 474 857.5 430 c 128,-1,73
 907.5 386 907.5 386 937 327.5 c 128,-1,74
 966.5 269 966.5 269 966.5 198 c 0,75,76
 966.5 132 966.5 132 944 85 c 128,-1,77
 921.5 38 921.5 38 879 13 c 128,-1,78
 836.5 -12 836.5 -12 775.5 -12 c 0,26,27
EndSplineSet
EndChar

StartChar: q
Encoding: 113 113 83
Width: 1286
Flags: W
AnchorPoint: "Anchor-1" 605 765 basechar 0
AnchorPoint: "Anchor-0" 605 0 basechar 0
LayerCount: 2
Fore
SplineSet
544 765 m 0,0,1
 563 765 563 765 581 761 c 128,-1,2
 599 757 599 757 609 752 c 1,3,-1
 609 679 l 1,4,5
 602 682 602 682 588 685.5 c 128,-1,6
 574 689 574 689 557 689 c 0,7,8
 535 689 535 689 522.5 676 c 128,-1,9
 510 663 510 663 510 631 c 2,10,-1
 510 363 l 2,11,12
 510 347 510 347 509 321 c 128,-1,13
 508 295 508 295 506 276 c 1,14,-1
 510 276 l 1,15,16
 516 285 516 285 528 299.5 c 128,-1,17
 540 314 540 314 552.5 329.5 c 128,-1,18
 565 345 565 345 574 355 c 2,19,-1
 745 536 l 1,20,-1
 848 536 l 1,21,-1
 631 307 l 1,22,-1
 863 0 l 1,23,-1
 757 0 l 1,24,-1
 571 250 l 1,25,-1
 510 197 l 1,26,-1
 510 0 l 1,27,-1
 423 0 l 1,28,-1
 423 625 l 2,29,30
 423 765 423 765 544 765 c 0,0,1
EndSplineSet
EndChar

StartChar: r
Encoding: 114 114 84
Width: 1286
Flags: W
AnchorPoint: "Anchor-1" 921.5 -24 basechar 0
AnchorPoint: "Anchor-0" 624.5 -24 basechar 0
LayerCount: 2
Fore
SplineSet
593.5 425 m 0,0,1
 564.5 425 564.5 425 538 436 c 128,-1,2
 511.5 447 511.5 447 489.5 477.5 c 128,-1,3
 467.5 508 467.5 508 451.5 564 c 1,4,-1
 534.5 591 l 1,5,6
 549.5 536 549.5 536 563.5 518 c 128,-1,7
 577.5 500 577.5 500 599.5 500 c 0,8,9
 619.5 500 619.5 500 637 512.5 c 128,-1,10
 654.5 525 654.5 525 686.5 565 c 2,11,-1
 717.5 605 l 2,12,13
 751.5 649 751.5 649 780 675 c 128,-1,14
 808.5 701 808.5 701 840.5 713 c 128,-1,15
 872.5 725 872.5 725 916.5 725 c 1,16,-1
 922.5 648 l 1,17,18
 887.5 646 887.5 646 864 637 c 128,-1,19
 840.5 628 840.5 628 821 608.5 c 128,-1,20
 801.5 589 801.5 589 775.5 556 c 2,21,-1
 752.5 526 l 2,22,23
 724.5 490 724.5 490 699.5 468 c 128,-1,24
 674.5 446 674.5 446 649 435.5 c 128,-1,25
 623.5 425 623.5 425 593.5 425 c 0,0,1
363.5 236 m 0,26,27
 363.5 314 363.5 314 396.5 373.5 c 128,-1,28
 429.5 433 429.5 433 488 466.5 c 128,-1,29
 546.5 500 546.5 500 624.5 500 c 0,30,31
 703.5 500 703.5 500 762 467.5 c 128,-1,32
 820.5 435 820.5 435 853.5 376 c 128,-1,33
 886.5 317 886.5 317 886.5 237 c 0,34,35
 886.5 163 886.5 163 854.5 106.5 c 128,-1,36
 822.5 50 822.5 50 763.5 19 c 128,-1,37
 704.5 -12 704.5 -12 624.5 -12 c 0,38,39
 545.5 -12 545.5 -12 487 19 c 128,-1,40
 428.5 50 428.5 50 396 105.5 c 128,-1,41
 363.5 161 363.5 161 363.5 236 c 0,26,27
446.5 248 m 0,42,43
 446.5 167 446.5 167 491.5 117 c 128,-1,44
 536.5 67 536.5 67 624.5 67 c 0,45,46
 684.5 67 684.5 67 724 89.5 c 128,-1,47
 763.5 112 763.5 112 783.5 152 c 128,-1,48
 803.5 192 803.5 192 803.5 242 c 0,49,50
 803.5 293 803.5 293 784 334.5 c 128,-1,51
 764.5 376 764.5 376 725 400.5 c 128,-1,52
 685.5 425 685.5 425 624.5 425 c 256,53,54
 563.5 425 563.5 425 524 400.5 c 128,-1,55
 484.5 376 484.5 376 465.5 336 c 128,-1,56
 446.5 296 446.5 296 446.5 248 c 0,42,43
EndSplineSet
EndChar

StartChar: s
Encoding: 115 115 85
Width: 1286
Flags: W
AnchorPoint: "Anchor-1" 997 -24 basechar 0
AnchorPoint: "Anchor-0" 646 -24 basechar 0
LayerCount: 2
Fore
SplineSet
492 425 m 0,0,1
 463 425 463 425 436.5 436 c 128,-1,2
 410 447 410 447 388 477.5 c 128,-1,3
 366 508 366 508 350 564 c 1,4,-1
 433 591 l 1,5,6
 448 536 448 536 462 518 c 128,-1,7
 476 500 476 500 498 500 c 0,8,9
 518 500 518 500 535.5 512.5 c 128,-1,10
 553 525 553 525 585 565 c 2,11,-1
 616 605 l 2,12,13
 650 649 650 649 678.5 675 c 128,-1,14
 707 701 707 701 739 713 c 128,-1,15
 771 725 771 725 815 725 c 1,16,-1
 821 648 l 1,17,18
 786 646 786 646 762.5 637 c 128,-1,19
 739 628 739 628 719.5 608.5 c 128,-1,20
 700 589 700 589 674 556 c 2,21,-1
 651 526 l 2,22,23
 623 490 623 490 598 468 c 128,-1,24
 573 446 573 446 547.5 435.5 c 128,-1,25
 522 425 522 425 492 425 c 0,0,1
767 -12 m 0,26,27
 720 -12 720 -12 685 3.5 c 128,-1,28
 650 19 650 19 619 51.5 c 128,-1,29
 588 84 588 84 551 133 c 0,30,31
 530 162 530 162 515.5 178.5 c 128,-1,32
 501 195 501 195 488.5 202 c 128,-1,33
 476 209 476 209 459 209 c 0,34,35
 436 209 436 209 421 190.5 c 128,-1,36
 406 172 406 172 406 143 c 0,37,38
 406 108 406 108 418 77 c 128,-1,39
 430 46 430 46 454 14 c 1,40,-1
 373 -13 l 1,41,42
 351 22 351 22 337.5 59.5 c 128,-1,43
 324 97 324 97 324 143 c 0,44,45
 324 184 324 184 341.5 216 c 128,-1,46
 359 248 359 248 389.5 267 c 128,-1,47
 420 286 420 286 460 286 c 0,48,49
 499 286 499 286 525.5 272.5 c 128,-1,50
 552 259 552 259 574.5 234.5 c 128,-1,51
 597 210 597 210 623 175 c 0,52,53
 653 136 653 136 675 112.5 c 128,-1,54
 697 89 697 89 720 78 c 128,-1,55
 743 67 743 67 775 67 c 0,56,57
 825 67 825 67 852 99.5 c 128,-1,58
 879 132 879 132 879 193 c 0,59,60
 879 251 879 251 856 294.5 c 128,-1,61
 833 338 833 338 793 369.5 c 128,-1,62
 753 401 753 401 703 423 c 1,63,-1
 741 500 l 1,64,65
 803 474 803 474 853 430 c 128,-1,66
 903 386 903 386 932.5 327.5 c 128,-1,67
 962 269 962 269 962 198 c 0,68,69
 962 133 962 133 939.5 85.5 c 128,-1,70
 917 38 917 38 874 13 c 128,-1,71
 831 -12 831 -12 767 -12 c 0,26,27
EndSplineSet
EndChar

StartChar: t
Encoding: 116 116 86
Width: 1286
Flags: W
AnchorPoint: "Anchor-1" 1027 -24 basechar 0
AnchorPoint: "Anchor-0" 641 -24 basechar 0
LayerCount: 2
Fore
SplineSet
810 -12 m 0,0,1
 773 -12 773 -12 743 -2.5 c 128,-1,2
 713 7 713 7 688.5 29 c 128,-1,3
 664 51 664 51 642 90 c 1,4,-1
 663 91 l 1,5,6
 640 49 640 49 613 26.5 c 128,-1,7
 586 4 586 4 555.5 -4 c 128,-1,8
 525 -12 525 -12 491 -12 c 0,9,10
 443 -12 443 -12 406.5 5.5 c 128,-1,11
 370 23 370 23 345 55.5 c 128,-1,12
 320 88 320 88 307 133 c 128,-1,13
 294 178 294 178 294 232 c 0,14,15
 294 301 294 301 311.5 352 c 128,-1,16
 329 403 329 403 359 435.5 c 128,-1,17
 389 468 389 468 425.5 484 c 128,-1,18
 462 500 462 500 500 500 c 0,19,20
 543 500 543 500 573.5 484.5 c 128,-1,21
 604 469 604 469 620.5 440.5 c 128,-1,22
 637 412 637 412 637 373 c 0,23,24
 637 333 637 333 620.5 301.5 c 128,-1,25
 604 270 604 270 570 252.5 c 128,-1,26
 536 235 536 235 482 235 c 0,27,28
 449 235 449 235 419 246 c 128,-1,29
 389 257 389 257 366.5 273 c 128,-1,30
 344 289 344 289 331 304 c 1,31,-1
 355 366 l 1,32,33
 363 355 363 355 379.5 340.5 c 128,-1,34
 396 326 396 326 420.5 315.5 c 128,-1,35
 445 305 445 305 477 305 c 0,36,37
 517 305 517 305 537.5 322 c 128,-1,38
 558 339 558 339 558 369 c 0,39,40
 558 398 558 398 542 413.5 c 128,-1,41
 526 429 526 429 499 429 c 0,42,43
 464 429 464 429 435.5 407 c 128,-1,44
 407 385 407 385 390 343.5 c 128,-1,45
 373 302 373 302 373 242 c 2,46,-1
 373 234 l 2,47,48
 373 193 373 193 383.5 154.5 c 128,-1,49
 394 116 394 116 420.5 91.5 c 128,-1,50
 447 67 447 67 493 67 c 0,51,52
 532 67 532 67 557.5 81.5 c 128,-1,53
 583 96 583 96 596.5 123 c 128,-1,54
 610 150 610 150 613 185 c 1,55,-1
 691 185 l 1,56,57
 694 144 694 144 710 118 c 128,-1,58
 726 92 726 92 750 79.5 c 128,-1,59
 774 67 774 67 802 67 c 0,60,61
 857 67 857 67 883 99.5 c 128,-1,62
 909 132 909 132 909 193 c 0,63,64
 909 251 909 251 885.5 294.5 c 128,-1,65
 862 338 862 338 822.5 369.5 c 128,-1,66
 783 401 783 401 733 423 c 1,67,-1
 770 500 l 1,68,69
 832 474 832 474 882 430 c 128,-1,70
 932 386 932 386 962 328 c 128,-1,71
 992 270 992 270 992 199 c 0,72,73
 992 132 992 132 969.5 84.5 c 128,-1,74
 947 37 947 37 906.5 12.5 c 128,-1,75
 866 -12 866 -12 810 -12 c 0,0,1
537 624 m 1,76,-1
 530 478 l 1,77,-1
 454 478 l 1,78,-1
 447 624 l 1,79,-1
 537 624 l 1,76,-1
EndSplineSet
EndChar

StartChar: u
Encoding: 117 117 87
Width: 1286
Flags: W
LayerCount: 2
Fore
SplineSet
870 536 m 1,0,-1
 870 0 l 1,1,-1
 798 0 l 1,2,-1
 785 71 l 1,3,-1
 781 71 l 1,4,5
 764 43 764 43 737 25 c 128,-1,6
 710 7 710 7 678 -1.5 c 128,-1,7
 646 -10 646 -10 611 -10 c 0,8,9
 547 -10 547 -10 503.5 10.5 c 128,-1,10
 460 31 460 31 438 74 c 128,-1,11
 416 117 416 117 416 185 c 2,12,-1
 416 536 l 1,13,-1
 505 536 l 1,14,-1
 505 191 l 2,15,16
 505 127 505 127 534 95 c 128,-1,17
 563 63 563 63 624 63 c 0,18,19
 684 63 684 63 718.5 85.5 c 128,-1,20
 753 108 753 108 767.5 151.5 c 128,-1,21
 782 195 782 195 782 257 c 2,22,-1
 782 536 l 1,23,-1
 870 536 l 1,0,-1
EndSplineSet
EndChar

StartChar: v
Encoding: 118 118 88
Width: 1286
Flags: W
LayerCount: 2
Fore
SplineSet
592 0 m 1,0,-1
 389 536 l 1,1,-1
 483 536 l 1,2,-1
 597 220 l 2,3,4
 605 198 605 198 614 171 c 128,-1,5
 623 144 623 144 630 119.5 c 128,-1,6
 637 95 637 95 640 78 c 1,7,-1
 644 78 l 1,8,9
 648 95 648 95 655.5 120 c 128,-1,10
 663 145 663 145 672.5 172 c 128,-1,11
 682 199 682 199 689 220 c 2,12,-1
 803 536 l 1,13,-1
 897 536 l 1,14,-1
 693 0 l 1,15,-1
 592 0 l 1,0,-1
EndSplineSet
EndChar

StartChar: w
Encoding: 119 119 89
Width: 1286
Flags: W
AnchorPoint: "Anchor-1" 633.5 536 basechar 0
AnchorPoint: "Anchor-0" 632.5 0 basechar 0
LayerCount: 2
Fore
SplineSet
572.5 766 m 5,0,1
 583.5 744 583.5 744 600 716.5 c 132,-1,2
 616.5 689 616.5 689 635 663 c 132,-1,3
 653.5 637 653.5 637 668.5 618 c 5,4,-1
 668.5 606 l 5,5,-1
 609.5 606 l 5,6,7
 592.5 620 592.5 620 571.5 639.5 c 132,-1,8
 550.5 659 550.5 659 530 680.5 c 132,-1,9
 509.5 702 509.5 702 493 722 c 132,-1,10
 476.5 742 476.5 742 467.5 756 c 5,11,-1
 467.5 766 l 5,12,-1
 572.5 766 l 5,0,1
870.5 541 m 0,13,14
 882.5 541 882.5 541 892.5 539 c 128,-1,15
 902.5 537 902.5 537 911.5 535 c 1,16,-1
 911.5 467 l 1,17,18
 898.5 472 898.5 472 877.5 472 c 0,19,20
 855.5 472 855.5 472 841.5 452 c 128,-1,21
 827.5 432 827.5 432 813.5 390 c 2,22,-1
 690.5 0 l 1,23,-1
 573.5 0 l 1,24,-1
 374.5 536 l 1,25,-1
 466.5 536 l 1,26,-1
 593.5 181 l 2,27,28
 608.5 139 608.5 139 618.5 107.5 c 128,-1,29
 628.5 76 628.5 76 630.5 62 c 1,30,-1
 634.5 62 l 1,31,32
 638.5 83 638.5 83 646.5 119 c 128,-1,33
 654.5 155 654.5 155 665.5 189 c 2,34,-1
 735.5 407 l 2,35,36
 752.5 459 752.5 459 769 488 c 128,-1,37
 785.5 517 785.5 517 809 529 c 128,-1,38
 832.5 541 832.5 541 870.5 541 c 0,13,14
EndSplineSet
EndChar

StartChar: x
Encoding: 120 120 90
Width: 1286
Flags: W
LayerCount: 2
Fore
SplineSet
590.5 274 m 1,0,-1
 405.5 536 l 1,1,-1
 505.5 536 l 1,2,-1
 643.5 334 l 1,3,-1
 780.5 536 l 1,4,-1
 879.5 536 l 1,5,-1
 694.5 274 l 1,6,-1
 889.5 0 l 1,7,-1
 789.5 0 l 1,8,-1
 643.5 214 l 1,9,-1
 495.5 0 l 1,10,-1
 396.5 0 l 1,11,-1
 590.5 274 l 1,0,-1
EndSplineSet
EndChar

StartChar: y
Encoding: 121 121 91
Width: 1286
Flags: W
AnchorPoint: "Anchor-1" 1286 -24 basechar 0
AnchorPoint: "Anchor-0" 643 -24 basechar 0
LayerCount: 2
Fore
SplineSet
35 236 m 0,0,1
 35 314 35 314 68 373.5 c 128,-1,2
 101 433 101 433 159.5 466.5 c 128,-1,3
 218 500 218 500 296 500 c 0,4,5
 375 500 375 500 433.5 467.5 c 128,-1,6
 492 435 492 435 525 376 c 128,-1,7
 558 317 558 317 558 237 c 0,8,9
 558 163 558 163 526 106.5 c 128,-1,10
 494 50 494 50 435 19 c 128,-1,11
 376 -12 376 -12 296 -12 c 0,12,13
 217 -12 217 -12 158.5 19 c 128,-1,14
 100 50 100 50 67.5 105.5 c 128,-1,15
 35 161 35 161 35 236 c 0,0,1
118 245 m 0,16,17
 118 167 118 167 163 117 c 128,-1,18
 208 67 208 67 296 67 c 0,19,20
 356 67 356 67 395.5 89 c 128,-1,21
 435 111 435 111 455 150.5 c 128,-1,22
 475 190 475 190 475 240 c 256,23,24
 475 290 475 290 455.5 331 c 128,-1,25
 436 372 436 372 396.5 396.5 c 128,-1,26
 357 421 357 421 296 421 c 256,27,28
 235 421 235 421 195.5 396.5 c 128,-1,29
 156 372 156 372 137 332 c 128,-1,30
 118 292 118 292 118 245 c 0,16,17
709 -12 m 0,31,32
 642 -12 642 -12 591.5 22 c 128,-1,33
 541 56 541 56 502 111 c 1,34,-1
 542 176 l 1,35,36
 570 139 570 139 597.5 115 c 128,-1,37
 625 91 625 91 654.5 79 c 128,-1,38
 684 67 684 67 716 67 c 0,39,40
 767 67 767 67 794 99.5 c 128,-1,41
 821 132 821 132 821 193 c 0,42,43
 821 251 821 251 797.5 295 c 128,-1,44
 774 339 774 339 733.5 371 c 128,-1,45
 693 403 693 403 642 426 c 1,46,-1
 679 492 l 1,47,48
 741 466 741 466 792 422.5 c 128,-1,49
 843 379 843 379 873.5 322.5 c 128,-1,50
 904 266 904 266 904 199 c 0,51,52
 904 100 904 100 854 44 c 128,-1,53
 804 -12 804 -12 709 -12 c 0,31,32
1056 -12 m 0,54,55
 989 -12 989 -12 938.5 22 c 128,-1,56
 888 56 888 56 849 111 c 1,57,-1
 889 176 l 1,58,59
 917 139 917 139 944.5 115 c 128,-1,60
 972 91 972 91 1001.5 79 c 128,-1,61
 1031 67 1031 67 1063 67 c 0,62,63
 1114 67 1114 67 1141 99.5 c 128,-1,64
 1168 132 1168 132 1168 193 c 0,65,66
 1168 251 1168 251 1144.5 294.5 c 128,-1,67
 1121 338 1121 338 1081.5 369.5 c 128,-1,68
 1042 401 1042 401 992 423 c 1,69,-1
 1029 500 l 1,70,71
 1091 474 1091 474 1141 430 c 128,-1,72
 1191 386 1191 386 1221 328 c 128,-1,73
 1251 270 1251 270 1251 199 c 0,74,75
 1251 100 1251 100 1201 44 c 128,-1,76
 1151 -12 1151 -12 1056 -12 c 0,54,55
635 425 m 0,77,78
 606 425 606 425 579.5 436 c 128,-1,79
 553 447 553 447 531 477.5 c 128,-1,80
 509 508 509 508 493 564 c 1,81,-1
 576 591 l 1,82,83
 591 536 591 536 605 518 c 128,-1,84
 619 500 619 500 641 500 c 0,85,86
 661 500 661 500 678.5 512.5 c 128,-1,87
 696 525 696 525 728 565 c 2,88,-1
 759 605 l 2,89,90
 793 649 793 649 821.5 675 c 128,-1,91
 850 701 850 701 882 713 c 128,-1,92
 914 725 914 725 958 725 c 1,93,-1
 964 648 l 1,94,95
 929 646 929 646 905.5 637 c 128,-1,96
 882 628 882 628 862.5 608.5 c 128,-1,97
 843 589 843 589 817 556 c 2,98,-1
 794 526 l 2,99,100
 766 490 766 490 741 468 c 128,-1,101
 716 446 716 446 690.5 435.5 c 128,-1,102
 665 425 665 425 635 425 c 0,77,78
EndSplineSet
EndChar

StartChar: z
Encoding: 122 122 92
Width: 1286
Flags: W
LayerCount: 2
Fore
SplineSet
839 0 m 1,0,-1
 447 0 l 1,1,-1
 447 58 l 1,2,-1
 735 468 l 1,3,-1
 464 468 l 1,4,-1
 464 536 l 1,5,-1
 832 536 l 1,6,-1
 832 470 l 1,7,-1
 548 68 l 1,8,-1
 839 68 l 1,9,-1
 839 0 l 1,0,-1
EndSplineSet
EndChar

StartChar: at
Encoding: 64 64 93
Width: 1286
Flags: W
LayerCount: 2
Fore
SplineSet
1034.5 357 m 0,0,1
 1034.5 311 1034.5 311 1024 267 c 128,-1,2
 1013.5 223 1013.5 223 991.5 187.5 c 128,-1,3
 969.5 152 969.5 152 937.5 130.5 c 128,-1,4
 905.5 109 905.5 109 861.5 109 c 0,5,6
 815.5 109 815.5 109 789 135.5 c 128,-1,7
 762.5 162 762.5 162 756.5 196 c 1,8,-1
 751.5 196 l 1,9,10
 733.5 159 733.5 159 698.5 134 c 128,-1,11
 663.5 109 663.5 109 610.5 109 c 0,12,13
 534.5 109 534.5 109 493 160 c 128,-1,14
 451.5 211 451.5 211 451.5 295 c 0,15,16
 451.5 361 451.5 361 477.5 411.5 c 128,-1,17
 503.5 462 503.5 462 551 491 c 128,-1,18
 598.5 520 598.5 520 663.5 520 c 0,19,20
 707.5 520 707.5 520 750 512.5 c 128,-1,21
 792.5 505 792.5 505 816.5 496 c 1,22,-1
 806.5 293 l 2,23,24
 805.5 275 805.5 275 805.5 267.5 c 128,-1,25
 805.5 260 805.5 260 805.5 257 c 0,26,27
 805.5 205 805.5 205 824 188 c 128,-1,28
 842.5 171 842.5 171 867.5 171 c 0,29,30
 898.5 171 898.5 171 920 196.5 c 128,-1,31
 941.5 222 941.5 222 953 264.5 c 128,-1,32
 964.5 307 964.5 307 964.5 358 c 0,33,34
 964.5 451 964.5 451 927 515.5 c 128,-1,35
 889.5 580 889.5 580 824 614 c 128,-1,36
 758.5 648 758.5 648 675.5 648 c 0,37,38
 590.5 648 590.5 648 524.5 621 c 128,-1,39
 458.5 594 458.5 594 414 545 c 128,-1,40
 369.5 496 369.5 496 346.5 429.5 c 128,-1,41
 323.5 363 323.5 363 323.5 283 c 0,42,43
 323.5 185 323.5 185 358.5 116.5 c 128,-1,44
 393.5 48 393.5 48 461 12.5 c 128,-1,45
 528.5 -23 528.5 -23 626.5 -23 c 0,46,47
 687.5 -23 687.5 -23 743 -9.5 c 128,-1,48
 798.5 4 798.5 4 841.5 20 c 1,49,-1
 841.5 -48 l 1,50,51
 798.5 -66 798.5 -66 745 -77.5 c 128,-1,52
 691.5 -89 691.5 -89 626.5 -89 c 0,53,54
 508.5 -89 508.5 -89 424.5 -45 c 128,-1,55
 340.5 -1 340.5 -1 296 81.5 c 128,-1,56
 251.5 164 251.5 164 251.5 280 c 0,57,58
 251.5 373 251.5 373 280.5 452.5 c 128,-1,59
 309.5 532 309.5 532 364.5 590.5 c 128,-1,60
 419.5 649 419.5 649 498 681.5 c 128,-1,61
 576.5 714 576.5 714 675.5 714 c 0,62,63
 753.5 714 753.5 714 819 689.5 c 128,-1,64
 884.5 665 884.5 665 933 618.5 c 128,-1,65
 981.5 572 981.5 572 1008 506 c 128,-1,66
 1034.5 440 1034.5 440 1034.5 357 c 0,0,1
529.5 293 m 0,67,68
 529.5 229 529.5 229 555 200 c 128,-1,69
 580.5 171 580.5 171 623.5 171 c 0,70,71
 679.5 171 679.5 171 704 213 c 128,-1,72
 728.5 255 728.5 255 732.5 322 c 2,73,-1
 738.5 447 l 1,74,75
 725.5 451 725.5 451 705.5 454 c 128,-1,76
 685.5 457 685.5 457 664.5 457 c 0,77,78
 615.5 457 615.5 457 585.5 433 c 128,-1,79
 555.5 409 555.5 409 542.5 371.5 c 128,-1,80
 529.5 334 529.5 334 529.5 293 c 0,67,68
EndSplineSet
EndChar

StartChar: ampersand
Encoding: 38 38 94
Width: 1286
Flags: W
LayerCount: 2
Fore
SplineSet
555.5 725 m 0,0,1
 609.5 725 609.5 725 648 706.5 c 128,-1,2
 686.5 688 686.5 688 707.5 654 c 128,-1,3
 728.5 620 728.5 620 728.5 571 c 0,4,5
 728.5 508 728.5 508 688 464 c 128,-1,6
 647.5 420 647.5 420 585.5 384 c 1,7,-1
 778.5 198 l 1,8,9
 804.5 229 804.5 229 821 269.5 c 128,-1,10
 837.5 310 837.5 310 848.5 357 c 1,11,-1
 937.5 357 l 1,12,13
 921.5 293 921.5 293 897.5 238 c 128,-1,14
 873.5 183 873.5 183 835.5 142 c 1,15,-1
 981.5 0 l 1,16,-1
 862.5 0 l 1,17,-1
 775.5 84 l 1,18,19
 744.5 56 744.5 56 708.5 35 c 128,-1,20
 672.5 14 672.5 14 629 2 c 128,-1,21
 585.5 -10 585.5 -10 529.5 -10 c 0,22,23
 460.5 -10 460.5 -10 410 12.5 c 128,-1,24
 359.5 35 359.5 35 332 79 c 128,-1,25
 304.5 123 304.5 123 304.5 186 c 0,26,27
 304.5 237 304.5 237 323 274 c 128,-1,28
 341.5 311 341.5 311 376.5 340 c 128,-1,29
 411.5 369 411.5 369 458.5 396 c 1,30,31
 437.5 420 437.5 420 417.5 446 c 128,-1,32
 397.5 472 397.5 472 384.5 502.5 c 128,-1,33
 371.5 533 371.5 533 371.5 569 c 0,34,35
 371.5 618 371.5 618 393.5 653 c 128,-1,36
 415.5 688 415.5 688 457 706.5 c 128,-1,37
 498.5 725 498.5 725 555.5 725 c 0,0,1
511.5 341 m 1,38,39
 475.5 320 475.5 320 450 298.5 c 128,-1,40
 424.5 277 424.5 277 410.5 251 c 128,-1,41
 396.5 225 396.5 225 396.5 189 c 0,42,43
 396.5 134 396.5 134 433.5 101 c 128,-1,44
 470.5 68 470.5 68 532.5 68 c 0,45,46
 596.5 68 596.5 68 642.5 89 c 128,-1,47
 688.5 110 688.5 110 719.5 139 c 1,48,-1
 511.5 341 l 1,38,39
552.5 653 m 0,49,50
 510.5 653 510.5 653 484 631 c 128,-1,51
 457.5 609 457.5 609 457.5 570 c 0,52,53
 457.5 534 457.5 534 476.5 503.5 c 128,-1,54
 495.5 473 495.5 473 531.5 436 c 1,55,56
 590.5 470 590.5 470 616 500.5 c 128,-1,57
 641.5 531 641.5 531 641.5 571 c 0,58,59
 641.5 607 641.5 607 617.5 630 c 128,-1,60
 593.5 653 593.5 653 552.5 653 c 0,49,50
EndSplineSet
EndChar

StartChar: dollar
Encoding: 36 36 95
Width: 1286
Flags: W
LayerCount: 2
Fore
SplineSet
607 49 m 1,0,1
 552 50 552 50 500 58.5 c 128,-1,2
 448 67 448 67 416 82 c 1,3,-1
 416 167 l 1,4,5
 450 151 450 151 503 139 c 128,-1,6
 556 127 556 127 607 126 c 1,7,-1
 607 328 l 1,8,9
 541 346 541 346 499 369.5 c 128,-1,10
 457 393 457 393 436.5 427 c 128,-1,11
 416 461 416 461 416 508 c 0,12,13
 416 557 416 557 439.5 592 c 128,-1,14
 463 627 463 627 506 647.5 c 128,-1,15
 549 668 549 668 607 671 c 1,16,-1
 607 759 l 1,17,-1
 671 759 l 1,18,-1
 671 672 l 1,19,20
 724 671 724 671 767.5 660.5 c 128,-1,21
 811 650 811 650 847 635 c 1,22,-1
 820 561 l 1,23,24
 788 574 788 574 749.5 583.5 c 128,-1,25
 711 593 711 593 671 596 c 1,26,-1
 671 395 l 1,27,28
 737 376 737 376 781 354.5 c 128,-1,29
 825 333 825 333 847.5 301.5 c 128,-1,30
 870 270 870 270 870 220 c 0,31,32
 870 150 870 150 818 106.5 c 128,-1,33
 766 63 766 63 671 53 c 1,34,-1
 671 -58 l 1,35,-1
 607 -58 l 1,36,-1
 607 49 l 1,0,1
671 131 m 1,37,38
 730 137 730 137 757 158.5 c 128,-1,39
 784 180 784 180 784 214 c 0,40,41
 784 239 784 239 774 255.5 c 128,-1,42
 764 272 764 272 739.5 284 c 128,-1,43
 715 296 715 296 671 307 c 1,44,-1
 671 131 l 1,37,38
607 594 m 1,45,46
 571 592 571 592 548 581.5 c 128,-1,47
 525 571 525 571 513.5 554 c 128,-1,48
 502 537 502 537 502 515 c 0,49,50
 502 489 502 489 511.5 470.5 c 128,-1,51
 521 452 521 452 544 439.5 c 128,-1,52
 567 427 567 427 607 417 c 1,53,-1
 607 594 l 1,45,46
EndSplineSet
EndChar

StartChar: grave
Encoding: 96 96 96
Width: 1286
Flags: W
LayerCount: 2
Fore
SplineSet
647.5 766 m 1,0,1
 658.5 744 658.5 744 675 716.5 c 128,-1,2
 691.5 689 691.5 689 710 663 c 128,-1,3
 728.5 637 728.5 637 743.5 618 c 1,4,-1
 743.5 606 l 1,5,-1
 684.5 606 l 1,6,7
 667.5 620 667.5 620 646.5 639.5 c 128,-1,8
 625.5 659 625.5 659 605 680.5 c 128,-1,9
 584.5 702 584.5 702 568 722 c 128,-1,10
 551.5 742 551.5 742 542.5 756 c 1,11,-1
 542.5 766 l 1,12,-1
 647.5 766 l 1,0,1
EndSplineSet
EndChar

StartChar: uni0080
Encoding: 128 128 97
Width: 1286
Flags: W
LayerCount: 2
Fore
SplineSet
437.5 85 m 0,0,1
 437.5 103 437.5 103 453 118 c 128,-1,2
 468.5 133 468.5 133 496.5 144.5 c 128,-1,3
 524.5 156 524.5 156 562 162.5 c 128,-1,4
 599.5 169 599.5 169 642.5 169 c 0,5,6
 686.5 169 686.5 169 724 162.5 c 128,-1,7
 761.5 156 761.5 156 789 144.5 c 128,-1,8
 816.5 133 816.5 133 832.5 118 c 128,-1,9
 848.5 103 848.5 103 848.5 85 c 0,10,11
 848.5 68 848.5 68 832.5 53 c 128,-1,12
 816.5 38 816.5 38 789 27 c 128,-1,13
 761.5 16 761.5 16 724 9.5 c 128,-1,14
 686.5 3 686.5 3 642.5 3 c 0,15,16
 599.5 3 599.5 3 562 9.5 c 128,-1,17
 524.5 16 524.5 16 496.5 27 c 128,-1,18
 468.5 38 468.5 38 453 53 c 128,-1,19
 437.5 68 437.5 68 437.5 85 c 0,0,1
517.5 85 m 256,20,21
 517.5 74 517.5 74 527 64.5 c 128,-1,22
 536.5 55 536.5 55 553.5 48.5 c 128,-1,23
 570.5 42 570.5 42 593.5 38 c 128,-1,24
 616.5 34 616.5 34 642.5 34 c 0,25,26
 669.5 34 669.5 34 692 38 c 128,-1,27
 714.5 42 714.5 42 731.5 48.5 c 128,-1,28
 748.5 55 748.5 55 758 64.5 c 128,-1,29
 767.5 74 767.5 74 767.5 85 c 256,30,31
 767.5 96 767.5 96 758 105.5 c 128,-1,32
 748.5 115 748.5 115 731.5 122 c 128,-1,33
 714.5 129 714.5 129 692 133 c 128,-1,34
 669.5 137 669.5 137 642.5 137 c 0,35,36
 616.5 137 616.5 137 593.5 133 c 128,-1,37
 570.5 129 570.5 129 553.5 122 c 128,-1,38
 536.5 115 536.5 115 527 105.5 c 128,-1,39
 517.5 96 517.5 96 517.5 85 c 256,20,21
437.5 272 m 0,40,41
 437.5 290 437.5 290 453 305 c 128,-1,42
 468.5 320 468.5 320 496.5 331.5 c 128,-1,43
 524.5 343 524.5 343 562 349 c 128,-1,44
 599.5 355 599.5 355 642.5 355 c 0,45,46
 686.5 355 686.5 355 724 349 c 128,-1,47
 761.5 343 761.5 343 789 331.5 c 128,-1,48
 816.5 320 816.5 320 832.5 305 c 128,-1,49
 848.5 290 848.5 290 848.5 272 c 0,50,51
 848.5 255 848.5 255 832.5 240 c 128,-1,52
 816.5 225 816.5 225 789 214 c 128,-1,53
 761.5 203 761.5 203 724 196 c 128,-1,54
 686.5 189 686.5 189 642.5 189 c 0,55,56
 599.5 189 599.5 189 562 196 c 128,-1,57
 524.5 203 524.5 203 496.5 214 c 128,-1,58
 468.5 225 468.5 225 453 240 c 128,-1,59
 437.5 255 437.5 255 437.5 272 c 0,40,41
517.5 272 m 256,60,61
 517.5 261 517.5 261 527 251.5 c 128,-1,62
 536.5 242 536.5 242 553.5 235 c 128,-1,63
 570.5 228 570.5 228 593.5 224 c 128,-1,64
 616.5 220 616.5 220 642.5 220 c 0,65,66
 669.5 220 669.5 220 692 224 c 128,-1,67
 714.5 228 714.5 228 731.5 235 c 128,-1,68
 748.5 242 748.5 242 758 251.5 c 128,-1,69
 767.5 261 767.5 261 767.5 272 c 256,70,71
 767.5 283 767.5 283 758 292.5 c 128,-1,72
 748.5 302 748.5 302 731.5 309 c 128,-1,73
 714.5 316 714.5 316 692 320 c 128,-1,74
 669.5 324 669.5 324 642.5 324 c 0,75,76
 616.5 324 616.5 324 593.5 320 c 128,-1,77
 570.5 316 570.5 316 553.5 309 c 128,-1,78
 536.5 302 536.5 302 527 292.5 c 128,-1,79
 517.5 283 517.5 283 517.5 272 c 256,60,61
437.5 461 m 256,80,81
 437.5 478 437.5 478 453 493.5 c 128,-1,82
 468.5 509 468.5 509 496.5 520 c 128,-1,83
 524.5 531 524.5 531 562 537.5 c 128,-1,84
 599.5 544 599.5 544 642.5 544 c 0,85,86
 686.5 544 686.5 544 724 537.5 c 128,-1,87
 761.5 531 761.5 531 789 520 c 128,-1,88
 816.5 509 816.5 509 832.5 493.5 c 128,-1,89
 848.5 478 848.5 478 848.5 461 c 256,90,91
 848.5 444 848.5 444 832.5 429 c 128,-1,92
 816.5 414 816.5 414 789 402.5 c 128,-1,93
 761.5 391 761.5 391 724 384.5 c 128,-1,94
 686.5 378 686.5 378 642.5 378 c 0,95,96
 599.5 378 599.5 378 562 384.5 c 128,-1,97
 524.5 391 524.5 391 496.5 402.5 c 128,-1,98
 468.5 414 468.5 414 453 429 c 128,-1,99
 437.5 444 437.5 444 437.5 461 c 256,80,81
517.5 461 m 256,100,101
 517.5 450 517.5 450 527 440.5 c 128,-1,102
 536.5 431 536.5 431 553.5 424 c 128,-1,103
 570.5 417 570.5 417 593.5 413 c 128,-1,104
 616.5 409 616.5 409 642.5 409 c 0,105,106
 669.5 409 669.5 409 692 413 c 128,-1,107
 714.5 417 714.5 417 731.5 424 c 128,-1,108
 748.5 431 748.5 431 758 440.5 c 128,-1,109
 767.5 450 767.5 450 767.5 461 c 256,110,111
 767.5 472 767.5 472 758 481.5 c 128,-1,112
 748.5 491 748.5 491 731.5 498 c 128,-1,113
 714.5 505 714.5 505 692 509 c 128,-1,114
 669.5 513 669.5 513 642.5 513 c 0,115,116
 616.5 513 616.5 513 593.5 509 c 128,-1,117
 570.5 505 570.5 505 553.5 498 c 128,-1,118
 536.5 491 536.5 491 527 481.5 c 128,-1,119
 517.5 472 517.5 472 517.5 461 c 256,100,101
437.5 648 m 256,120,121
 437.5 665 437.5 665 453 680.5 c 128,-1,122
 468.5 696 468.5 696 496.5 707 c 128,-1,123
 524.5 718 524.5 718 562 724.5 c 128,-1,124
 599.5 731 599.5 731 642.5 731 c 0,125,126
 686.5 731 686.5 731 724 724.5 c 128,-1,127
 761.5 718 761.5 718 789 707 c 128,-1,128
 816.5 696 816.5 696 832.5 680.5 c 128,-1,129
 848.5 665 848.5 665 848.5 648 c 256,130,131
 848.5 631 848.5 631 832.5 616 c 128,-1,132
 816.5 601 816.5 601 789 589.5 c 128,-1,133
 761.5 578 761.5 578 724 571.5 c 128,-1,134
 686.5 565 686.5 565 642.5 565 c 0,135,136
 599.5 565 599.5 565 562 571.5 c 128,-1,137
 524.5 578 524.5 578 496.5 589.5 c 128,-1,138
 468.5 601 468.5 601 453 616 c 128,-1,139
 437.5 631 437.5 631 437.5 648 c 256,120,121
517.5 648 m 0,140,141
 517.5 637 517.5 637 527 627.5 c 128,-1,142
 536.5 618 536.5 618 553.5 611 c 128,-1,143
 570.5 604 570.5 604 593.5 600 c 128,-1,144
 616.5 596 616.5 596 642.5 596 c 0,145,146
 669.5 596 669.5 596 692 600 c 128,-1,147
 714.5 604 714.5 604 731.5 611 c 128,-1,148
 748.5 618 748.5 618 758 627.5 c 128,-1,149
 767.5 637 767.5 637 767.5 648 c 0,150,151
 767.5 658 767.5 658 758 668 c 128,-1,152
 748.5 678 748.5 678 731.5 685 c 128,-1,153
 714.5 692 714.5 692 692 696 c 128,-1,154
 669.5 700 669.5 700 642.5 700 c 0,155,156
 616.5 700 616.5 700 593.5 696 c 128,-1,157
 570.5 692 570.5 692 553.5 685 c 128,-1,158
 536.5 678 536.5 678 527 668 c 128,-1,159
 517.5 658 517.5 658 517.5 648 c 0,140,141
EndSplineSet
EndChar

StartChar: uni0081
Encoding: 129 129 98
Width: 1286
Flags: W
LayerCount: 2
Fore
SplineSet
437.5 85 m 0,0,1
 437.5 103 437.5 103 453 118 c 128,-1,2
 468.5 133 468.5 133 496.5 144.5 c 128,-1,3
 524.5 156 524.5 156 562 162.5 c 128,-1,4
 599.5 169 599.5 169 642.5 169 c 0,5,6
 686.5 169 686.5 169 724 162.5 c 128,-1,7
 761.5 156 761.5 156 789 144.5 c 128,-1,8
 816.5 133 816.5 133 832.5 118 c 128,-1,9
 848.5 103 848.5 103 848.5 85 c 0,10,11
 848.5 68 848.5 68 832.5 53 c 128,-1,12
 816.5 38 816.5 38 789 27 c 128,-1,13
 761.5 16 761.5 16 724 9.5 c 128,-1,14
 686.5 3 686.5 3 642.5 3 c 0,15,16
 599.5 3 599.5 3 562 9.5 c 128,-1,17
 524.5 16 524.5 16 496.5 27 c 128,-1,18
 468.5 38 468.5 38 453 53 c 128,-1,19
 437.5 68 437.5 68 437.5 85 c 0,0,1
437.5 272 m 0,20,21
 437.5 290 437.5 290 453 305 c 128,-1,22
 468.5 320 468.5 320 496.5 331.5 c 128,-1,23
 524.5 343 524.5 343 562 349 c 128,-1,24
 599.5 355 599.5 355 642.5 355 c 0,25,26
 686.5 355 686.5 355 724 349 c 128,-1,27
 761.5 343 761.5 343 789 331.5 c 128,-1,28
 816.5 320 816.5 320 832.5 305 c 128,-1,29
 848.5 290 848.5 290 848.5 272 c 0,30,31
 848.5 255 848.5 255 832.5 240 c 128,-1,32
 816.5 225 816.5 225 789 214 c 128,-1,33
 761.5 203 761.5 203 724 196 c 128,-1,34
 686.5 189 686.5 189 642.5 189 c 0,35,36
 599.5 189 599.5 189 562 196 c 128,-1,37
 524.5 203 524.5 203 496.5 214 c 128,-1,38
 468.5 225 468.5 225 453 240 c 128,-1,39
 437.5 255 437.5 255 437.5 272 c 0,20,21
517.5 272 m 256,40,41
 517.5 261 517.5 261 527 251.5 c 128,-1,42
 536.5 242 536.5 242 553.5 235 c 128,-1,43
 570.5 228 570.5 228 593.5 224 c 128,-1,44
 616.5 220 616.5 220 642.5 220 c 0,45,46
 669.5 220 669.5 220 692 224 c 128,-1,47
 714.5 228 714.5 228 731.5 235 c 128,-1,48
 748.5 242 748.5 242 758 251.5 c 128,-1,49
 767.5 261 767.5 261 767.5 272 c 256,50,51
 767.5 283 767.5 283 758 292.5 c 128,-1,52
 748.5 302 748.5 302 731.5 309 c 128,-1,53
 714.5 316 714.5 316 692 320 c 128,-1,54
 669.5 324 669.5 324 642.5 324 c 0,55,56
 616.5 324 616.5 324 593.5 320 c 128,-1,57
 570.5 316 570.5 316 553.5 309 c 128,-1,58
 536.5 302 536.5 302 527 292.5 c 128,-1,59
 517.5 283 517.5 283 517.5 272 c 256,40,41
437.5 461 m 256,60,61
 437.5 478 437.5 478 453 493.5 c 128,-1,62
 468.5 509 468.5 509 496.5 520 c 128,-1,63
 524.5 531 524.5 531 562 537.5 c 128,-1,64
 599.5 544 599.5 544 642.5 544 c 0,65,66
 686.5 544 686.5 544 724 537.5 c 128,-1,67
 761.5 531 761.5 531 789 520 c 128,-1,68
 816.5 509 816.5 509 832.5 493.5 c 128,-1,69
 848.5 478 848.5 478 848.5 461 c 256,70,71
 848.5 444 848.5 444 832.5 429 c 128,-1,72
 816.5 414 816.5 414 789 402.5 c 128,-1,73
 761.5 391 761.5 391 724 384.5 c 128,-1,74
 686.5 378 686.5 378 642.5 378 c 0,75,76
 599.5 378 599.5 378 562 384.5 c 128,-1,77
 524.5 391 524.5 391 496.5 402.5 c 128,-1,78
 468.5 414 468.5 414 453 429 c 128,-1,79
 437.5 444 437.5 444 437.5 461 c 256,60,61
517.5 461 m 256,80,81
 517.5 450 517.5 450 527 440.5 c 128,-1,82
 536.5 431 536.5 431 553.5 424 c 128,-1,83
 570.5 417 570.5 417 593.5 413 c 128,-1,84
 616.5 409 616.5 409 642.5 409 c 0,85,86
 669.5 409 669.5 409 692 413 c 128,-1,87
 714.5 417 714.5 417 731.5 424 c 128,-1,88
 748.5 431 748.5 431 758 440.5 c 128,-1,89
 767.5 450 767.5 450 767.5 461 c 256,90,91
 767.5 472 767.5 472 758 481.5 c 128,-1,92
 748.5 491 748.5 491 731.5 498 c 128,-1,93
 714.5 505 714.5 505 692 509 c 128,-1,94
 669.5 513 669.5 513 642.5 513 c 0,95,96
 616.5 513 616.5 513 593.5 509 c 128,-1,97
 570.5 505 570.5 505 553.5 498 c 128,-1,98
 536.5 491 536.5 491 527 481.5 c 128,-1,99
 517.5 472 517.5 472 517.5 461 c 256,80,81
437.5 648 m 256,100,101
 437.5 665 437.5 665 453 680.5 c 128,-1,102
 468.5 696 468.5 696 496.5 707 c 128,-1,103
 524.5 718 524.5 718 562 724.5 c 128,-1,104
 599.5 731 599.5 731 642.5 731 c 0,105,106
 686.5 731 686.5 731 724 724.5 c 128,-1,107
 761.5 718 761.5 718 789 707 c 128,-1,108
 816.5 696 816.5 696 832.5 680.5 c 128,-1,109
 848.5 665 848.5 665 848.5 648 c 256,110,111
 848.5 631 848.5 631 832.5 616 c 128,-1,112
 816.5 601 816.5 601 789 589.5 c 128,-1,113
 761.5 578 761.5 578 724 571.5 c 128,-1,114
 686.5 565 686.5 565 642.5 565 c 0,115,116
 599.5 565 599.5 565 562 571.5 c 128,-1,117
 524.5 578 524.5 578 496.5 589.5 c 128,-1,118
 468.5 601 468.5 601 453 616 c 128,-1,119
 437.5 631 437.5 631 437.5 648 c 256,100,101
517.5 648 m 0,120,121
 517.5 637 517.5 637 527 627.5 c 128,-1,122
 536.5 618 536.5 618 553.5 611 c 128,-1,123
 570.5 604 570.5 604 593.5 600 c 128,-1,124
 616.5 596 616.5 596 642.5 596 c 0,125,126
 669.5 596 669.5 596 692 600 c 128,-1,127
 714.5 604 714.5 604 731.5 611 c 128,-1,128
 748.5 618 748.5 618 758 627.5 c 128,-1,129
 767.5 637 767.5 637 767.5 648 c 0,130,131
 767.5 658 767.5 658 758 668 c 128,-1,132
 748.5 678 748.5 678 731.5 685 c 128,-1,133
 714.5 692 714.5 692 692 696 c 128,-1,134
 669.5 700 669.5 700 642.5 700 c 0,135,136
 616.5 700 616.5 700 593.5 696 c 128,-1,137
 570.5 692 570.5 692 553.5 685 c 128,-1,138
 536.5 678 536.5 678 527 668 c 128,-1,139
 517.5 658 517.5 658 517.5 648 c 0,120,121
EndSplineSet
EndChar

StartChar: uni0082
Encoding: 130 130 99
Width: 1286
Flags: W
LayerCount: 2
Fore
SplineSet
437.5 85 m 0,0,1
 437.5 103 437.5 103 453 118 c 128,-1,2
 468.5 133 468.5 133 496.5 144.5 c 128,-1,3
 524.5 156 524.5 156 562 162.5 c 128,-1,4
 599.5 169 599.5 169 642.5 169 c 0,5,6
 686.5 169 686.5 169 724 162.5 c 128,-1,7
 761.5 156 761.5 156 789 144.5 c 128,-1,8
 816.5 133 816.5 133 832.5 118 c 128,-1,9
 848.5 103 848.5 103 848.5 85 c 0,10,11
 848.5 68 848.5 68 832.5 53 c 128,-1,12
 816.5 38 816.5 38 789 27 c 128,-1,13
 761.5 16 761.5 16 724 9.5 c 128,-1,14
 686.5 3 686.5 3 642.5 3 c 0,15,16
 599.5 3 599.5 3 562 9.5 c 128,-1,17
 524.5 16 524.5 16 496.5 27 c 128,-1,18
 468.5 38 468.5 38 453 53 c 128,-1,19
 437.5 68 437.5 68 437.5 85 c 0,0,1
517.5 85 m 256,20,21
 517.5 74 517.5 74 527 64.5 c 128,-1,22
 536.5 55 536.5 55 553.5 48.5 c 128,-1,23
 570.5 42 570.5 42 593.5 38 c 128,-1,24
 616.5 34 616.5 34 642.5 34 c 0,25,26
 669.5 34 669.5 34 692 38 c 128,-1,27
 714.5 42 714.5 42 731.5 48.5 c 128,-1,28
 748.5 55 748.5 55 758 64.5 c 128,-1,29
 767.5 74 767.5 74 767.5 85 c 256,30,31
 767.5 96 767.5 96 758 105.5 c 128,-1,32
 748.5 115 748.5 115 731.5 122 c 128,-1,33
 714.5 129 714.5 129 692 133 c 128,-1,34
 669.5 137 669.5 137 642.5 137 c 0,35,36
 616.5 137 616.5 137 593.5 133 c 128,-1,37
 570.5 129 570.5 129 553.5 122 c 128,-1,38
 536.5 115 536.5 115 527 105.5 c 128,-1,39
 517.5 96 517.5 96 517.5 85 c 256,20,21
437.5 272 m 0,40,41
 437.5 290 437.5 290 453 305 c 128,-1,42
 468.5 320 468.5 320 496.5 331.5 c 128,-1,43
 524.5 343 524.5 343 562 349 c 128,-1,44
 599.5 355 599.5 355 642.5 355 c 0,45,46
 686.5 355 686.5 355 724 349 c 128,-1,47
 761.5 343 761.5 343 789 331.5 c 128,-1,48
 816.5 320 816.5 320 832.5 305 c 128,-1,49
 848.5 290 848.5 290 848.5 272 c 0,50,51
 848.5 255 848.5 255 832.5 240 c 128,-1,52
 816.5 225 816.5 225 789 214 c 128,-1,53
 761.5 203 761.5 203 724 196 c 128,-1,54
 686.5 189 686.5 189 642.5 189 c 0,55,56
 599.5 189 599.5 189 562 196 c 128,-1,57
 524.5 203 524.5 203 496.5 214 c 128,-1,58
 468.5 225 468.5 225 453 240 c 128,-1,59
 437.5 255 437.5 255 437.5 272 c 0,40,41
437.5 461 m 256,60,61
 437.5 478 437.5 478 453 493.5 c 128,-1,62
 468.5 509 468.5 509 496.5 520 c 128,-1,63
 524.5 531 524.5 531 562 537.5 c 128,-1,64
 599.5 544 599.5 544 642.5 544 c 0,65,66
 686.5 544 686.5 544 724 537.5 c 128,-1,67
 761.5 531 761.5 531 789 520 c 128,-1,68
 816.5 509 816.5 509 832.5 493.5 c 128,-1,69
 848.5 478 848.5 478 848.5 461 c 256,70,71
 848.5 444 848.5 444 832.5 429 c 128,-1,72
 816.5 414 816.5 414 789 402.5 c 128,-1,73
 761.5 391 761.5 391 724 384.5 c 128,-1,74
 686.5 378 686.5 378 642.5 378 c 0,75,76
 599.5 378 599.5 378 562 384.5 c 128,-1,77
 524.5 391 524.5 391 496.5 402.5 c 128,-1,78
 468.5 414 468.5 414 453 429 c 128,-1,79
 437.5 444 437.5 444 437.5 461 c 256,60,61
517.5 461 m 256,80,81
 517.5 450 517.5 450 527 440.5 c 128,-1,82
 536.5 431 536.5 431 553.5 424 c 128,-1,83
 570.5 417 570.5 417 593.5 413 c 128,-1,84
 616.5 409 616.5 409 642.5 409 c 0,85,86
 669.5 409 669.5 409 692 413 c 128,-1,87
 714.5 417 714.5 417 731.5 424 c 128,-1,88
 748.5 431 748.5 431 758 440.5 c 128,-1,89
 767.5 450 767.5 450 767.5 461 c 256,90,91
 767.5 472 767.5 472 758 481.5 c 128,-1,92
 748.5 491 748.5 491 731.5 498 c 128,-1,93
 714.5 505 714.5 505 692 509 c 128,-1,94
 669.5 513 669.5 513 642.5 513 c 0,95,96
 616.5 513 616.5 513 593.5 509 c 128,-1,97
 570.5 505 570.5 505 553.5 498 c 128,-1,98
 536.5 491 536.5 491 527 481.5 c 128,-1,99
 517.5 472 517.5 472 517.5 461 c 256,80,81
437.5 648 m 256,100,101
 437.5 665 437.5 665 453 680.5 c 128,-1,102
 468.5 696 468.5 696 496.5 707 c 128,-1,103
 524.5 718 524.5 718 562 724.5 c 128,-1,104
 599.5 731 599.5 731 642.5 731 c 0,105,106
 686.5 731 686.5 731 724 724.5 c 128,-1,107
 761.5 718 761.5 718 789 707 c 128,-1,108
 816.5 696 816.5 696 832.5 680.5 c 128,-1,109
 848.5 665 848.5 665 848.5 648 c 256,110,111
 848.5 631 848.5 631 832.5 616 c 128,-1,112
 816.5 601 816.5 601 789 589.5 c 128,-1,113
 761.5 578 761.5 578 724 571.5 c 128,-1,114
 686.5 565 686.5 565 642.5 565 c 0,115,116
 599.5 565 599.5 565 562 571.5 c 128,-1,117
 524.5 578 524.5 578 496.5 589.5 c 128,-1,118
 468.5 601 468.5 601 453 616 c 128,-1,119
 437.5 631 437.5 631 437.5 648 c 256,100,101
517.5 648 m 0,120,121
 517.5 637 517.5 637 527 627.5 c 128,-1,122
 536.5 618 536.5 618 553.5 611 c 128,-1,123
 570.5 604 570.5 604 593.5 600 c 128,-1,124
 616.5 596 616.5 596 642.5 596 c 0,125,126
 669.5 596 669.5 596 692 600 c 128,-1,127
 714.5 604 714.5 604 731.5 611 c 128,-1,128
 748.5 618 748.5 618 758 627.5 c 128,-1,129
 767.5 637 767.5 637 767.5 648 c 0,130,131
 767.5 658 767.5 658 758 668 c 128,-1,132
 748.5 678 748.5 678 731.5 685 c 128,-1,133
 714.5 692 714.5 692 692 696 c 128,-1,134
 669.5 700 669.5 700 642.5 700 c 0,135,136
 616.5 700 616.5 700 593.5 696 c 128,-1,137
 570.5 692 570.5 692 553.5 685 c 128,-1,138
 536.5 678 536.5 678 527 668 c 128,-1,139
 517.5 658 517.5 658 517.5 648 c 0,120,121
EndSplineSet
EndChar

StartChar: uni0083
Encoding: 131 131 100
Width: 1286
Flags: W
LayerCount: 2
Fore
SplineSet
437.5 85 m 0,0,1
 437.5 103 437.5 103 453 118 c 128,-1,2
 468.5 133 468.5 133 496.5 144.5 c 128,-1,3
 524.5 156 524.5 156 562 162.5 c 128,-1,4
 599.5 169 599.5 169 642.5 169 c 0,5,6
 686.5 169 686.5 169 724 162.5 c 128,-1,7
 761.5 156 761.5 156 789 144.5 c 128,-1,8
 816.5 133 816.5 133 832.5 118 c 128,-1,9
 848.5 103 848.5 103 848.5 85 c 0,10,11
 848.5 68 848.5 68 832.5 53 c 128,-1,12
 816.5 38 816.5 38 789 27 c 128,-1,13
 761.5 16 761.5 16 724 9.5 c 128,-1,14
 686.5 3 686.5 3 642.5 3 c 0,15,16
 599.5 3 599.5 3 562 9.5 c 128,-1,17
 524.5 16 524.5 16 496.5 27 c 128,-1,18
 468.5 38 468.5 38 453 53 c 128,-1,19
 437.5 68 437.5 68 437.5 85 c 0,0,1
437.5 272 m 0,20,21
 437.5 290 437.5 290 453 305 c 128,-1,22
 468.5 320 468.5 320 496.5 331.5 c 128,-1,23
 524.5 343 524.5 343 562 349 c 128,-1,24
 599.5 355 599.5 355 642.5 355 c 0,25,26
 686.5 355 686.5 355 724 349 c 128,-1,27
 761.5 343 761.5 343 789 331.5 c 128,-1,28
 816.5 320 816.5 320 832.5 305 c 128,-1,29
 848.5 290 848.5 290 848.5 272 c 0,30,31
 848.5 255 848.5 255 832.5 240 c 128,-1,32
 816.5 225 816.5 225 789 214 c 128,-1,33
 761.5 203 761.5 203 724 196 c 128,-1,34
 686.5 189 686.5 189 642.5 189 c 0,35,36
 599.5 189 599.5 189 562 196 c 128,-1,37
 524.5 203 524.5 203 496.5 214 c 128,-1,38
 468.5 225 468.5 225 453 240 c 128,-1,39
 437.5 255 437.5 255 437.5 272 c 0,20,21
437.5 461 m 256,40,41
 437.5 478 437.5 478 453 493.5 c 128,-1,42
 468.5 509 468.5 509 496.5 520 c 128,-1,43
 524.5 531 524.5 531 562 537.5 c 128,-1,44
 599.5 544 599.5 544 642.5 544 c 0,45,46
 686.5 544 686.5 544 724 537.5 c 128,-1,47
 761.5 531 761.5 531 789 520 c 128,-1,48
 816.5 509 816.5 509 832.5 493.5 c 128,-1,49
 848.5 478 848.5 478 848.5 461 c 256,50,51
 848.5 444 848.5 444 832.5 429 c 128,-1,52
 816.5 414 816.5 414 789 402.5 c 128,-1,53
 761.5 391 761.5 391 724 384.5 c 128,-1,54
 686.5 378 686.5 378 642.5 378 c 0,55,56
 599.5 378 599.5 378 562 384.5 c 128,-1,57
 524.5 391 524.5 391 496.5 402.5 c 128,-1,58
 468.5 414 468.5 414 453 429 c 128,-1,59
 437.5 444 437.5 444 437.5 461 c 256,40,41
517.5 461 m 256,60,61
 517.5 450 517.5 450 527 440.5 c 128,-1,62
 536.5 431 536.5 431 553.5 424 c 128,-1,63
 570.5 417 570.5 417 593.5 413 c 128,-1,64
 616.5 409 616.5 409 642.5 409 c 0,65,66
 669.5 409 669.5 409 692 413 c 128,-1,67
 714.5 417 714.5 417 731.5 424 c 128,-1,68
 748.5 431 748.5 431 758 440.5 c 128,-1,69
 767.5 450 767.5 450 767.5 461 c 256,70,71
 767.5 472 767.5 472 758 481.5 c 128,-1,72
 748.5 491 748.5 491 731.5 498 c 128,-1,73
 714.5 505 714.5 505 692 509 c 128,-1,74
 669.5 513 669.5 513 642.5 513 c 0,75,76
 616.5 513 616.5 513 593.5 509 c 128,-1,77
 570.5 505 570.5 505 553.5 498 c 128,-1,78
 536.5 491 536.5 491 527 481.5 c 128,-1,79
 517.5 472 517.5 472 517.5 461 c 256,60,61
437.5 648 m 256,80,81
 437.5 665 437.5 665 453 680.5 c 128,-1,82
 468.5 696 468.5 696 496.5 707 c 128,-1,83
 524.5 718 524.5 718 562 724.5 c 128,-1,84
 599.5 731 599.5 731 642.5 731 c 0,85,86
 686.5 731 686.5 731 724 724.5 c 128,-1,87
 761.5 718 761.5 718 789 707 c 128,-1,88
 816.5 696 816.5 696 832.5 680.5 c 128,-1,89
 848.5 665 848.5 665 848.5 648 c 256,90,91
 848.5 631 848.5 631 832.5 616 c 128,-1,92
 816.5 601 816.5 601 789 589.5 c 128,-1,93
 761.5 578 761.5 578 724 571.5 c 128,-1,94
 686.5 565 686.5 565 642.5 565 c 0,95,96
 599.5 565 599.5 565 562 571.5 c 128,-1,97
 524.5 578 524.5 578 496.5 589.5 c 128,-1,98
 468.5 601 468.5 601 453 616 c 128,-1,99
 437.5 631 437.5 631 437.5 648 c 256,80,81
517.5 648 m 0,100,101
 517.5 637 517.5 637 527 627.5 c 128,-1,102
 536.5 618 536.5 618 553.5 611 c 128,-1,103
 570.5 604 570.5 604 593.5 600 c 128,-1,104
 616.5 596 616.5 596 642.5 596 c 0,105,106
 669.5 596 669.5 596 692 600 c 128,-1,107
 714.5 604 714.5 604 731.5 611 c 128,-1,108
 748.5 618 748.5 618 758 627.5 c 128,-1,109
 767.5 637 767.5 637 767.5 648 c 0,110,111
 767.5 658 767.5 658 758 668 c 128,-1,112
 748.5 678 748.5 678 731.5 685 c 128,-1,113
 714.5 692 714.5 692 692 696 c 128,-1,114
 669.5 700 669.5 700 642.5 700 c 0,115,116
 616.5 700 616.5 700 593.5 696 c 128,-1,117
 570.5 692 570.5 692 553.5 685 c 128,-1,118
 536.5 678 536.5 678 527 668 c 128,-1,119
 517.5 658 517.5 658 517.5 648 c 0,100,101
EndSplineSet
EndChar

StartChar: uni0084
Encoding: 132 132 101
Width: 1286
Flags: W
LayerCount: 2
Fore
SplineSet
437.5 85 m 0,0,1
 437.5 103 437.5 103 453 118 c 128,-1,2
 468.5 133 468.5 133 496.5 144.5 c 128,-1,3
 524.5 156 524.5 156 562 162.5 c 128,-1,4
 599.5 169 599.5 169 642.5 169 c 0,5,6
 686.5 169 686.5 169 724 162.5 c 128,-1,7
 761.5 156 761.5 156 789 144.5 c 128,-1,8
 816.5 133 816.5 133 832.5 118 c 128,-1,9
 848.5 103 848.5 103 848.5 85 c 0,10,11
 848.5 68 848.5 68 832.5 53 c 128,-1,12
 816.5 38 816.5 38 789 27 c 128,-1,13
 761.5 16 761.5 16 724 9.5 c 128,-1,14
 686.5 3 686.5 3 642.5 3 c 0,15,16
 599.5 3 599.5 3 562 9.5 c 128,-1,17
 524.5 16 524.5 16 496.5 27 c 128,-1,18
 468.5 38 468.5 38 453 53 c 128,-1,19
 437.5 68 437.5 68 437.5 85 c 0,0,1
517.5 85 m 256,20,21
 517.5 74 517.5 74 527 64.5 c 128,-1,22
 536.5 55 536.5 55 553.5 48.5 c 128,-1,23
 570.5 42 570.5 42 593.5 38 c 128,-1,24
 616.5 34 616.5 34 642.5 34 c 0,25,26
 669.5 34 669.5 34 692 38 c 128,-1,27
 714.5 42 714.5 42 731.5 48.5 c 128,-1,28
 748.5 55 748.5 55 758 64.5 c 128,-1,29
 767.5 74 767.5 74 767.5 85 c 256,30,31
 767.5 96 767.5 96 758 105.5 c 128,-1,32
 748.5 115 748.5 115 731.5 122 c 128,-1,33
 714.5 129 714.5 129 692 133 c 128,-1,34
 669.5 137 669.5 137 642.5 137 c 0,35,36
 616.5 137 616.5 137 593.5 133 c 128,-1,37
 570.5 129 570.5 129 553.5 122 c 128,-1,38
 536.5 115 536.5 115 527 105.5 c 128,-1,39
 517.5 96 517.5 96 517.5 85 c 256,20,21
437.5 272 m 0,40,41
 437.5 290 437.5 290 453 305 c 128,-1,42
 468.5 320 468.5 320 496.5 331.5 c 128,-1,43
 524.5 343 524.5 343 562 349 c 128,-1,44
 599.5 355 599.5 355 642.5 355 c 0,45,46
 686.5 355 686.5 355 724 349 c 128,-1,47
 761.5 343 761.5 343 789 331.5 c 128,-1,48
 816.5 320 816.5 320 832.5 305 c 128,-1,49
 848.5 290 848.5 290 848.5 272 c 0,50,51
 848.5 255 848.5 255 832.5 240 c 128,-1,52
 816.5 225 816.5 225 789 214 c 128,-1,53
 761.5 203 761.5 203 724 196 c 128,-1,54
 686.5 189 686.5 189 642.5 189 c 0,55,56
 599.5 189 599.5 189 562 196 c 128,-1,57
 524.5 203 524.5 203 496.5 214 c 128,-1,58
 468.5 225 468.5 225 453 240 c 128,-1,59
 437.5 255 437.5 255 437.5 272 c 0,40,41
517.5 272 m 256,60,61
 517.5 261 517.5 261 527 251.5 c 128,-1,62
 536.5 242 536.5 242 553.5 235 c 128,-1,63
 570.5 228 570.5 228 593.5 224 c 128,-1,64
 616.5 220 616.5 220 642.5 220 c 0,65,66
 669.5 220 669.5 220 692 224 c 128,-1,67
 714.5 228 714.5 228 731.5 235 c 128,-1,68
 748.5 242 748.5 242 758 251.5 c 128,-1,69
 767.5 261 767.5 261 767.5 272 c 256,70,71
 767.5 283 767.5 283 758 292.5 c 128,-1,72
 748.5 302 748.5 302 731.5 309 c 128,-1,73
 714.5 316 714.5 316 692 320 c 128,-1,74
 669.5 324 669.5 324 642.5 324 c 0,75,76
 616.5 324 616.5 324 593.5 320 c 128,-1,77
 570.5 316 570.5 316 553.5 309 c 128,-1,78
 536.5 302 536.5 302 527 292.5 c 128,-1,79
 517.5 283 517.5 283 517.5 272 c 256,60,61
437.5 461 m 256,80,81
 437.5 478 437.5 478 453 493.5 c 128,-1,82
 468.5 509 468.5 509 496.5 520 c 128,-1,83
 524.5 531 524.5 531 562 537.5 c 128,-1,84
 599.5 544 599.5 544 642.5 544 c 0,85,86
 686.5 544 686.5 544 724 537.5 c 128,-1,87
 761.5 531 761.5 531 789 520 c 128,-1,88
 816.5 509 816.5 509 832.5 493.5 c 128,-1,89
 848.5 478 848.5 478 848.5 461 c 256,90,91
 848.5 444 848.5 444 832.5 429 c 128,-1,92
 816.5 414 816.5 414 789 402.5 c 128,-1,93
 761.5 391 761.5 391 724 384.5 c 128,-1,94
 686.5 378 686.5 378 642.5 378 c 0,95,96
 599.5 378 599.5 378 562 384.5 c 128,-1,97
 524.5 391 524.5 391 496.5 402.5 c 128,-1,98
 468.5 414 468.5 414 453 429 c 128,-1,99
 437.5 444 437.5 444 437.5 461 c 256,80,81
437.5 648 m 256,100,101
 437.5 665 437.5 665 453 680.5 c 128,-1,102
 468.5 696 468.5 696 496.5 707 c 128,-1,103
 524.5 718 524.5 718 562 724.5 c 128,-1,104
 599.5 731 599.5 731 642.5 731 c 0,105,106
 686.5 731 686.5 731 724 724.5 c 128,-1,107
 761.5 718 761.5 718 789 707 c 128,-1,108
 816.5 696 816.5 696 832.5 680.5 c 128,-1,109
 848.5 665 848.5 665 848.5 648 c 256,110,111
 848.5 631 848.5 631 832.5 616 c 128,-1,112
 816.5 601 816.5 601 789 589.5 c 128,-1,113
 761.5 578 761.5 578 724 571.5 c 128,-1,114
 686.5 565 686.5 565 642.5 565 c 0,115,116
 599.5 565 599.5 565 562 571.5 c 128,-1,117
 524.5 578 524.5 578 496.5 589.5 c 128,-1,118
 468.5 601 468.5 601 453 616 c 128,-1,119
 437.5 631 437.5 631 437.5 648 c 256,100,101
517.5 648 m 0,120,121
 517.5 637 517.5 637 527 627.5 c 128,-1,122
 536.5 618 536.5 618 553.5 611 c 128,-1,123
 570.5 604 570.5 604 593.5 600 c 128,-1,124
 616.5 596 616.5 596 642.5 596 c 0,125,126
 669.5 596 669.5 596 692 600 c 128,-1,127
 714.5 604 714.5 604 731.5 611 c 128,-1,128
 748.5 618 748.5 618 758 627.5 c 128,-1,129
 767.5 637 767.5 637 767.5 648 c 0,130,131
 767.5 658 767.5 658 758 668 c 128,-1,132
 748.5 678 748.5 678 731.5 685 c 128,-1,133
 714.5 692 714.5 692 692 696 c 128,-1,134
 669.5 700 669.5 700 642.5 700 c 0,135,136
 616.5 700 616.5 700 593.5 696 c 128,-1,137
 570.5 692 570.5 692 553.5 685 c 128,-1,138
 536.5 678 536.5 678 527 668 c 128,-1,139
 517.5 658 517.5 658 517.5 648 c 0,120,121
EndSplineSet
EndChar

StartChar: uni0085
Encoding: 133 133 102
Width: 1286
Flags: W
LayerCount: 2
Fore
SplineSet
437.5 85 m 0,0,1
 437.5 103 437.5 103 453 118 c 128,-1,2
 468.5 133 468.5 133 496.5 144.5 c 128,-1,3
 524.5 156 524.5 156 562 162.5 c 128,-1,4
 599.5 169 599.5 169 642.5 169 c 0,5,6
 686.5 169 686.5 169 724 162.5 c 128,-1,7
 761.5 156 761.5 156 789 144.5 c 128,-1,8
 816.5 133 816.5 133 832.5 118 c 128,-1,9
 848.5 103 848.5 103 848.5 85 c 0,10,11
 848.5 68 848.5 68 832.5 53 c 128,-1,12
 816.5 38 816.5 38 789 27 c 128,-1,13
 761.5 16 761.5 16 724 9.5 c 128,-1,14
 686.5 3 686.5 3 642.5 3 c 0,15,16
 599.5 3 599.5 3 562 9.5 c 128,-1,17
 524.5 16 524.5 16 496.5 27 c 128,-1,18
 468.5 38 468.5 38 453 53 c 128,-1,19
 437.5 68 437.5 68 437.5 85 c 0,0,1
437.5 272 m 0,20,21
 437.5 290 437.5 290 453 305 c 128,-1,22
 468.5 320 468.5 320 496.5 331.5 c 128,-1,23
 524.5 343 524.5 343 562 349 c 128,-1,24
 599.5 355 599.5 355 642.5 355 c 0,25,26
 686.5 355 686.5 355 724 349 c 128,-1,27
 761.5 343 761.5 343 789 331.5 c 128,-1,28
 816.5 320 816.5 320 832.5 305 c 128,-1,29
 848.5 290 848.5 290 848.5 272 c 0,30,31
 848.5 255 848.5 255 832.5 240 c 128,-1,32
 816.5 225 816.5 225 789 214 c 128,-1,33
 761.5 203 761.5 203 724 196 c 128,-1,34
 686.5 189 686.5 189 642.5 189 c 0,35,36
 599.5 189 599.5 189 562 196 c 128,-1,37
 524.5 203 524.5 203 496.5 214 c 128,-1,38
 468.5 225 468.5 225 453 240 c 128,-1,39
 437.5 255 437.5 255 437.5 272 c 0,20,21
517.5 272 m 256,40,41
 517.5 261 517.5 261 527 251.5 c 128,-1,42
 536.5 242 536.5 242 553.5 235 c 128,-1,43
 570.5 228 570.5 228 593.5 224 c 128,-1,44
 616.5 220 616.5 220 642.5 220 c 0,45,46
 669.5 220 669.5 220 692 224 c 128,-1,47
 714.5 228 714.5 228 731.5 235 c 128,-1,48
 748.5 242 748.5 242 758 251.5 c 128,-1,49
 767.5 261 767.5 261 767.5 272 c 256,50,51
 767.5 283 767.5 283 758 292.5 c 128,-1,52
 748.5 302 748.5 302 731.5 309 c 128,-1,53
 714.5 316 714.5 316 692 320 c 128,-1,54
 669.5 324 669.5 324 642.5 324 c 0,55,56
 616.5 324 616.5 324 593.5 320 c 128,-1,57
 570.5 316 570.5 316 553.5 309 c 128,-1,58
 536.5 302 536.5 302 527 292.5 c 128,-1,59
 517.5 283 517.5 283 517.5 272 c 256,40,41
437.5 461 m 256,60,61
 437.5 478 437.5 478 453 493.5 c 128,-1,62
 468.5 509 468.5 509 496.5 520 c 128,-1,63
 524.5 531 524.5 531 562 537.5 c 128,-1,64
 599.5 544 599.5 544 642.5 544 c 0,65,66
 686.5 544 686.5 544 724 537.5 c 128,-1,67
 761.5 531 761.5 531 789 520 c 128,-1,68
 816.5 509 816.5 509 832.5 493.5 c 128,-1,69
 848.5 478 848.5 478 848.5 461 c 256,70,71
 848.5 444 848.5 444 832.5 429 c 128,-1,72
 816.5 414 816.5 414 789 402.5 c 128,-1,73
 761.5 391 761.5 391 724 384.5 c 128,-1,74
 686.5 378 686.5 378 642.5 378 c 0,75,76
 599.5 378 599.5 378 562 384.5 c 128,-1,77
 524.5 391 524.5 391 496.5 402.5 c 128,-1,78
 468.5 414 468.5 414 453 429 c 128,-1,79
 437.5 444 437.5 444 437.5 461 c 256,60,61
437.5 648 m 256,80,81
 437.5 665 437.5 665 453 680.5 c 128,-1,82
 468.5 696 468.5 696 496.5 707 c 128,-1,83
 524.5 718 524.5 718 562 724.5 c 128,-1,84
 599.5 731 599.5 731 642.5 731 c 0,85,86
 686.5 731 686.5 731 724 724.5 c 128,-1,87
 761.5 718 761.5 718 789 707 c 128,-1,88
 816.5 696 816.5 696 832.5 680.5 c 128,-1,89
 848.5 665 848.5 665 848.5 648 c 256,90,91
 848.5 631 848.5 631 832.5 616 c 128,-1,92
 816.5 601 816.5 601 789 589.5 c 128,-1,93
 761.5 578 761.5 578 724 571.5 c 128,-1,94
 686.5 565 686.5 565 642.5 565 c 0,95,96
 599.5 565 599.5 565 562 571.5 c 128,-1,97
 524.5 578 524.5 578 496.5 589.5 c 128,-1,98
 468.5 601 468.5 601 453 616 c 128,-1,99
 437.5 631 437.5 631 437.5 648 c 256,80,81
517.5 648 m 0,100,101
 517.5 637 517.5 637 527 627.5 c 128,-1,102
 536.5 618 536.5 618 553.5 611 c 128,-1,103
 570.5 604 570.5 604 593.5 600 c 128,-1,104
 616.5 596 616.5 596 642.5 596 c 0,105,106
 669.5 596 669.5 596 692 600 c 128,-1,107
 714.5 604 714.5 604 731.5 611 c 128,-1,108
 748.5 618 748.5 618 758 627.5 c 128,-1,109
 767.5 637 767.5 637 767.5 648 c 0,110,111
 767.5 658 767.5 658 758 668 c 128,-1,112
 748.5 678 748.5 678 731.5 685 c 128,-1,113
 714.5 692 714.5 692 692 696 c 128,-1,114
 669.5 700 669.5 700 642.5 700 c 0,115,116
 616.5 700 616.5 700 593.5 696 c 128,-1,117
 570.5 692 570.5 692 553.5 685 c 128,-1,118
 536.5 678 536.5 678 527 668 c 128,-1,119
 517.5 658 517.5 658 517.5 648 c 0,100,101
EndSplineSet
EndChar

StartChar: uni0086
Encoding: 134 134 103
Width: 1286
Flags: W
LayerCount: 2
Fore
SplineSet
437.5 85 m 0,0,1
 437.5 103 437.5 103 453 118 c 128,-1,2
 468.5 133 468.5 133 496.5 144.5 c 128,-1,3
 524.5 156 524.5 156 562 162.5 c 128,-1,4
 599.5 169 599.5 169 642.5 169 c 0,5,6
 686.5 169 686.5 169 724 162.5 c 128,-1,7
 761.5 156 761.5 156 789 144.5 c 128,-1,8
 816.5 133 816.5 133 832.5 118 c 128,-1,9
 848.5 103 848.5 103 848.5 85 c 0,10,11
 848.5 68 848.5 68 832.5 53 c 128,-1,12
 816.5 38 816.5 38 789 27 c 128,-1,13
 761.5 16 761.5 16 724 9.5 c 128,-1,14
 686.5 3 686.5 3 642.5 3 c 0,15,16
 599.5 3 599.5 3 562 9.5 c 128,-1,17
 524.5 16 524.5 16 496.5 27 c 128,-1,18
 468.5 38 468.5 38 453 53 c 128,-1,19
 437.5 68 437.5 68 437.5 85 c 0,0,1
517.5 85 m 256,20,21
 517.5 74 517.5 74 527 64.5 c 128,-1,22
 536.5 55 536.5 55 553.5 48.5 c 128,-1,23
 570.5 42 570.5 42 593.5 38 c 128,-1,24
 616.5 34 616.5 34 642.5 34 c 0,25,26
 669.5 34 669.5 34 692 38 c 128,-1,27
 714.5 42 714.5 42 731.5 48.5 c 128,-1,28
 748.5 55 748.5 55 758 64.5 c 128,-1,29
 767.5 74 767.5 74 767.5 85 c 256,30,31
 767.5 96 767.5 96 758 105.5 c 128,-1,32
 748.5 115 748.5 115 731.5 122 c 128,-1,33
 714.5 129 714.5 129 692 133 c 128,-1,34
 669.5 137 669.5 137 642.5 137 c 0,35,36
 616.5 137 616.5 137 593.5 133 c 128,-1,37
 570.5 129 570.5 129 553.5 122 c 128,-1,38
 536.5 115 536.5 115 527 105.5 c 128,-1,39
 517.5 96 517.5 96 517.5 85 c 256,20,21
437.5 272 m 0,40,41
 437.5 290 437.5 290 453 305 c 128,-1,42
 468.5 320 468.5 320 496.5 331.5 c 128,-1,43
 524.5 343 524.5 343 562 349 c 128,-1,44
 599.5 355 599.5 355 642.5 355 c 0,45,46
 686.5 355 686.5 355 724 349 c 128,-1,47
 761.5 343 761.5 343 789 331.5 c 128,-1,48
 816.5 320 816.5 320 832.5 305 c 128,-1,49
 848.5 290 848.5 290 848.5 272 c 0,50,51
 848.5 255 848.5 255 832.5 240 c 128,-1,52
 816.5 225 816.5 225 789 214 c 128,-1,53
 761.5 203 761.5 203 724 196 c 128,-1,54
 686.5 189 686.5 189 642.5 189 c 0,55,56
 599.5 189 599.5 189 562 196 c 128,-1,57
 524.5 203 524.5 203 496.5 214 c 128,-1,58
 468.5 225 468.5 225 453 240 c 128,-1,59
 437.5 255 437.5 255 437.5 272 c 0,40,41
437.5 461 m 256,60,61
 437.5 478 437.5 478 453 493.5 c 128,-1,62
 468.5 509 468.5 509 496.5 520 c 128,-1,63
 524.5 531 524.5 531 562 537.5 c 128,-1,64
 599.5 544 599.5 544 642.5 544 c 0,65,66
 686.5 544 686.5 544 724 537.5 c 128,-1,67
 761.5 531 761.5 531 789 520 c 128,-1,68
 816.5 509 816.5 509 832.5 493.5 c 128,-1,69
 848.5 478 848.5 478 848.5 461 c 256,70,71
 848.5 444 848.5 444 832.5 429 c 128,-1,72
 816.5 414 816.5 414 789 402.5 c 128,-1,73
 761.5 391 761.5 391 724 384.5 c 128,-1,74
 686.5 378 686.5 378 642.5 378 c 0,75,76
 599.5 378 599.5 378 562 384.5 c 128,-1,77
 524.5 391 524.5 391 496.5 402.5 c 128,-1,78
 468.5 414 468.5 414 453 429 c 128,-1,79
 437.5 444 437.5 444 437.5 461 c 256,60,61
437.5 648 m 256,80,81
 437.5 665 437.5 665 453 680.5 c 128,-1,82
 468.5 696 468.5 696 496.5 707 c 128,-1,83
 524.5 718 524.5 718 562 724.5 c 128,-1,84
 599.5 731 599.5 731 642.5 731 c 0,85,86
 686.5 731 686.5 731 724 724.5 c 128,-1,87
 761.5 718 761.5 718 789 707 c 128,-1,88
 816.5 696 816.5 696 832.5 680.5 c 128,-1,89
 848.5 665 848.5 665 848.5 648 c 256,90,91
 848.5 631 848.5 631 832.5 616 c 128,-1,92
 816.5 601 816.5 601 789 589.5 c 128,-1,93
 761.5 578 761.5 578 724 571.5 c 128,-1,94
 686.5 565 686.5 565 642.5 565 c 0,95,96
 599.5 565 599.5 565 562 571.5 c 128,-1,97
 524.5 578 524.5 578 496.5 589.5 c 128,-1,98
 468.5 601 468.5 601 453 616 c 128,-1,99
 437.5 631 437.5 631 437.5 648 c 256,80,81
517.5 648 m 0,100,101
 517.5 637 517.5 637 527 627.5 c 128,-1,102
 536.5 618 536.5 618 553.5 611 c 128,-1,103
 570.5 604 570.5 604 593.5 600 c 128,-1,104
 616.5 596 616.5 596 642.5 596 c 0,105,106
 669.5 596 669.5 596 692 600 c 128,-1,107
 714.5 604 714.5 604 731.5 611 c 128,-1,108
 748.5 618 748.5 618 758 627.5 c 128,-1,109
 767.5 637 767.5 637 767.5 648 c 0,110,111
 767.5 658 767.5 658 758 668 c 128,-1,112
 748.5 678 748.5 678 731.5 685 c 128,-1,113
 714.5 692 714.5 692 692 696 c 128,-1,114
 669.5 700 669.5 700 642.5 700 c 0,115,116
 616.5 700 616.5 700 593.5 696 c 128,-1,117
 570.5 692 570.5 692 553.5 685 c 128,-1,118
 536.5 678 536.5 678 527 668 c 128,-1,119
 517.5 658 517.5 658 517.5 648 c 0,100,101
EndSplineSet
EndChar

StartChar: uni0087
Encoding: 135 135 104
Width: 1286
Flags: W
LayerCount: 2
Fore
SplineSet
437.5 85 m 0,0,1
 437.5 103 437.5 103 453 118 c 128,-1,2
 468.5 133 468.5 133 496.5 144.5 c 128,-1,3
 524.5 156 524.5 156 562 162.5 c 128,-1,4
 599.5 169 599.5 169 642.5 169 c 0,5,6
 686.5 169 686.5 169 724 162.5 c 128,-1,7
 761.5 156 761.5 156 789 144.5 c 128,-1,8
 816.5 133 816.5 133 832.5 118 c 128,-1,9
 848.5 103 848.5 103 848.5 85 c 0,10,11
 848.5 68 848.5 68 832.5 53 c 128,-1,12
 816.5 38 816.5 38 789 27 c 128,-1,13
 761.5 16 761.5 16 724 9.5 c 128,-1,14
 686.5 3 686.5 3 642.5 3 c 0,15,16
 599.5 3 599.5 3 562 9.5 c 128,-1,17
 524.5 16 524.5 16 496.5 27 c 128,-1,18
 468.5 38 468.5 38 453 53 c 128,-1,19
 437.5 68 437.5 68 437.5 85 c 0,0,1
437.5 272 m 0,20,21
 437.5 290 437.5 290 453 305 c 128,-1,22
 468.5 320 468.5 320 496.5 331.5 c 128,-1,23
 524.5 343 524.5 343 562 349 c 128,-1,24
 599.5 355 599.5 355 642.5 355 c 0,25,26
 686.5 355 686.5 355 724 349 c 128,-1,27
 761.5 343 761.5 343 789 331.5 c 128,-1,28
 816.5 320 816.5 320 832.5 305 c 128,-1,29
 848.5 290 848.5 290 848.5 272 c 0,30,31
 848.5 255 848.5 255 832.5 240 c 128,-1,32
 816.5 225 816.5 225 789 214 c 128,-1,33
 761.5 203 761.5 203 724 196 c 128,-1,34
 686.5 189 686.5 189 642.5 189 c 0,35,36
 599.5 189 599.5 189 562 196 c 128,-1,37
 524.5 203 524.5 203 496.5 214 c 128,-1,38
 468.5 225 468.5 225 453 240 c 128,-1,39
 437.5 255 437.5 255 437.5 272 c 0,20,21
437.5 461 m 256,40,41
 437.5 478 437.5 478 453 493.5 c 128,-1,42
 468.5 509 468.5 509 496.5 520 c 128,-1,43
 524.5 531 524.5 531 562 537.5 c 128,-1,44
 599.5 544 599.5 544 642.5 544 c 0,45,46
 686.5 544 686.5 544 724 537.5 c 128,-1,47
 761.5 531 761.5 531 789 520 c 128,-1,48
 816.5 509 816.5 509 832.5 493.5 c 128,-1,49
 848.5 478 848.5 478 848.5 461 c 256,50,51
 848.5 444 848.5 444 832.5 429 c 128,-1,52
 816.5 414 816.5 414 789 402.5 c 128,-1,53
 761.5 391 761.5 391 724 384.5 c 128,-1,54
 686.5 378 686.5 378 642.5 378 c 0,55,56
 599.5 378 599.5 378 562 384.5 c 128,-1,57
 524.5 391 524.5 391 496.5 402.5 c 128,-1,58
 468.5 414 468.5 414 453 429 c 128,-1,59
 437.5 444 437.5 444 437.5 461 c 256,40,41
437.5 648 m 256,60,61
 437.5 665 437.5 665 453 680.5 c 128,-1,62
 468.5 696 468.5 696 496.5 707 c 128,-1,63
 524.5 718 524.5 718 562 724.5 c 128,-1,64
 599.5 731 599.5 731 642.5 731 c 0,65,66
 686.5 731 686.5 731 724 724.5 c 128,-1,67
 761.5 718 761.5 718 789 707 c 128,-1,68
 816.5 696 816.5 696 832.5 680.5 c 128,-1,69
 848.5 665 848.5 665 848.5 648 c 256,70,71
 848.5 631 848.5 631 832.5 616 c 128,-1,72
 816.5 601 816.5 601 789 589.5 c 128,-1,73
 761.5 578 761.5 578 724 571.5 c 128,-1,74
 686.5 565 686.5 565 642.5 565 c 0,75,76
 599.5 565 599.5 565 562 571.5 c 128,-1,77
 524.5 578 524.5 578 496.5 589.5 c 128,-1,78
 468.5 601 468.5 601 453 616 c 128,-1,79
 437.5 631 437.5 631 437.5 648 c 256,60,61
517.5 648 m 0,80,81
 517.5 637 517.5 637 527 627.5 c 128,-1,82
 536.5 618 536.5 618 553.5 611 c 128,-1,83
 570.5 604 570.5 604 593.5 600 c 128,-1,84
 616.5 596 616.5 596 642.5 596 c 0,85,86
 669.5 596 669.5 596 692 600 c 128,-1,87
 714.5 604 714.5 604 731.5 611 c 128,-1,88
 748.5 618 748.5 618 758 627.5 c 128,-1,89
 767.5 637 767.5 637 767.5 648 c 0,90,91
 767.5 658 767.5 658 758 668 c 128,-1,92
 748.5 678 748.5 678 731.5 685 c 128,-1,93
 714.5 692 714.5 692 692 696 c 128,-1,94
 669.5 700 669.5 700 642.5 700 c 0,95,96
 616.5 700 616.5 700 593.5 696 c 128,-1,97
 570.5 692 570.5 692 553.5 685 c 128,-1,98
 536.5 678 536.5 678 527 668 c 128,-1,99
 517.5 658 517.5 658 517.5 648 c 0,80,81
EndSplineSet
EndChar

StartChar: uni0088
Encoding: 136 136 105
Width: 1286
Flags: W
LayerCount: 2
Fore
SplineSet
437.5 85 m 0,0,1
 437.5 103 437.5 103 453 118 c 128,-1,2
 468.5 133 468.5 133 496.5 144.5 c 128,-1,3
 524.5 156 524.5 156 562 162.5 c 128,-1,4
 599.5 169 599.5 169 642.5 169 c 0,5,6
 686.5 169 686.5 169 724 162.5 c 128,-1,7
 761.5 156 761.5 156 789 144.5 c 128,-1,8
 816.5 133 816.5 133 832.5 118 c 128,-1,9
 848.5 103 848.5 103 848.5 85 c 0,10,11
 848.5 68 848.5 68 832.5 53 c 128,-1,12
 816.5 38 816.5 38 789 27 c 128,-1,13
 761.5 16 761.5 16 724 9.5 c 128,-1,14
 686.5 3 686.5 3 642.5 3 c 0,15,16
 599.5 3 599.5 3 562 9.5 c 128,-1,17
 524.5 16 524.5 16 496.5 27 c 128,-1,18
 468.5 38 468.5 38 453 53 c 128,-1,19
 437.5 68 437.5 68 437.5 85 c 0,0,1
517.5 85 m 256,20,21
 517.5 74 517.5 74 527 64.5 c 128,-1,22
 536.5 55 536.5 55 553.5 48.5 c 128,-1,23
 570.5 42 570.5 42 593.5 38 c 128,-1,24
 616.5 34 616.5 34 642.5 34 c 0,25,26
 669.5 34 669.5 34 692 38 c 128,-1,27
 714.5 42 714.5 42 731.5 48.5 c 128,-1,28
 748.5 55 748.5 55 758 64.5 c 128,-1,29
 767.5 74 767.5 74 767.5 85 c 256,30,31
 767.5 96 767.5 96 758 105.5 c 128,-1,32
 748.5 115 748.5 115 731.5 122 c 128,-1,33
 714.5 129 714.5 129 692 133 c 128,-1,34
 669.5 137 669.5 137 642.5 137 c 0,35,36
 616.5 137 616.5 137 593.5 133 c 128,-1,37
 570.5 129 570.5 129 553.5 122 c 128,-1,38
 536.5 115 536.5 115 527 105.5 c 128,-1,39
 517.5 96 517.5 96 517.5 85 c 256,20,21
437.5 272 m 0,40,41
 437.5 290 437.5 290 453 305 c 128,-1,42
 468.5 320 468.5 320 496.5 331.5 c 128,-1,43
 524.5 343 524.5 343 562 349 c 128,-1,44
 599.5 355 599.5 355 642.5 355 c 0,45,46
 686.5 355 686.5 355 724 349 c 128,-1,47
 761.5 343 761.5 343 789 331.5 c 128,-1,48
 816.5 320 816.5 320 832.5 305 c 128,-1,49
 848.5 290 848.5 290 848.5 272 c 0,50,51
 848.5 255 848.5 255 832.5 240 c 128,-1,52
 816.5 225 816.5 225 789 214 c 128,-1,53
 761.5 203 761.5 203 724 196 c 128,-1,54
 686.5 189 686.5 189 642.5 189 c 0,55,56
 599.5 189 599.5 189 562 196 c 128,-1,57
 524.5 203 524.5 203 496.5 214 c 128,-1,58
 468.5 225 468.5 225 453 240 c 128,-1,59
 437.5 255 437.5 255 437.5 272 c 0,40,41
517.5 272 m 256,60,61
 517.5 261 517.5 261 527 251.5 c 128,-1,62
 536.5 242 536.5 242 553.5 235 c 128,-1,63
 570.5 228 570.5 228 593.5 224 c 128,-1,64
 616.5 220 616.5 220 642.5 220 c 0,65,66
 669.5 220 669.5 220 692 224 c 128,-1,67
 714.5 228 714.5 228 731.5 235 c 128,-1,68
 748.5 242 748.5 242 758 251.5 c 128,-1,69
 767.5 261 767.5 261 767.5 272 c 256,70,71
 767.5 283 767.5 283 758 292.5 c 128,-1,72
 748.5 302 748.5 302 731.5 309 c 128,-1,73
 714.5 316 714.5 316 692 320 c 128,-1,74
 669.5 324 669.5 324 642.5 324 c 0,75,76
 616.5 324 616.5 324 593.5 320 c 128,-1,77
 570.5 316 570.5 316 553.5 309 c 128,-1,78
 536.5 302 536.5 302 527 292.5 c 128,-1,79
 517.5 283 517.5 283 517.5 272 c 256,60,61
437.5 461 m 256,80,81
 437.5 478 437.5 478 453 493.5 c 128,-1,82
 468.5 509 468.5 509 496.5 520 c 128,-1,83
 524.5 531 524.5 531 562 537.5 c 128,-1,84
 599.5 544 599.5 544 642.5 544 c 0,85,86
 686.5 544 686.5 544 724 537.5 c 128,-1,87
 761.5 531 761.5 531 789 520 c 128,-1,88
 816.5 509 816.5 509 832.5 493.5 c 128,-1,89
 848.5 478 848.5 478 848.5 461 c 256,90,91
 848.5 444 848.5 444 832.5 429 c 128,-1,92
 816.5 414 816.5 414 789 402.5 c 128,-1,93
 761.5 391 761.5 391 724 384.5 c 128,-1,94
 686.5 378 686.5 378 642.5 378 c 0,95,96
 599.5 378 599.5 378 562 384.5 c 128,-1,97
 524.5 391 524.5 391 496.5 402.5 c 128,-1,98
 468.5 414 468.5 414 453 429 c 128,-1,99
 437.5 444 437.5 444 437.5 461 c 256,80,81
517.5 461 m 256,100,101
 517.5 450 517.5 450 527 440.5 c 128,-1,102
 536.5 431 536.5 431 553.5 424 c 128,-1,103
 570.5 417 570.5 417 593.5 413 c 128,-1,104
 616.5 409 616.5 409 642.5 409 c 0,105,106
 669.5 409 669.5 409 692 413 c 128,-1,107
 714.5 417 714.5 417 731.5 424 c 128,-1,108
 748.5 431 748.5 431 758 440.5 c 128,-1,109
 767.5 450 767.5 450 767.5 461 c 256,110,111
 767.5 472 767.5 472 758 481.5 c 128,-1,112
 748.5 491 748.5 491 731.5 498 c 128,-1,113
 714.5 505 714.5 505 692 509 c 128,-1,114
 669.5 513 669.5 513 642.5 513 c 0,115,116
 616.5 513 616.5 513 593.5 509 c 128,-1,117
 570.5 505 570.5 505 553.5 498 c 128,-1,118
 536.5 491 536.5 491 527 481.5 c 128,-1,119
 517.5 472 517.5 472 517.5 461 c 256,100,101
437.5 648 m 256,120,121
 437.5 665 437.5 665 453 680.5 c 128,-1,122
 468.5 696 468.5 696 496.5 707 c 128,-1,123
 524.5 718 524.5 718 562 724.5 c 128,-1,124
 599.5 731 599.5 731 642.5 731 c 0,125,126
 686.5 731 686.5 731 724 724.5 c 128,-1,127
 761.5 718 761.5 718 789 707 c 128,-1,128
 816.5 696 816.5 696 832.5 680.5 c 128,-1,129
 848.5 665 848.5 665 848.5 648 c 256,130,131
 848.5 631 848.5 631 832.5 616 c 128,-1,132
 816.5 601 816.5 601 789 589.5 c 128,-1,133
 761.5 578 761.5 578 724 571.5 c 128,-1,134
 686.5 565 686.5 565 642.5 565 c 0,135,136
 599.5 565 599.5 565 562 571.5 c 128,-1,137
 524.5 578 524.5 578 496.5 589.5 c 128,-1,138
 468.5 601 468.5 601 453 616 c 128,-1,139
 437.5 631 437.5 631 437.5 648 c 256,120,121
EndSplineSet
EndChar

StartChar: uni0089
Encoding: 137 137 106
Width: 1286
Flags: W
LayerCount: 2
Fore
SplineSet
437.5 85 m 0,0,1
 437.5 103 437.5 103 453 118 c 128,-1,2
 468.5 133 468.5 133 496.5 144.5 c 128,-1,3
 524.5 156 524.5 156 562 162.5 c 128,-1,4
 599.5 169 599.5 169 642.5 169 c 0,5,6
 686.5 169 686.5 169 724 162.5 c 128,-1,7
 761.5 156 761.5 156 789 144.5 c 128,-1,8
 816.5 133 816.5 133 832.5 118 c 128,-1,9
 848.5 103 848.5 103 848.5 85 c 0,10,11
 848.5 68 848.5 68 832.5 53 c 128,-1,12
 816.5 38 816.5 38 789 27 c 128,-1,13
 761.5 16 761.5 16 724 9.5 c 128,-1,14
 686.5 3 686.5 3 642.5 3 c 0,15,16
 599.5 3 599.5 3 562 9.5 c 128,-1,17
 524.5 16 524.5 16 496.5 27 c 128,-1,18
 468.5 38 468.5 38 453 53 c 128,-1,19
 437.5 68 437.5 68 437.5 85 c 0,0,1
437.5 272 m 0,20,21
 437.5 290 437.5 290 453 305 c 128,-1,22
 468.5 320 468.5 320 496.5 331.5 c 128,-1,23
 524.5 343 524.5 343 562 349 c 128,-1,24
 599.5 355 599.5 355 642.5 355 c 0,25,26
 686.5 355 686.5 355 724 349 c 128,-1,27
 761.5 343 761.5 343 789 331.5 c 128,-1,28
 816.5 320 816.5 320 832.5 305 c 128,-1,29
 848.5 290 848.5 290 848.5 272 c 0,30,31
 848.5 255 848.5 255 832.5 240 c 128,-1,32
 816.5 225 816.5 225 789 214 c 128,-1,33
 761.5 203 761.5 203 724 196 c 128,-1,34
 686.5 189 686.5 189 642.5 189 c 0,35,36
 599.5 189 599.5 189 562 196 c 128,-1,37
 524.5 203 524.5 203 496.5 214 c 128,-1,38
 468.5 225 468.5 225 453 240 c 128,-1,39
 437.5 255 437.5 255 437.5 272 c 0,20,21
517.5 272 m 256,40,41
 517.5 261 517.5 261 527 251.5 c 128,-1,42
 536.5 242 536.5 242 553.5 235 c 128,-1,43
 570.5 228 570.5 228 593.5 224 c 128,-1,44
 616.5 220 616.5 220 642.5 220 c 0,45,46
 669.5 220 669.5 220 692 224 c 128,-1,47
 714.5 228 714.5 228 731.5 235 c 128,-1,48
 748.5 242 748.5 242 758 251.5 c 128,-1,49
 767.5 261 767.5 261 767.5 272 c 256,50,51
 767.5 283 767.5 283 758 292.5 c 128,-1,52
 748.5 302 748.5 302 731.5 309 c 128,-1,53
 714.5 316 714.5 316 692 320 c 128,-1,54
 669.5 324 669.5 324 642.5 324 c 0,55,56
 616.5 324 616.5 324 593.5 320 c 128,-1,57
 570.5 316 570.5 316 553.5 309 c 128,-1,58
 536.5 302 536.5 302 527 292.5 c 128,-1,59
 517.5 283 517.5 283 517.5 272 c 256,40,41
437.5 461 m 256,60,61
 437.5 478 437.5 478 453 493.5 c 128,-1,62
 468.5 509 468.5 509 496.5 520 c 128,-1,63
 524.5 531 524.5 531 562 537.5 c 128,-1,64
 599.5 544 599.5 544 642.5 544 c 0,65,66
 686.5 544 686.5 544 724 537.5 c 128,-1,67
 761.5 531 761.5 531 789 520 c 128,-1,68
 816.5 509 816.5 509 832.5 493.5 c 128,-1,69
 848.5 478 848.5 478 848.5 461 c 256,70,71
 848.5 444 848.5 444 832.5 429 c 128,-1,72
 816.5 414 816.5 414 789 402.5 c 128,-1,73
 761.5 391 761.5 391 724 384.5 c 128,-1,74
 686.5 378 686.5 378 642.5 378 c 0,75,76
 599.5 378 599.5 378 562 384.5 c 128,-1,77
 524.5 391 524.5 391 496.5 402.5 c 128,-1,78
 468.5 414 468.5 414 453 429 c 128,-1,79
 437.5 444 437.5 444 437.5 461 c 256,60,61
517.5 461 m 256,80,81
 517.5 450 517.5 450 527 440.5 c 128,-1,82
 536.5 431 536.5 431 553.5 424 c 128,-1,83
 570.5 417 570.5 417 593.5 413 c 128,-1,84
 616.5 409 616.5 409 642.5 409 c 0,85,86
 669.5 409 669.5 409 692 413 c 128,-1,87
 714.5 417 714.5 417 731.5 424 c 128,-1,88
 748.5 431 748.5 431 758 440.5 c 128,-1,89
 767.5 450 767.5 450 767.5 461 c 256,90,91
 767.5 472 767.5 472 758 481.5 c 128,-1,92
 748.5 491 748.5 491 731.5 498 c 128,-1,93
 714.5 505 714.5 505 692 509 c 128,-1,94
 669.5 513 669.5 513 642.5 513 c 0,95,96
 616.5 513 616.5 513 593.5 509 c 128,-1,97
 570.5 505 570.5 505 553.5 498 c 128,-1,98
 536.5 491 536.5 491 527 481.5 c 128,-1,99
 517.5 472 517.5 472 517.5 461 c 256,80,81
437.5 648 m 256,100,101
 437.5 665 437.5 665 453 680.5 c 128,-1,102
 468.5 696 468.5 696 496.5 707 c 128,-1,103
 524.5 718 524.5 718 562 724.5 c 128,-1,104
 599.5 731 599.5 731 642.5 731 c 0,105,106
 686.5 731 686.5 731 724 724.5 c 128,-1,107
 761.5 718 761.5 718 789 707 c 128,-1,108
 816.5 696 816.5 696 832.5 680.5 c 128,-1,109
 848.5 665 848.5 665 848.5 648 c 256,110,111
 848.5 631 848.5 631 832.5 616 c 128,-1,112
 816.5 601 816.5 601 789 589.5 c 128,-1,113
 761.5 578 761.5 578 724 571.5 c 128,-1,114
 686.5 565 686.5 565 642.5 565 c 0,115,116
 599.5 565 599.5 565 562 571.5 c 128,-1,117
 524.5 578 524.5 578 496.5 589.5 c 128,-1,118
 468.5 601 468.5 601 453 616 c 128,-1,119
 437.5 631 437.5 631 437.5 648 c 256,100,101
EndSplineSet
EndChar

StartChar: uni008A
Encoding: 138 138 107
Width: 1286
Flags: W
LayerCount: 2
Fore
SplineSet
437.5 85 m 0,0,1
 437.5 103 437.5 103 453 118 c 128,-1,2
 468.5 133 468.5 133 496.5 144.5 c 128,-1,3
 524.5 156 524.5 156 562 162.5 c 128,-1,4
 599.5 169 599.5 169 642.5 169 c 0,5,6
 686.5 169 686.5 169 724 162.5 c 128,-1,7
 761.5 156 761.5 156 789 144.5 c 128,-1,8
 816.5 133 816.5 133 832.5 118 c 128,-1,9
 848.5 103 848.5 103 848.5 85 c 0,10,11
 848.5 68 848.5 68 832.5 53 c 128,-1,12
 816.5 38 816.5 38 789 27 c 128,-1,13
 761.5 16 761.5 16 724 9.5 c 128,-1,14
 686.5 3 686.5 3 642.5 3 c 0,15,16
 599.5 3 599.5 3 562 9.5 c 128,-1,17
 524.5 16 524.5 16 496.5 27 c 128,-1,18
 468.5 38 468.5 38 453 53 c 128,-1,19
 437.5 68 437.5 68 437.5 85 c 0,0,1
517.5 85 m 256,20,21
 517.5 74 517.5 74 527 64.5 c 128,-1,22
 536.5 55 536.5 55 553.5 48.5 c 128,-1,23
 570.5 42 570.5 42 593.5 38 c 128,-1,24
 616.5 34 616.5 34 642.5 34 c 0,25,26
 669.5 34 669.5 34 692 38 c 128,-1,27
 714.5 42 714.5 42 731.5 48.5 c 128,-1,28
 748.5 55 748.5 55 758 64.5 c 128,-1,29
 767.5 74 767.5 74 767.5 85 c 256,30,31
 767.5 96 767.5 96 758 105.5 c 128,-1,32
 748.5 115 748.5 115 731.5 122 c 128,-1,33
 714.5 129 714.5 129 692 133 c 128,-1,34
 669.5 137 669.5 137 642.5 137 c 0,35,36
 616.5 137 616.5 137 593.5 133 c 128,-1,37
 570.5 129 570.5 129 553.5 122 c 128,-1,38
 536.5 115 536.5 115 527 105.5 c 128,-1,39
 517.5 96 517.5 96 517.5 85 c 256,20,21
437.5 272 m 0,40,41
 437.5 290 437.5 290 453 305 c 128,-1,42
 468.5 320 468.5 320 496.5 331.5 c 128,-1,43
 524.5 343 524.5 343 562 349 c 128,-1,44
 599.5 355 599.5 355 642.5 355 c 0,45,46
 686.5 355 686.5 355 724 349 c 128,-1,47
 761.5 343 761.5 343 789 331.5 c 128,-1,48
 816.5 320 816.5 320 832.5 305 c 128,-1,49
 848.5 290 848.5 290 848.5 272 c 0,50,51
 848.5 255 848.5 255 832.5 240 c 128,-1,52
 816.5 225 816.5 225 789 214 c 128,-1,53
 761.5 203 761.5 203 724 196 c 128,-1,54
 686.5 189 686.5 189 642.5 189 c 0,55,56
 599.5 189 599.5 189 562 196 c 128,-1,57
 524.5 203 524.5 203 496.5 214 c 128,-1,58
 468.5 225 468.5 225 453 240 c 128,-1,59
 437.5 255 437.5 255 437.5 272 c 0,40,41
437.5 461 m 256,60,61
 437.5 478 437.5 478 453 493.5 c 128,-1,62
 468.5 509 468.5 509 496.5 520 c 128,-1,63
 524.5 531 524.5 531 562 537.5 c 128,-1,64
 599.5 544 599.5 544 642.5 544 c 0,65,66
 686.5 544 686.5 544 724 537.5 c 128,-1,67
 761.5 531 761.5 531 789 520 c 128,-1,68
 816.5 509 816.5 509 832.5 493.5 c 128,-1,69
 848.5 478 848.5 478 848.5 461 c 256,70,71
 848.5 444 848.5 444 832.5 429 c 128,-1,72
 816.5 414 816.5 414 789 402.5 c 128,-1,73
 761.5 391 761.5 391 724 384.5 c 128,-1,74
 686.5 378 686.5 378 642.5 378 c 0,75,76
 599.5 378 599.5 378 562 384.5 c 128,-1,77
 524.5 391 524.5 391 496.5 402.5 c 128,-1,78
 468.5 414 468.5 414 453 429 c 128,-1,79
 437.5 444 437.5 444 437.5 461 c 256,60,61
517.5 461 m 256,80,81
 517.5 450 517.5 450 527 440.5 c 128,-1,82
 536.5 431 536.5 431 553.5 424 c 128,-1,83
 570.5 417 570.5 417 593.5 413 c 128,-1,84
 616.5 409 616.5 409 642.5 409 c 0,85,86
 669.5 409 669.5 409 692 413 c 128,-1,87
 714.5 417 714.5 417 731.5 424 c 128,-1,88
 748.5 431 748.5 431 758 440.5 c 128,-1,89
 767.5 450 767.5 450 767.5 461 c 256,90,91
 767.5 472 767.5 472 758 481.5 c 128,-1,92
 748.5 491 748.5 491 731.5 498 c 128,-1,93
 714.5 505 714.5 505 692 509 c 128,-1,94
 669.5 513 669.5 513 642.5 513 c 0,95,96
 616.5 513 616.5 513 593.5 509 c 128,-1,97
 570.5 505 570.5 505 553.5 498 c 128,-1,98
 536.5 491 536.5 491 527 481.5 c 128,-1,99
 517.5 472 517.5 472 517.5 461 c 256,80,81
437.5 648 m 256,100,101
 437.5 665 437.5 665 453 680.5 c 128,-1,102
 468.5 696 468.5 696 496.5 707 c 128,-1,103
 524.5 718 524.5 718 562 724.5 c 128,-1,104
 599.5 731 599.5 731 642.5 731 c 0,105,106
 686.5 731 686.5 731 724 724.5 c 128,-1,107
 761.5 718 761.5 718 789 707 c 128,-1,108
 816.5 696 816.5 696 832.5 680.5 c 128,-1,109
 848.5 665 848.5 665 848.5 648 c 256,110,111
 848.5 631 848.5 631 832.5 616 c 128,-1,112
 816.5 601 816.5 601 789 589.5 c 128,-1,113
 761.5 578 761.5 578 724 571.5 c 128,-1,114
 686.5 565 686.5 565 642.5 565 c 0,115,116
 599.5 565 599.5 565 562 571.5 c 128,-1,117
 524.5 578 524.5 578 496.5 589.5 c 128,-1,118
 468.5 601 468.5 601 453 616 c 128,-1,119
 437.5 631 437.5 631 437.5 648 c 256,100,101
EndSplineSet
EndChar

StartChar: uni008B
Encoding: 139 139 108
Width: 1286
Flags: W
LayerCount: 2
Fore
SplineSet
437.5 85 m 0,0,1
 437.5 103 437.5 103 453 118 c 128,-1,2
 468.5 133 468.5 133 496.5 144.5 c 128,-1,3
 524.5 156 524.5 156 562 162.5 c 128,-1,4
 599.5 169 599.5 169 642.5 169 c 0,5,6
 686.5 169 686.5 169 724 162.5 c 128,-1,7
 761.5 156 761.5 156 789 144.5 c 128,-1,8
 816.5 133 816.5 133 832.5 118 c 128,-1,9
 848.5 103 848.5 103 848.5 85 c 0,10,11
 848.5 68 848.5 68 832.5 53 c 128,-1,12
 816.5 38 816.5 38 789 27 c 128,-1,13
 761.5 16 761.5 16 724 9.5 c 128,-1,14
 686.5 3 686.5 3 642.5 3 c 0,15,16
 599.5 3 599.5 3 562 9.5 c 128,-1,17
 524.5 16 524.5 16 496.5 27 c 128,-1,18
 468.5 38 468.5 38 453 53 c 128,-1,19
 437.5 68 437.5 68 437.5 85 c 0,0,1
437.5 272 m 0,20,21
 437.5 290 437.5 290 453 305 c 128,-1,22
 468.5 320 468.5 320 496.5 331.5 c 128,-1,23
 524.5 343 524.5 343 562 349 c 128,-1,24
 599.5 355 599.5 355 642.5 355 c 0,25,26
 686.5 355 686.5 355 724 349 c 128,-1,27
 761.5 343 761.5 343 789 331.5 c 128,-1,28
 816.5 320 816.5 320 832.5 305 c 128,-1,29
 848.5 290 848.5 290 848.5 272 c 0,30,31
 848.5 255 848.5 255 832.5 240 c 128,-1,32
 816.5 225 816.5 225 789 214 c 128,-1,33
 761.5 203 761.5 203 724 196 c 128,-1,34
 686.5 189 686.5 189 642.5 189 c 0,35,36
 599.5 189 599.5 189 562 196 c 128,-1,37
 524.5 203 524.5 203 496.5 214 c 128,-1,38
 468.5 225 468.5 225 453 240 c 128,-1,39
 437.5 255 437.5 255 437.5 272 c 0,20,21
437.5 461 m 256,40,41
 437.5 478 437.5 478 453 493.5 c 128,-1,42
 468.5 509 468.5 509 496.5 520 c 128,-1,43
 524.5 531 524.5 531 562 537.5 c 128,-1,44
 599.5 544 599.5 544 642.5 544 c 0,45,46
 686.5 544 686.5 544 724 537.5 c 128,-1,47
 761.5 531 761.5 531 789 520 c 128,-1,48
 816.5 509 816.5 509 832.5 493.5 c 128,-1,49
 848.5 478 848.5 478 848.5 461 c 256,50,51
 848.5 444 848.5 444 832.5 429 c 128,-1,52
 816.5 414 816.5 414 789 402.5 c 128,-1,53
 761.5 391 761.5 391 724 384.5 c 128,-1,54
 686.5 378 686.5 378 642.5 378 c 0,55,56
 599.5 378 599.5 378 562 384.5 c 128,-1,57
 524.5 391 524.5 391 496.5 402.5 c 128,-1,58
 468.5 414 468.5 414 453 429 c 128,-1,59
 437.5 444 437.5 444 437.5 461 c 256,40,41
517.5 461 m 256,60,61
 517.5 450 517.5 450 527 440.5 c 128,-1,62
 536.5 431 536.5 431 553.5 424 c 128,-1,63
 570.5 417 570.5 417 593.5 413 c 128,-1,64
 616.5 409 616.5 409 642.5 409 c 0,65,66
 669.5 409 669.5 409 692 413 c 128,-1,67
 714.5 417 714.5 417 731.5 424 c 128,-1,68
 748.5 431 748.5 431 758 440.5 c 128,-1,69
 767.5 450 767.5 450 767.5 461 c 256,70,71
 767.5 472 767.5 472 758 481.5 c 128,-1,72
 748.5 491 748.5 491 731.5 498 c 128,-1,73
 714.5 505 714.5 505 692 509 c 128,-1,74
 669.5 513 669.5 513 642.5 513 c 0,75,76
 616.5 513 616.5 513 593.5 509 c 128,-1,77
 570.5 505 570.5 505 553.5 498 c 128,-1,78
 536.5 491 536.5 491 527 481.5 c 128,-1,79
 517.5 472 517.5 472 517.5 461 c 256,60,61
437.5 648 m 256,80,81
 437.5 665 437.5 665 453 680.5 c 128,-1,82
 468.5 696 468.5 696 496.5 707 c 128,-1,83
 524.5 718 524.5 718 562 724.5 c 128,-1,84
 599.5 731 599.5 731 642.5 731 c 0,85,86
 686.5 731 686.5 731 724 724.5 c 128,-1,87
 761.5 718 761.5 718 789 707 c 128,-1,88
 816.5 696 816.5 696 832.5 680.5 c 128,-1,89
 848.5 665 848.5 665 848.5 648 c 256,90,91
 848.5 631 848.5 631 832.5 616 c 128,-1,92
 816.5 601 816.5 601 789 589.5 c 128,-1,93
 761.5 578 761.5 578 724 571.5 c 128,-1,94
 686.5 565 686.5 565 642.5 565 c 0,95,96
 599.5 565 599.5 565 562 571.5 c 128,-1,97
 524.5 578 524.5 578 496.5 589.5 c 128,-1,98
 468.5 601 468.5 601 453 616 c 128,-1,99
 437.5 631 437.5 631 437.5 648 c 256,80,81
EndSplineSet
EndChar

StartChar: uni008C
Encoding: 140 140 109
Width: 1286
Flags: W
LayerCount: 2
Fore
SplineSet
437.5 85 m 0,0,1
 437.5 103 437.5 103 453 118 c 128,-1,2
 468.5 133 468.5 133 496.5 144.5 c 128,-1,3
 524.5 156 524.5 156 562 162.5 c 128,-1,4
 599.5 169 599.5 169 642.5 169 c 0,5,6
 686.5 169 686.5 169 724 162.5 c 128,-1,7
 761.5 156 761.5 156 789 144.5 c 128,-1,8
 816.5 133 816.5 133 832.5 118 c 128,-1,9
 848.5 103 848.5 103 848.5 85 c 0,10,11
 848.5 68 848.5 68 832.5 53 c 128,-1,12
 816.5 38 816.5 38 789 27 c 128,-1,13
 761.5 16 761.5 16 724 9.5 c 128,-1,14
 686.5 3 686.5 3 642.5 3 c 0,15,16
 599.5 3 599.5 3 562 9.5 c 128,-1,17
 524.5 16 524.5 16 496.5 27 c 128,-1,18
 468.5 38 468.5 38 453 53 c 128,-1,19
 437.5 68 437.5 68 437.5 85 c 0,0,1
517.5 85 m 256,20,21
 517.5 74 517.5 74 527 64.5 c 128,-1,22
 536.5 55 536.5 55 553.5 48.5 c 128,-1,23
 570.5 42 570.5 42 593.5 38 c 128,-1,24
 616.5 34 616.5 34 642.5 34 c 0,25,26
 669.5 34 669.5 34 692 38 c 128,-1,27
 714.5 42 714.5 42 731.5 48.5 c 128,-1,28
 748.5 55 748.5 55 758 64.5 c 128,-1,29
 767.5 74 767.5 74 767.5 85 c 256,30,31
 767.5 96 767.5 96 758 105.5 c 128,-1,32
 748.5 115 748.5 115 731.5 122 c 128,-1,33
 714.5 129 714.5 129 692 133 c 128,-1,34
 669.5 137 669.5 137 642.5 137 c 0,35,36
 616.5 137 616.5 137 593.5 133 c 128,-1,37
 570.5 129 570.5 129 553.5 122 c 128,-1,38
 536.5 115 536.5 115 527 105.5 c 128,-1,39
 517.5 96 517.5 96 517.5 85 c 256,20,21
437.5 272 m 0,40,41
 437.5 290 437.5 290 453 305 c 128,-1,42
 468.5 320 468.5 320 496.5 331.5 c 128,-1,43
 524.5 343 524.5 343 562 349 c 128,-1,44
 599.5 355 599.5 355 642.5 355 c 0,45,46
 686.5 355 686.5 355 724 349 c 128,-1,47
 761.5 343 761.5 343 789 331.5 c 128,-1,48
 816.5 320 816.5 320 832.5 305 c 128,-1,49
 848.5 290 848.5 290 848.5 272 c 0,50,51
 848.5 255 848.5 255 832.5 240 c 128,-1,52
 816.5 225 816.5 225 789 214 c 128,-1,53
 761.5 203 761.5 203 724 196 c 128,-1,54
 686.5 189 686.5 189 642.5 189 c 0,55,56
 599.5 189 599.5 189 562 196 c 128,-1,57
 524.5 203 524.5 203 496.5 214 c 128,-1,58
 468.5 225 468.5 225 453 240 c 128,-1,59
 437.5 255 437.5 255 437.5 272 c 0,40,41
517.5 272 m 256,60,61
 517.5 261 517.5 261 527 251.5 c 128,-1,62
 536.5 242 536.5 242 553.5 235 c 128,-1,63
 570.5 228 570.5 228 593.5 224 c 128,-1,64
 616.5 220 616.5 220 642.5 220 c 0,65,66
 669.5 220 669.5 220 692 224 c 128,-1,67
 714.5 228 714.5 228 731.5 235 c 128,-1,68
 748.5 242 748.5 242 758 251.5 c 128,-1,69
 767.5 261 767.5 261 767.5 272 c 256,70,71
 767.5 283 767.5 283 758 292.5 c 128,-1,72
 748.5 302 748.5 302 731.5 309 c 128,-1,73
 714.5 316 714.5 316 692 320 c 128,-1,74
 669.5 324 669.5 324 642.5 324 c 0,75,76
 616.5 324 616.5 324 593.5 320 c 128,-1,77
 570.5 316 570.5 316 553.5 309 c 128,-1,78
 536.5 302 536.5 302 527 292.5 c 128,-1,79
 517.5 283 517.5 283 517.5 272 c 256,60,61
437.5 461 m 256,80,81
 437.5 478 437.5 478 453 493.5 c 128,-1,82
 468.5 509 468.5 509 496.5 520 c 128,-1,83
 524.5 531 524.5 531 562 537.5 c 128,-1,84
 599.5 544 599.5 544 642.5 544 c 0,85,86
 686.5 544 686.5 544 724 537.5 c 128,-1,87
 761.5 531 761.5 531 789 520 c 128,-1,88
 816.5 509 816.5 509 832.5 493.5 c 128,-1,89
 848.5 478 848.5 478 848.5 461 c 256,90,91
 848.5 444 848.5 444 832.5 429 c 128,-1,92
 816.5 414 816.5 414 789 402.5 c 128,-1,93
 761.5 391 761.5 391 724 384.5 c 128,-1,94
 686.5 378 686.5 378 642.5 378 c 0,95,96
 599.5 378 599.5 378 562 384.5 c 128,-1,97
 524.5 391 524.5 391 496.5 402.5 c 128,-1,98
 468.5 414 468.5 414 453 429 c 128,-1,99
 437.5 444 437.5 444 437.5 461 c 256,80,81
437.5 648 m 256,100,101
 437.5 665 437.5 665 453 680.5 c 128,-1,102
 468.5 696 468.5 696 496.5 707 c 128,-1,103
 524.5 718 524.5 718 562 724.5 c 128,-1,104
 599.5 731 599.5 731 642.5 731 c 0,105,106
 686.5 731 686.5 731 724 724.5 c 128,-1,107
 761.5 718 761.5 718 789 707 c 128,-1,108
 816.5 696 816.5 696 832.5 680.5 c 128,-1,109
 848.5 665 848.5 665 848.5 648 c 256,110,111
 848.5 631 848.5 631 832.5 616 c 128,-1,112
 816.5 601 816.5 601 789 589.5 c 128,-1,113
 761.5 578 761.5 578 724 571.5 c 128,-1,114
 686.5 565 686.5 565 642.5 565 c 0,115,116
 599.5 565 599.5 565 562 571.5 c 128,-1,117
 524.5 578 524.5 578 496.5 589.5 c 128,-1,118
 468.5 601 468.5 601 453 616 c 128,-1,119
 437.5 631 437.5 631 437.5 648 c 256,100,101
EndSplineSet
EndChar

StartChar: uni008D
Encoding: 141 141 110
Width: 1286
Flags: W
LayerCount: 2
Fore
SplineSet
437.5 85 m 0,0,1
 437.5 103 437.5 103 453 118 c 128,-1,2
 468.5 133 468.5 133 496.5 144.5 c 128,-1,3
 524.5 156 524.5 156 562 162.5 c 128,-1,4
 599.5 169 599.5 169 642.5 169 c 0,5,6
 686.5 169 686.5 169 724 162.5 c 128,-1,7
 761.5 156 761.5 156 789 144.5 c 128,-1,8
 816.5 133 816.5 133 832.5 118 c 128,-1,9
 848.5 103 848.5 103 848.5 85 c 0,10,11
 848.5 68 848.5 68 832.5 53 c 128,-1,12
 816.5 38 816.5 38 789 27 c 128,-1,13
 761.5 16 761.5 16 724 9.5 c 128,-1,14
 686.5 3 686.5 3 642.5 3 c 0,15,16
 599.5 3 599.5 3 562 9.5 c 128,-1,17
 524.5 16 524.5 16 496.5 27 c 128,-1,18
 468.5 38 468.5 38 453 53 c 128,-1,19
 437.5 68 437.5 68 437.5 85 c 0,0,1
437.5 272 m 0,20,21
 437.5 290 437.5 290 453 305 c 128,-1,22
 468.5 320 468.5 320 496.5 331.5 c 128,-1,23
 524.5 343 524.5 343 562 349 c 128,-1,24
 599.5 355 599.5 355 642.5 355 c 0,25,26
 686.5 355 686.5 355 724 349 c 128,-1,27
 761.5 343 761.5 343 789 331.5 c 128,-1,28
 816.5 320 816.5 320 832.5 305 c 128,-1,29
 848.5 290 848.5 290 848.5 272 c 0,30,31
 848.5 255 848.5 255 832.5 240 c 128,-1,32
 816.5 225 816.5 225 789 214 c 128,-1,33
 761.5 203 761.5 203 724 196 c 128,-1,34
 686.5 189 686.5 189 642.5 189 c 0,35,36
 599.5 189 599.5 189 562 196 c 128,-1,37
 524.5 203 524.5 203 496.5 214 c 128,-1,38
 468.5 225 468.5 225 453 240 c 128,-1,39
 437.5 255 437.5 255 437.5 272 c 0,20,21
517.5 272 m 256,40,41
 517.5 261 517.5 261 527 251.5 c 128,-1,42
 536.5 242 536.5 242 553.5 235 c 128,-1,43
 570.5 228 570.5 228 593.5 224 c 128,-1,44
 616.5 220 616.5 220 642.5 220 c 0,45,46
 669.5 220 669.5 220 692 224 c 128,-1,47
 714.5 228 714.5 228 731.5 235 c 128,-1,48
 748.5 242 748.5 242 758 251.5 c 128,-1,49
 767.5 261 767.5 261 767.5 272 c 256,50,51
 767.5 283 767.5 283 758 292.5 c 128,-1,52
 748.5 302 748.5 302 731.5 309 c 128,-1,53
 714.5 316 714.5 316 692 320 c 128,-1,54
 669.5 324 669.5 324 642.5 324 c 0,55,56
 616.5 324 616.5 324 593.5 320 c 128,-1,57
 570.5 316 570.5 316 553.5 309 c 128,-1,58
 536.5 302 536.5 302 527 292.5 c 128,-1,59
 517.5 283 517.5 283 517.5 272 c 256,40,41
437.5 461 m 256,60,61
 437.5 478 437.5 478 453 493.5 c 128,-1,62
 468.5 509 468.5 509 496.5 520 c 128,-1,63
 524.5 531 524.5 531 562 537.5 c 128,-1,64
 599.5 544 599.5 544 642.5 544 c 0,65,66
 686.5 544 686.5 544 724 537.5 c 128,-1,67
 761.5 531 761.5 531 789 520 c 128,-1,68
 816.5 509 816.5 509 832.5 493.5 c 128,-1,69
 848.5 478 848.5 478 848.5 461 c 256,70,71
 848.5 444 848.5 444 832.5 429 c 128,-1,72
 816.5 414 816.5 414 789 402.5 c 128,-1,73
 761.5 391 761.5 391 724 384.5 c 128,-1,74
 686.5 378 686.5 378 642.5 378 c 0,75,76
 599.5 378 599.5 378 562 384.5 c 128,-1,77
 524.5 391 524.5 391 496.5 402.5 c 128,-1,78
 468.5 414 468.5 414 453 429 c 128,-1,79
 437.5 444 437.5 444 437.5 461 c 256,60,61
437.5 648 m 256,80,81
 437.5 665 437.5 665 453 680.5 c 128,-1,82
 468.5 696 468.5 696 496.5 707 c 128,-1,83
 524.5 718 524.5 718 562 724.5 c 128,-1,84
 599.5 731 599.5 731 642.5 731 c 0,85,86
 686.5 731 686.5 731 724 724.5 c 128,-1,87
 761.5 718 761.5 718 789 707 c 128,-1,88
 816.5 696 816.5 696 832.5 680.5 c 128,-1,89
 848.5 665 848.5 665 848.5 648 c 256,90,91
 848.5 631 848.5 631 832.5 616 c 128,-1,92
 816.5 601 816.5 601 789 589.5 c 128,-1,93
 761.5 578 761.5 578 724 571.5 c 128,-1,94
 686.5 565 686.5 565 642.5 565 c 0,95,96
 599.5 565 599.5 565 562 571.5 c 128,-1,97
 524.5 578 524.5 578 496.5 589.5 c 128,-1,98
 468.5 601 468.5 601 453 616 c 128,-1,99
 437.5 631 437.5 631 437.5 648 c 256,80,81
EndSplineSet
EndChar

StartChar: uni008E
Encoding: 142 142 111
Width: 1286
Flags: W
LayerCount: 2
Fore
SplineSet
437.5 85 m 0,0,1
 437.5 103 437.5 103 453 118 c 128,-1,2
 468.5 133 468.5 133 496.5 144.5 c 128,-1,3
 524.5 156 524.5 156 562 162.5 c 128,-1,4
 599.5 169 599.5 169 642.5 169 c 0,5,6
 686.5 169 686.5 169 724 162.5 c 128,-1,7
 761.5 156 761.5 156 789 144.5 c 128,-1,8
 816.5 133 816.5 133 832.5 118 c 128,-1,9
 848.5 103 848.5 103 848.5 85 c 0,10,11
 848.5 68 848.5 68 832.5 53 c 128,-1,12
 816.5 38 816.5 38 789 27 c 128,-1,13
 761.5 16 761.5 16 724 9.5 c 128,-1,14
 686.5 3 686.5 3 642.5 3 c 0,15,16
 599.5 3 599.5 3 562 9.5 c 128,-1,17
 524.5 16 524.5 16 496.5 27 c 128,-1,18
 468.5 38 468.5 38 453 53 c 128,-1,19
 437.5 68 437.5 68 437.5 85 c 0,0,1
517.5 85 m 256,20,21
 517.5 74 517.5 74 527 64.5 c 128,-1,22
 536.5 55 536.5 55 553.5 48.5 c 128,-1,23
 570.5 42 570.5 42 593.5 38 c 128,-1,24
 616.5 34 616.5 34 642.5 34 c 0,25,26
 669.5 34 669.5 34 692 38 c 128,-1,27
 714.5 42 714.5 42 731.5 48.5 c 128,-1,28
 748.5 55 748.5 55 758 64.5 c 128,-1,29
 767.5 74 767.5 74 767.5 85 c 256,30,31
 767.5 96 767.5 96 758 105.5 c 128,-1,32
 748.5 115 748.5 115 731.5 122 c 128,-1,33
 714.5 129 714.5 129 692 133 c 128,-1,34
 669.5 137 669.5 137 642.5 137 c 0,35,36
 616.5 137 616.5 137 593.5 133 c 128,-1,37
 570.5 129 570.5 129 553.5 122 c 128,-1,38
 536.5 115 536.5 115 527 105.5 c 128,-1,39
 517.5 96 517.5 96 517.5 85 c 256,20,21
437.5 272 m 0,40,41
 437.5 290 437.5 290 453 305 c 128,-1,42
 468.5 320 468.5 320 496.5 331.5 c 128,-1,43
 524.5 343 524.5 343 562 349 c 128,-1,44
 599.5 355 599.5 355 642.5 355 c 0,45,46
 686.5 355 686.5 355 724 349 c 128,-1,47
 761.5 343 761.5 343 789 331.5 c 128,-1,48
 816.5 320 816.5 320 832.5 305 c 128,-1,49
 848.5 290 848.5 290 848.5 272 c 0,50,51
 848.5 255 848.5 255 832.5 240 c 128,-1,52
 816.5 225 816.5 225 789 214 c 128,-1,53
 761.5 203 761.5 203 724 196 c 128,-1,54
 686.5 189 686.5 189 642.5 189 c 0,55,56
 599.5 189 599.5 189 562 196 c 128,-1,57
 524.5 203 524.5 203 496.5 214 c 128,-1,58
 468.5 225 468.5 225 453 240 c 128,-1,59
 437.5 255 437.5 255 437.5 272 c 0,40,41
437.5 461 m 256,60,61
 437.5 478 437.5 478 453 493.5 c 128,-1,62
 468.5 509 468.5 509 496.5 520 c 128,-1,63
 524.5 531 524.5 531 562 537.5 c 128,-1,64
 599.5 544 599.5 544 642.5 544 c 0,65,66
 686.5 544 686.5 544 724 537.5 c 128,-1,67
 761.5 531 761.5 531 789 520 c 128,-1,68
 816.5 509 816.5 509 832.5 493.5 c 128,-1,69
 848.5 478 848.5 478 848.5 461 c 256,70,71
 848.5 444 848.5 444 832.5 429 c 128,-1,72
 816.5 414 816.5 414 789 402.5 c 128,-1,73
 761.5 391 761.5 391 724 384.5 c 128,-1,74
 686.5 378 686.5 378 642.5 378 c 0,75,76
 599.5 378 599.5 378 562 384.5 c 128,-1,77
 524.5 391 524.5 391 496.5 402.5 c 128,-1,78
 468.5 414 468.5 414 453 429 c 128,-1,79
 437.5 444 437.5 444 437.5 461 c 256,60,61
437.5 648 m 256,80,81
 437.5 665 437.5 665 453 680.5 c 128,-1,82
 468.5 696 468.5 696 496.5 707 c 128,-1,83
 524.5 718 524.5 718 562 724.5 c 128,-1,84
 599.5 731 599.5 731 642.5 731 c 0,85,86
 686.5 731 686.5 731 724 724.5 c 128,-1,87
 761.5 718 761.5 718 789 707 c 128,-1,88
 816.5 696 816.5 696 832.5 680.5 c 128,-1,89
 848.5 665 848.5 665 848.5 648 c 256,90,91
 848.5 631 848.5 631 832.5 616 c 128,-1,92
 816.5 601 816.5 601 789 589.5 c 128,-1,93
 761.5 578 761.5 578 724 571.5 c 128,-1,94
 686.5 565 686.5 565 642.5 565 c 0,95,96
 599.5 565 599.5 565 562 571.5 c 128,-1,97
 524.5 578 524.5 578 496.5 589.5 c 128,-1,98
 468.5 601 468.5 601 453 616 c 128,-1,99
 437.5 631 437.5 631 437.5 648 c 256,80,81
EndSplineSet
EndChar

StartChar: uni008F
Encoding: 143 143 112
Width: 1286
Flags: W
LayerCount: 2
Fore
SplineSet
437.5 85 m 0,0,1
 437.5 103 437.5 103 453 118 c 128,-1,2
 468.5 133 468.5 133 496.5 144.5 c 128,-1,3
 524.5 156 524.5 156 562 162.5 c 128,-1,4
 599.5 169 599.5 169 642.5 169 c 0,5,6
 686.5 169 686.5 169 724 162.5 c 128,-1,7
 761.5 156 761.5 156 789 144.5 c 128,-1,8
 816.5 133 816.5 133 832.5 118 c 128,-1,9
 848.5 103 848.5 103 848.5 85 c 0,10,11
 848.5 68 848.5 68 832.5 53 c 128,-1,12
 816.5 38 816.5 38 789 27 c 128,-1,13
 761.5 16 761.5 16 724 9.5 c 128,-1,14
 686.5 3 686.5 3 642.5 3 c 0,15,16
 599.5 3 599.5 3 562 9.5 c 128,-1,17
 524.5 16 524.5 16 496.5 27 c 128,-1,18
 468.5 38 468.5 38 453 53 c 128,-1,19
 437.5 68 437.5 68 437.5 85 c 0,0,1
437.5 272 m 0,20,21
 437.5 290 437.5 290 453 305 c 128,-1,22
 468.5 320 468.5 320 496.5 331.5 c 128,-1,23
 524.5 343 524.5 343 562 349 c 128,-1,24
 599.5 355 599.5 355 642.5 355 c 0,25,26
 686.5 355 686.5 355 724 349 c 128,-1,27
 761.5 343 761.5 343 789 331.5 c 128,-1,28
 816.5 320 816.5 320 832.5 305 c 128,-1,29
 848.5 290 848.5 290 848.5 272 c 0,30,31
 848.5 255 848.5 255 832.5 240 c 128,-1,32
 816.5 225 816.5 225 789 214 c 128,-1,33
 761.5 203 761.5 203 724 196 c 128,-1,34
 686.5 189 686.5 189 642.5 189 c 0,35,36
 599.5 189 599.5 189 562 196 c 128,-1,37
 524.5 203 524.5 203 496.5 214 c 128,-1,38
 468.5 225 468.5 225 453 240 c 128,-1,39
 437.5 255 437.5 255 437.5 272 c 0,20,21
437.5 461 m 256,40,41
 437.5 478 437.5 478 453 493.5 c 128,-1,42
 468.5 509 468.5 509 496.5 520 c 128,-1,43
 524.5 531 524.5 531 562 537.5 c 128,-1,44
 599.5 544 599.5 544 642.5 544 c 0,45,46
 686.5 544 686.5 544 724 537.5 c 128,-1,47
 761.5 531 761.5 531 789 520 c 128,-1,48
 816.5 509 816.5 509 832.5 493.5 c 128,-1,49
 848.5 478 848.5 478 848.5 461 c 256,50,51
 848.5 444 848.5 444 832.5 429 c 128,-1,52
 816.5 414 816.5 414 789 402.5 c 128,-1,53
 761.5 391 761.5 391 724 384.5 c 128,-1,54
 686.5 378 686.5 378 642.5 378 c 0,55,56
 599.5 378 599.5 378 562 384.5 c 128,-1,57
 524.5 391 524.5 391 496.5 402.5 c 128,-1,58
 468.5 414 468.5 414 453 429 c 128,-1,59
 437.5 444 437.5 444 437.5 461 c 256,40,41
437.5 648 m 256,60,61
 437.5 665 437.5 665 453 680.5 c 128,-1,62
 468.5 696 468.5 696 496.5 707 c 128,-1,63
 524.5 718 524.5 718 562 724.5 c 128,-1,64
 599.5 731 599.5 731 642.5 731 c 0,65,66
 686.5 731 686.5 731 724 724.5 c 128,-1,67
 761.5 718 761.5 718 789 707 c 128,-1,68
 816.5 696 816.5 696 832.5 680.5 c 128,-1,69
 848.5 665 848.5 665 848.5 648 c 256,70,71
 848.5 631 848.5 631 832.5 616 c 128,-1,72
 816.5 601 816.5 601 789 589.5 c 128,-1,73
 761.5 578 761.5 578 724 571.5 c 128,-1,74
 686.5 565 686.5 565 642.5 565 c 0,75,76
 599.5 565 599.5 565 562 571.5 c 128,-1,77
 524.5 578 524.5 578 496.5 589.5 c 128,-1,78
 468.5 601 468.5 601 453 616 c 128,-1,79
 437.5 631 437.5 631 437.5 648 c 256,60,61
EndSplineSet
EndChar

StartChar: uni0090
Encoding: 144 144 113
Width: 1286
Flags: W
LayerCount: 2
Fore
SplineSet
642 -10 m 0,0,1
 527 -10 527 -10 471 87.5 c 128,-1,2
 415 185 415 185 415 358 c 0,3,4
 415 474 415 474 437.5 556 c 128,-1,5
 460 638 460 638 510 681.5 c 128,-1,6
 560 725 560 725 642 725 c 0,7,8
 758 725 758 725 814.5 628.5 c 128,-1,9
 871 532 871 532 871 358 c 0,10,11
 871 271 871 271 858.5 203 c 128,-1,12
 846 135 846 135 819 87.5 c 128,-1,13
 792 40 792 40 748 15 c 128,-1,14
 704 -10 704 -10 642 -10 c 0,0,1
642 66 m 256,15,16
 717 66 717 66 749 138 c 128,-1,17
 781 210 781 210 781 358 c 0,18,19
 781 504 781 504 749 576.5 c 128,-1,20
 717 649 717 649 642 649 c 256,21,22
 567 649 567 649 536 576.5 c 128,-1,23
 505 504 505 504 505 358 c 256,24,25
 505 212 505 212 536 139 c 128,-1,26
 567 66 567 66 642 66 c 256,15,16
EndSplineSet
EndChar

StartChar: uni0091
Encoding: 145 145 114
Width: 1286
Flags: W
LayerCount: 2
Fore
SplineSet
687 0 m 1,0,-1
 687 446 l 2,1,2
 687 474 687 474 688 506.5 c 128,-1,3
 689 539 689 539 690 569.5 c 128,-1,4
 691 600 691 600 691 622 c 1,5,6
 675 605 675 605 663.5 594.5 c 128,-1,7
 652 584 652 584 632 567 c 2,8,-1
 560 508 l 1,9,-1
 513 568 l 1,10,-1
 700 714 l 1,11,-1
 773 714 l 1,12,-1
 773 0 l 1,13,-1
 687 0 l 1,0,-1
EndSplineSet
EndChar

StartChar: uni0092
Encoding: 146 146 115
Width: 1286
Flags: W
LayerCount: 2
Fore
SplineSet
420.5 76 m 1,0,-1
 591.5 262 l 2,1,2
 640.5 315 640.5 315 675 357 c 128,-1,3
 709.5 399 709.5 399 728.5 440 c 128,-1,4
 747.5 481 747.5 481 747.5 530 c 0,5,6
 747.5 587 747.5 587 715.5 618 c 128,-1,7
 683.5 649 683.5 649 632.5 649 c 0,8,9
 586.5 649 586.5 649 549 630 c 128,-1,10
 511.5 611 511.5 611 477.5 582 c 1,11,-1
 427.5 640 l 1,12,13
 453.5 664 453.5 664 485 683 c 128,-1,14
 516.5 702 516.5 702 554 713 c 128,-1,15
 591.5 724 591.5 724 633.5 724 c 0,16,17
 696.5 724 696.5 724 742 701 c 128,-1,18
 787.5 678 787.5 678 812.5 635.5 c 128,-1,19
 837.5 593 837.5 593 837.5 533 c 0,20,21
 837.5 478 837.5 478 815.5 429 c 128,-1,22
 793.5 380 793.5 380 755 332 c 128,-1,23
 716.5 284 716.5 284 666.5 231 c 2,24,-1
 529.5 85 l 1,25,-1
 529.5 81 l 1,26,-1
 865.5 81 l 1,27,-1
 865.5 0 l 1,28,-1
 420.5 0 l 1,29,-1
 420.5 76 l 1,0,-1
EndSplineSet
EndChar

StartChar: uni0093
Encoding: 147 147 116
Width: 1286
Flags: W
LayerCount: 2
Fore
SplineSet
606.5 -10 m 0,0,1
 553.5 -10 553.5 -10 506 -1.5 c 128,-1,2
 458.5 7 458.5 7 417.5 29 c 1,3,-1
 417.5 112 l 1,4,5
 460.5 90 460.5 90 509.5 77.5 c 128,-1,6
 558.5 65 558.5 65 604.5 65 c 0,7,8
 694.5 65 694.5 65 736 102.5 c 128,-1,9
 777.5 140 777.5 140 777.5 206 c 0,10,11
 777.5 250 777.5 250 755 278 c 128,-1,12
 732.5 306 732.5 306 691 319 c 128,-1,13
 649.5 332 649.5 332 591.5 332 c 2,14,-1
 526.5 332 l 1,15,-1
 526.5 406 l 1,16,-1
 591.5 406 l 2,17,18
 644.5 406 644.5 406 681 423 c 128,-1,19
 717.5 440 717.5 440 736.5 470.5 c 128,-1,20
 755.5 501 755.5 501 755.5 541 c 0,21,22
 755.5 575 755.5 575 740 599 c 128,-1,23
 724.5 623 724.5 623 697.5 636 c 128,-1,24
 670.5 649 670.5 649 633.5 649 c 0,25,26
 581.5 649 581.5 649 541.5 632.5 c 128,-1,27
 501.5 616 501.5 616 465.5 590 c 1,28,-1
 420.5 651 l 1,29,30
 457.5 681 457.5 681 511.5 702.5 c 128,-1,31
 565.5 724 565.5 724 633.5 724 c 0,32,33
 703.5 724 703.5 724 751 701 c 128,-1,34
 798.5 678 798.5 678 822.5 638.5 c 128,-1,35
 846.5 599 846.5 599 846.5 547 c 0,36,37
 846.5 499 846.5 499 827 463.5 c 128,-1,38
 807.5 428 807.5 428 773 406 c 128,-1,39
 738.5 384 738.5 384 692.5 376 c 1,40,-1
 692.5 373 l 1,41,42
 778.5 363 778.5 363 823.5 318.5 c 128,-1,43
 868.5 274 868.5 274 868.5 203 c 0,44,45
 868.5 141 868.5 141 840.5 92.5 c 128,-1,46
 812.5 44 812.5 44 754.5 17 c 128,-1,47
 696.5 -10 696.5 -10 606.5 -10 c 0,0,1
EndSplineSet
EndChar

StartChar: uni0094
Encoding: 148 148 117
Width: 1286
Flags: W
LayerCount: 2
Fore
SplineSet
713 160 m 1,0,-1
 383 160 l 1,1,-1
 383 238 l 1,2,-1
 707 718 l 1,3,-1
 799 718 l 1,4,-1
 799 241 l 1,5,-1
 903 241 l 1,6,-1
 903 160 l 1,7,-1
 799 160 l 1,8,-1
 799 0 l 1,9,-1
 713 0 l 1,10,-1
 713 160 l 1,0,-1
713 241 m 1,11,-1
 713 415 l 2,12,13
 713 442 713 442 714 472 c 128,-1,14
 715 502 715 502 716 531 c 128,-1,15
 717 560 717 560 718 585 c 128,-1,16
 719 610 719 610 719 626 c 1,17,-1
 715 626 l 1,18,19
 708 607 708 607 695 581 c 128,-1,20
 682 555 682 555 671 538 c 2,21,-1
 470 241 l 1,22,-1
 713 241 l 1,11,-1
EndSplineSet
EndChar

StartChar: uni0095
Encoding: 149 149 118
Width: 1286
Flags: W
LayerCount: 2
Fore
SplineSet
601.5 -10 m 0,0,1
 551.5 -10 551.5 -10 505.5 -0.5 c 128,-1,2
 459.5 9 459.5 9 427.5 29 c 1,3,-1
 427.5 113 l 1,4,5
 449.5 98 449.5 98 480 87.5 c 128,-1,6
 510.5 77 510.5 77 543.5 71.5 c 128,-1,7
 576.5 66 576.5 66 603.5 66 c 0,8,9
 680.5 66 680.5 66 724 103 c 128,-1,10
 767.5 140 767.5 140 767.5 219 c 0,11,12
 767.5 290 767.5 290 724.5 326.5 c 128,-1,13
 681.5 363 681.5 363 599.5 363 c 0,14,15
 573.5 363 573.5 363 540 358.5 c 128,-1,16
 506.5 354 506.5 354 486.5 350 c 1,17,-1
 442.5 378 l 1,18,-1
 469.5 714 l 1,19,-1
 806.5 714 l 1,20,-1
 806.5 633 l 1,21,-1
 546.5 633 l 1,22,-1
 527.5 428 l 1,23,24
 543.5 432 543.5 432 571 435 c 128,-1,25
 598.5 438 598.5 438 629.5 438 c 0,26,27
 694.5 438 694.5 438 746 414.5 c 128,-1,28
 797.5 391 797.5 391 828 344.5 c 128,-1,29
 858.5 298 858.5 298 858.5 229 c 0,30,31
 858.5 117 858.5 117 792.5 53.5 c 128,-1,32
 726.5 -10 726.5 -10 601.5 -10 c 0,0,1
EndSplineSet
EndChar

StartChar: uni0096
Encoding: 150 150 119
Width: 1286
Flags: W
LayerCount: 2
Fore
SplineSet
651 -10 m 0,0,1
 586 -10 586 -10 533 24 c 128,-1,2
 480 58 480 58 449 128 c 128,-1,3
 418 198 418 198 418 305 c 0,4,5
 418 367 418 367 425.5 427 c 128,-1,6
 433 487 433 487 453 540.5 c 128,-1,7
 473 594 473 594 508 635.5 c 128,-1,8
 543 677 543 677 597.5 700.5 c 128,-1,9
 652 724 652 724 730 724 c 0,10,11
 749 724 749 724 773.5 722 c 128,-1,12
 798 720 798 720 814 715 c 1,13,-1
 814 639 l 1,14,15
 797 645 797 645 775.5 648 c 128,-1,16
 754 651 754 651 733 651 c 0,17,18
 667 651 667 651 624.5 628 c 128,-1,19
 582 605 582 605 557.5 565.5 c 128,-1,20
 533 526 533 526 522 474 c 128,-1,21
 511 422 511 422 509 364 c 1,22,-1
 515 364 l 1,23,24
 535 399 535 399 571 423 c 128,-1,25
 607 447 607 447 665 447 c 0,26,27
 727 447 727 447 772.5 421.5 c 128,-1,28
 818 396 818 396 843 347.5 c 128,-1,29
 868 299 868 299 868 230 c 0,30,31
 868 156 868 156 841.5 102 c 128,-1,32
 815 48 815 48 766.5 19 c 128,-1,33
 718 -10 718 -10 651 -10 c 0,0,1
650 65 m 0,34,35
 709 65 709 65 745.5 105 c 128,-1,36
 782 145 782 145 782 230 c 0,37,38
 782 298 782 298 750 337.5 c 128,-1,39
 718 377 718 377 653 377 c 0,40,41
 609 377 609 377 576 357.5 c 128,-1,42
 543 338 543 338 525 308.5 c 128,-1,43
 507 279 507 279 507 247 c 0,44,45
 507 204 507 204 523 162 c 128,-1,46
 539 120 539 120 571 92.5 c 128,-1,47
 603 65 603 65 650 65 c 0,34,35
EndSplineSet
EndChar

StartChar: uni0097
Encoding: 151 151 120
Width: 1286
Flags: W
LayerCount: 2
Fore
SplineSet
781.5 633 m 1,0,-1
 413.5 633 l 1,1,-1
 413.5 714 l 1,2,-1
 872.5 714 l 1,3,-1
 872.5 643 l 1,4,-1
 601.5 0 l 1,5,-1
 506.5 0 l 1,6,-1
 781.5 633 l 1,0,-1
EndSplineSet
EndChar

StartChar: uni0098
Encoding: 152 152 121
Width: 1286
Flags: W
LayerCount: 2
Fore
SplineSet
643 -10 m 0,0,1
 536 -10 536 -10 477.5 41.5 c 128,-1,2
 419 93 419 93 419 182 c 0,3,4
 419 231 419 231 437.5 267 c 128,-1,5
 456 303 456 303 487.5 329.5 c 128,-1,6
 519 356 519 356 557 374 c 1,7,8
 525 395 525 395 499 420 c 128,-1,9
 473 445 473 445 457.5 478 c 128,-1,10
 442 511 442 511 442 554 c 0,11,12
 442 611 442 611 470 649 c 128,-1,13
 498 687 498 687 544 706 c 128,-1,14
 590 725 590 725 643 725 c 0,15,16
 698 725 698 725 743.5 706 c 128,-1,17
 789 687 789 687 816.5 649 c 128,-1,18
 844 611 844 611 844 553 c 0,19,20
 844 510 844 510 827 477.5 c 128,-1,21
 810 445 810 445 781.5 421 c 128,-1,22
 753 397 753 397 716 378 c 1,23,24
 754 358 754 358 788.5 331.5 c 128,-1,25
 823 305 823 305 845 269.5 c 128,-1,26
 867 234 867 234 867 186 c 0,27,28
 867 126 867 126 838.5 82 c 128,-1,29
 810 38 810 38 760 14 c 128,-1,30
 710 -10 710 -10 643 -10 c 0,0,1
641 64 m 0,31,32
 710 64 710 64 745 97 c 128,-1,33
 780 130 780 130 780 185 c 0,34,35
 780 233 780 233 743.5 268.5 c 128,-1,36
 707 304 707 304 630 340 c 1,37,38
 589 321 589 321 561.5 297.5 c 128,-1,39
 534 274 534 274 520 245.5 c 128,-1,40
 506 217 506 217 506 181 c 0,41,42
 506 129 506 129 538.5 96.5 c 128,-1,43
 571 64 571 64 641 64 c 0,31,32
644 414 m 1,44,45
 676 429 676 429 701.5 447 c 128,-1,46
 727 465 727 465 742 490 c 128,-1,47
 757 515 757 515 757 550 c 0,48,49
 757 600 757 600 726.5 625.5 c 128,-1,50
 696 651 696 651 642 651 c 0,51,52
 608 651 608 651 582.5 639.5 c 128,-1,53
 557 628 557 628 543 605.5 c 128,-1,54
 529 583 529 583 529 550 c 0,55,56
 529 514 529 514 544 489.5 c 128,-1,57
 559 465 559 465 585 447.5 c 128,-1,58
 611 430 611 430 644 414 c 1,44,45
EndSplineSet
EndChar

StartChar: uni0099
Encoding: 153 153 122
Width: 1286
Flags: W
LayerCount: 2
Fore
SplineSet
556 -10 m 0,0,1
 537 -10 537 -10 513 -7.5 c 128,-1,2
 489 -5 489 -5 472 -1 c 1,3,-1
 472 75 l 1,4,5
 489 69 489 69 510.5 66 c 128,-1,6
 532 63 532 63 553 63 c 0,7,8
 619 63 619 63 662 86 c 128,-1,9
 705 109 705 109 729 148.5 c 128,-1,10
 753 188 753 188 764 240 c 128,-1,11
 775 292 775 292 777 350 c 1,12,-1
 771 350 l 1,13,14
 758 327 758 327 737.5 308 c 128,-1,15
 717 289 717 289 688.5 278 c 128,-1,16
 660 267 660 267 621 267 c 0,17,18
 560 267 560 267 514 292.5 c 128,-1,19
 468 318 468 318 443 366.5 c 128,-1,20
 418 415 418 415 418 484 c 0,21,22
 418 559 418 559 444.5 612.5 c 128,-1,23
 471 666 471 666 520 695 c 128,-1,24
 569 724 569 724 635 724 c 256,25,26
 701 724 701 724 753.5 690 c 128,-1,27
 806 656 806 656 837 586 c 128,-1,28
 868 516 868 516 868 409 c 0,29,30
 868 348 868 348 860.5 287.5 c 128,-1,31
 853 227 853 227 833 173.5 c 128,-1,32
 813 120 813 120 778 78.5 c 128,-1,33
 743 37 743 37 688.5 13.5 c 128,-1,34
 634 -10 634 -10 556 -10 c 0,0,1
633 337 m 0,35,36
 677 337 677 337 710 356.5 c 128,-1,37
 743 376 743 376 761 406 c 128,-1,38
 779 436 779 436 779 467 c 0,39,40
 779 500 779 500 770 532 c 128,-1,41
 761 564 761 564 743 590.5 c 128,-1,42
 725 617 725 617 698.5 633 c 128,-1,43
 672 649 672 649 636 649 c 0,44,45
 578 649 578 649 541 609 c 128,-1,46
 504 569 504 569 504 484 c 0,47,48
 504 416 504 416 536.5 376.5 c 128,-1,49
 569 337 569 337 633 337 c 0,35,36
EndSplineSet
EndChar

StartChar: uni009A
Encoding: 154 154 123
Width: 1286
Flags: W
LayerCount: 2
Fore
SplineSet
693.5 723 m 0,0,1
 748.5 723 748.5 723 792.5 711 c 128,-1,2
 836.5 699 836.5 699 870.5 682 c 1,3,-1
 839.5 612 l 1,4,5
 809.5 626 809.5 626 773 638 c 128,-1,6
 736.5 650 736.5 650 695.5 650 c 0,7,8
 638.5 650 638.5 650 608.5 620.5 c 128,-1,9
 578.5 591 578.5 591 578.5 525 c 2,10,-1
 578.5 386 l 1,11,-1
 782.5 386 l 1,12,-1
 782.5 320 l 1,13,-1
 578.5 320 l 1,14,-1
 578.5 216 l 2,15,16
 578.5 176 578.5 176 569 149.5 c 128,-1,17
 559.5 123 559.5 123 544 107 c 128,-1,18
 528.5 91 528.5 91 510.5 80 c 1,19,-1
 894.5 80 l 1,20,-1
 894.5 0 l 1,21,-1
 391.5 0 l 1,22,-1
 391.5 74 l 1,23,24
 420.5 81 420.5 81 442.5 97.5 c 128,-1,25
 464.5 114 464.5 114 477.5 142.5 c 128,-1,26
 490.5 171 490.5 171 490.5 215 c 2,27,-1
 490.5 320 l 1,28,-1
 394.5 320 l 1,29,-1
 394.5 386 l 1,30,-1
 490.5 386 l 1,31,-1
 490.5 534 l 2,32,33
 490.5 594 490.5 594 515.5 636 c 128,-1,34
 540.5 678 540.5 678 586.5 700.5 c 128,-1,35
 632.5 723 632.5 723 693.5 723 c 0,0,1
EndSplineSet
EndChar

StartChar: uni009B
Encoding: 155 155 124
Width: 1286
Flags: W
LayerCount: 2
Fore
SplineSet
592.5 -8 m 4,0,1
 537.5 -8 537.5 -8 493.5 4 c 132,-1,2
 449.5 16 449.5 16 415.5 33 c 5,3,-1
 446.5 103 l 5,4,5
 476.5 89 476.5 89 513 77 c 132,-1,6
 549.5 65 549.5 65 590.5 65 c 4,7,8
 647.5 65 647.5 65 677.5 94.5 c 132,-1,9
 707.5 124 707.5 124 707.5 190 c 6,10,-1
 707.5 329 l 5,11,-1
 503.5 329 l 5,12,-1
 503.5 395 l 5,13,-1
 707.5 395 l 5,14,-1
 707.5 499 l 6,15,16
 707.5 539 707.5 539 717 565.5 c 132,-1,17
 726.5 592 726.5 592 742 608 c 132,-1,18
 757.5 624 757.5 624 775.5 635 c 5,19,-1
 391.5 635 l 5,20,-1
 391.5 715 l 5,21,-1
 894.5 715 l 5,22,-1
 894.5 641 l 5,23,24
 865.5 634 865.5 634 843.5 617.5 c 132,-1,25
 821.5 601 821.5 601 808.5 572.5 c 132,-1,26
 795.5 544 795.5 544 795.5 500 c 6,27,-1
 795.5 395 l 5,28,-1
 891.5 395 l 5,29,-1
 891.5 329 l 5,30,-1
 795.5 329 l 5,31,-1
 795.5 181 l 6,32,33
 795.5 121 795.5 121 770.5 79 c 132,-1,34
 745.5 37 745.5 37 699.5 14.5 c 132,-1,35
 653.5 -8 653.5 -8 592.5 -8 c 4,0,1
EndSplineSet
EndChar

StartChar: uni009C
Encoding: 156 156 125
Width: 1286
Flags: W
LayerCount: 2
Fore
SplineSet
829.5 617 m 0,0,1
 829.5 583 829.5 583 815.5 557.5 c 128,-1,2
 801.5 532 801.5 532 780.5 512.5 c 128,-1,3
 759.5 493 759.5 493 738.5 477 c 128,-1,4
 717.5 461 717.5 461 703.5 445.5 c 128,-1,5
 689.5 430 689.5 430 689.5 412 c 0,6,7
 689.5 399 689.5 399 696 388 c 128,-1,8
 702.5 377 702.5 377 721.5 362.5 c 128,-1,9
 740.5 348 740.5 348 777.5 323 c 0,10,11
 813.5 299 813.5 299 839.5 275 c 128,-1,12
 865.5 251 865.5 251 879.5 222 c 128,-1,13
 893.5 193 893.5 193 893.5 153 c 0,14,15
 893.5 96 893.5 96 870 60 c 128,-1,16
 846.5 24 846.5 24 804.5 7 c 128,-1,17
 762.5 -10 762.5 -10 707.5 -10 c 0,18,19
 660.5 -10 660.5 -10 624.5 -1 c 128,-1,20
 588.5 8 588.5 8 562.5 24 c 1,21,-1
 562.5 103 l 1,22,23
 579.5 93 579.5 93 602.5 83 c 128,-1,24
 625.5 73 625.5 73 652 67 c 128,-1,25
 678.5 61 678.5 61 704.5 61 c 0,26,27
 759.5 61 759.5 61 783.5 84 c 128,-1,28
 807.5 107 807.5 107 807.5 147 c 0,29,30
 807.5 171 807.5 171 799 189.5 c 128,-1,31
 790.5 208 790.5 208 770 226 c 128,-1,32
 749.5 244 749.5 244 713.5 267 c 0,33,34
 671.5 294 671.5 294 648 315.5 c 128,-1,35
 624.5 337 624.5 337 614.5 359 c 128,-1,36
 604.5 381 604.5 381 604.5 407 c 0,37,38
 604.5 438 604.5 438 618 460 c 128,-1,39
 631.5 482 631.5 482 652 498.5 c 128,-1,40
 672.5 515 672.5 515 693 531 c 128,-1,41
 713.5 547 713.5 547 727 566 c 128,-1,42
 740.5 585 740.5 585 740.5 612 c 0,43,44
 740.5 654 740.5 654 705 673 c 128,-1,45
 669.5 692 669.5 692 613.5 692 c 0,46,47
 578.5 692 578.5 692 548 682.5 c 128,-1,48
 517.5 673 517.5 673 499 650 c 128,-1,49
 480.5 627 480.5 627 480.5 584 c 2,50,-1
 480.5 0 l 1,51,-1
 392.5 0 l 1,52,-1
 392.5 584 l 2,53,54
 392.5 651 392.5 651 421.5 690.5 c 128,-1,55
 450.5 730 450.5 730 500.5 747.5 c 128,-1,56
 550.5 765 550.5 765 613.5 765 c 0,57,58
 678.5 765 678.5 765 727 748.5 c 128,-1,59
 775.5 732 775.5 732 802.5 699.5 c 128,-1,60
 829.5 667 829.5 667 829.5 617 c 0,0,1
EndSplineSet
EndChar

StartChar: uni009D
Encoding: 157 157 126
Width: 1286
Flags: W
LayerCount: 2
Fore
SplineSet
499 -10 m 0,0,1
 437 -10 437 -10 394.5 24 c 128,-1,2
 352 58 352 58 330 119 c 128,-1,3
 308 180 308 180 308 260 c 0,4,5
 308 322 308 322 319.5 467 c 128,-1,6
 331 612 331 612 350 652 c 5,7,-1
 236 652 l 5,8,-1
 236 725 l 5,9,-1
 1050 725 l 5,10,-1
 1050 652 l 5,11,-1
 936 652 l 5,12,13
 956 612 956 612 967 467 c 128,-1,14
 978 322 978 322 978 260 c 0,15,16
 978 180 978 180 956 119 c 128,-1,17
 934 58 934 58 891.5 24 c 128,-1,18
 849 -10 849 -10 787 -10 c 0,19,20
 732 -10 732 -10 697 15.5 c 128,-1,21
 662 41 662 41 645 100 c 1,22,-1
 640 100 l 1,23,24
 630 61 630 61 611 36.5 c 128,-1,25
 592 12 592 12 564 1 c 128,-1,26
 536 -10 536 -10 499 -10 c 0,0,1
505 63 m 0,27,28
 538 63 538 63 559.5 80 c 128,-1,29
 581 97 581 97 591 126.5 c 128,-1,30
 601 156 601 156 601 193 c 2,31,-1
 601 344 l 1,32,-1
 685 344 l 1,33,-1
 685 193 l 2,34,35
 685 152 685 152 696.5 122.5 c 128,-1,36
 708 93 708 93 729 78 c 128,-1,37
 750 63 750 63 780 63 c 0,38,39
 814 63 814 63 838.5 85 c 128,-1,40
 863 107 863 107 876.5 151 c 128,-1,41
 890 195 890 195 890 259 c 0,42,43
 890 322 890 322 879 467 c 128,-1,44
 868 612 868 612 848 652 c 5,45,-1
 439 652 l 5,46,47
 420 612 420 612 408 467 c 128,-1,48
 396 322 396 322 396 259 c 0,49,50
 396 162 396 162 426 112.5 c 128,-1,51
 456 63 456 63 505 63 c 0,27,28
EndSplineSet
EndChar

StartChar: uni009E
Encoding: 158 158 127
Width: 1286
Flags: W
LayerCount: 2
Fore
SplineSet
842.5 0 m 1,0,-1
 443.5 0 l 1,1,-1
 443.5 714 l 1,2,-1
 842.5 714 l 1,3,-1
 842.5 635 l 1,4,-1
 533.5 635 l 1,5,-1
 533.5 412 l 1,6,-1
 824.5 412 l 1,7,-1
 824.5 334 l 1,8,-1
 533.5 334 l 1,9,-1
 533.5 79 l 1,10,-1
 842.5 79 l 1,11,-1
 842.5 0 l 1,0,-1
EndSplineSet
EndChar

StartChar: uni009F
Encoding: 159 159 128
Width: 1286
Flags: W
LayerCount: 2
Fore
SplineSet
533.5 0 m 1,0,-1
 443.5 0 l 1,1,-1
 443.5 714 l 1,2,-1
 842.5 714 l 1,3,-1
 842.5 635 l 1,4,-1
 533.5 635 l 1,5,-1
 533.5 382 l 1,6,-1
 823.5 382 l 1,7,-1
 823.5 303 l 1,8,-1
 533.5 303 l 1,9,-1
 533.5 0 l 1,0,-1
EndSplineSet
EndChar

